G04 #@! TF.GenerationSoftware,KiCad,Pcbnew,(5.0.1)-4*
G04 #@! TF.CreationDate,2019-08-09T21:17:30+02:00*
G04 #@! TF.ProjectId,USB-SPI_prog,5553422D5350495F70726F672E6B6963,rev?*
G04 #@! TF.SameCoordinates,Original*
G04 #@! TF.FileFunction,Copper,L2,Bot,Signal*
G04 #@! TF.FilePolarity,Positive*
%FSLAX46Y46*%
G04 Gerber Fmt 4.6, Leading zero omitted, Abs format (unit mm)*
G04 Created by KiCad (PCBNEW (5.0.1)-4) date 09.08.2019 21:17:30*
%MOMM*%
%LPD*%
G01*
G04 APERTURE LIST*
G04 #@! TA.AperFunction,NonConductor*
%ADD10C,0.300000*%
G04 #@! TD*
G04 #@! TA.AperFunction,ComponentPad*
%ADD11O,1.900000X1.050000*%
G04 #@! TD*
G04 #@! TA.AperFunction,ComponentPad*
%ADD12R,1.700000X1.700000*%
G04 #@! TD*
G04 #@! TA.AperFunction,ComponentPad*
%ADD13O,1.700000X1.700000*%
G04 #@! TD*
G04 #@! TA.AperFunction,ViaPad*
%ADD14C,0.800000*%
G04 #@! TD*
G04 #@! TA.AperFunction,Conductor*
%ADD15C,0.250000*%
G04 #@! TD*
G04 #@! TA.AperFunction,Conductor*
%ADD16C,0.254000*%
G04 #@! TD*
G04 APERTURE END LIST*
D10*
X165194285Y-82739571D02*
X165194285Y-83953857D01*
X165122857Y-84096714D01*
X165051428Y-84168142D01*
X164908571Y-84239571D01*
X164622857Y-84239571D01*
X164480000Y-84168142D01*
X164408571Y-84096714D01*
X164337142Y-83953857D01*
X164337142Y-82739571D01*
X163694285Y-84168142D02*
X163480000Y-84239571D01*
X163122857Y-84239571D01*
X162980000Y-84168142D01*
X162908571Y-84096714D01*
X162837142Y-83953857D01*
X162837142Y-83811000D01*
X162908571Y-83668142D01*
X162980000Y-83596714D01*
X163122857Y-83525285D01*
X163408571Y-83453857D01*
X163551428Y-83382428D01*
X163622857Y-83311000D01*
X163694285Y-83168142D01*
X163694285Y-83025285D01*
X163622857Y-82882428D01*
X163551428Y-82811000D01*
X163408571Y-82739571D01*
X163051428Y-82739571D01*
X162837142Y-82811000D01*
X161694285Y-83453857D02*
X161480000Y-83525285D01*
X161408571Y-83596714D01*
X161337142Y-83739571D01*
X161337142Y-83953857D01*
X161408571Y-84096714D01*
X161480000Y-84168142D01*
X161622857Y-84239571D01*
X162194285Y-84239571D01*
X162194285Y-82739571D01*
X161694285Y-82739571D01*
X161551428Y-82811000D01*
X161480000Y-82882428D01*
X161408571Y-83025285D01*
X161408571Y-83168142D01*
X161480000Y-83311000D01*
X161551428Y-83382428D01*
X161694285Y-83453857D01*
X162194285Y-83453857D01*
X160694285Y-83668142D02*
X159551428Y-83668142D01*
X158908571Y-84168142D02*
X158694285Y-84239571D01*
X158337142Y-84239571D01*
X158194285Y-84168142D01*
X158122857Y-84096714D01*
X158051428Y-83953857D01*
X158051428Y-83811000D01*
X158122857Y-83668142D01*
X158194285Y-83596714D01*
X158337142Y-83525285D01*
X158622857Y-83453857D01*
X158765714Y-83382428D01*
X158837142Y-83311000D01*
X158908571Y-83168142D01*
X158908571Y-83025285D01*
X158837142Y-82882428D01*
X158765714Y-82811000D01*
X158622857Y-82739571D01*
X158265714Y-82739571D01*
X158051428Y-82811000D01*
X157408571Y-84239571D02*
X157408571Y-82739571D01*
X156837142Y-82739571D01*
X156694285Y-82811000D01*
X156622857Y-82882428D01*
X156551428Y-83025285D01*
X156551428Y-83239571D01*
X156622857Y-83382428D01*
X156694285Y-83453857D01*
X156837142Y-83525285D01*
X157408571Y-83525285D01*
X155908571Y-84239571D02*
X155908571Y-82739571D01*
X155551428Y-84382428D02*
X154408571Y-84382428D01*
X154051428Y-83239571D02*
X154051428Y-84739571D01*
X154051428Y-83311000D02*
X153908571Y-83239571D01*
X153622857Y-83239571D01*
X153480000Y-83311000D01*
X153408571Y-83382428D01*
X153337142Y-83525285D01*
X153337142Y-83953857D01*
X153408571Y-84096714D01*
X153480000Y-84168142D01*
X153622857Y-84239571D01*
X153908571Y-84239571D01*
X154051428Y-84168142D01*
X152694285Y-84239571D02*
X152694285Y-83239571D01*
X152694285Y-83525285D02*
X152622857Y-83382428D01*
X152551428Y-83311000D01*
X152408571Y-83239571D01*
X152265714Y-83239571D01*
X151551428Y-84239571D02*
X151694285Y-84168142D01*
X151765714Y-84096714D01*
X151837142Y-83953857D01*
X151837142Y-83525285D01*
X151765714Y-83382428D01*
X151694285Y-83311000D01*
X151551428Y-83239571D01*
X151337142Y-83239571D01*
X151194285Y-83311000D01*
X151122857Y-83382428D01*
X151051428Y-83525285D01*
X151051428Y-83953857D01*
X151122857Y-84096714D01*
X151194285Y-84168142D01*
X151337142Y-84239571D01*
X151551428Y-84239571D01*
X149765714Y-83239571D02*
X149765714Y-84453857D01*
X149837142Y-84596714D01*
X149908571Y-84668142D01*
X150051428Y-84739571D01*
X150265714Y-84739571D01*
X150408571Y-84668142D01*
X149765714Y-84168142D02*
X149908571Y-84239571D01*
X150194285Y-84239571D01*
X150337142Y-84168142D01*
X150408571Y-84096714D01*
X150480000Y-83953857D01*
X150480000Y-83525285D01*
X150408571Y-83382428D01*
X150337142Y-83311000D01*
X150194285Y-83239571D01*
X149908571Y-83239571D01*
X149765714Y-83311000D01*
X168801428Y-86789571D02*
X168801428Y-85289571D01*
X168801428Y-85861000D02*
X168658571Y-85789571D01*
X168372857Y-85789571D01*
X168230000Y-85861000D01*
X168158571Y-85932428D01*
X168087142Y-86075285D01*
X168087142Y-86503857D01*
X168158571Y-86646714D01*
X168230000Y-86718142D01*
X168372857Y-86789571D01*
X168658571Y-86789571D01*
X168801428Y-86718142D01*
X167587142Y-85789571D02*
X167230000Y-86789571D01*
X166872857Y-85789571D02*
X167230000Y-86789571D01*
X167372857Y-87146714D01*
X167444285Y-87218142D01*
X167587142Y-87289571D01*
X165301428Y-85289571D02*
X164944285Y-86789571D01*
X164658571Y-85718142D01*
X164372857Y-86789571D01*
X164015714Y-85289571D01*
X163444285Y-86789571D02*
X163444285Y-85289571D01*
X162872857Y-85789571D02*
X162587142Y-86789571D01*
X162301428Y-86075285D01*
X162015714Y-86789571D01*
X161730000Y-85789571D01*
X160515714Y-86789571D02*
X160515714Y-86003857D01*
X160587142Y-85861000D01*
X160730000Y-85789571D01*
X161015714Y-85789571D01*
X161158571Y-85861000D01*
X160515714Y-86718142D02*
X160658571Y-86789571D01*
X161015714Y-86789571D01*
X161158571Y-86718142D01*
X161230000Y-86575285D01*
X161230000Y-86432428D01*
X161158571Y-86289571D01*
X161015714Y-86218142D01*
X160658571Y-86218142D01*
X160515714Y-86146714D01*
X159801428Y-85789571D02*
X159801428Y-86789571D01*
X159801428Y-85932428D02*
X159730000Y-85861000D01*
X159587142Y-85789571D01*
X159372857Y-85789571D01*
X159230000Y-85861000D01*
X159158571Y-86003857D01*
X159158571Y-86789571D01*
X158230000Y-86789571D02*
X158372857Y-86718142D01*
X158444285Y-86646714D01*
X158515714Y-86503857D01*
X158515714Y-86075285D01*
X158444285Y-85932428D01*
X158372857Y-85861000D01*
X158230000Y-85789571D01*
X158015714Y-85789571D01*
X157872857Y-85861000D01*
X157801428Y-85932428D01*
X157730000Y-86075285D01*
X157730000Y-86503857D01*
X157801428Y-86646714D01*
X157872857Y-86718142D01*
X158015714Y-86789571D01*
X158230000Y-86789571D01*
X157230000Y-85789571D02*
X156944285Y-86789571D01*
X156658571Y-86075285D01*
X156372857Y-86789571D01*
X156087142Y-85789571D01*
X155515714Y-86789571D02*
X155515714Y-85789571D01*
X155515714Y-85289571D02*
X155587142Y-85361000D01*
X155515714Y-85432428D01*
X155444285Y-85361000D01*
X155515714Y-85289571D01*
X155515714Y-85432428D01*
X154158571Y-86718142D02*
X154301428Y-86789571D01*
X154587142Y-86789571D01*
X154730000Y-86718142D01*
X154801428Y-86646714D01*
X154872857Y-86503857D01*
X154872857Y-86075285D01*
X154801428Y-85932428D01*
X154730000Y-85861000D01*
X154587142Y-85789571D01*
X154301428Y-85789571D01*
X154158571Y-85861000D01*
X153658571Y-85789571D02*
X152872857Y-85789571D01*
X153658571Y-86789571D01*
X152872857Y-86789571D01*
X151230000Y-85432428D02*
X151158571Y-85361000D01*
X151015714Y-85289571D01*
X150658571Y-85289571D01*
X150515714Y-85361000D01*
X150444285Y-85432428D01*
X150372857Y-85575285D01*
X150372857Y-85718142D01*
X150444285Y-85932428D01*
X151301428Y-86789571D01*
X150372857Y-86789571D01*
X149444285Y-85289571D02*
X149301428Y-85289571D01*
X149158571Y-85361000D01*
X149087142Y-85432428D01*
X149015714Y-85575285D01*
X148944285Y-85861000D01*
X148944285Y-86218142D01*
X149015714Y-86503857D01*
X149087142Y-86646714D01*
X149158571Y-86718142D01*
X149301428Y-86789571D01*
X149444285Y-86789571D01*
X149587142Y-86718142D01*
X149658571Y-86646714D01*
X149730000Y-86503857D01*
X149801428Y-86218142D01*
X149801428Y-85861000D01*
X149730000Y-85575285D01*
X149658571Y-85432428D01*
X149587142Y-85361000D01*
X149444285Y-85289571D01*
X147515714Y-86789571D02*
X148372857Y-86789571D01*
X147944285Y-86789571D02*
X147944285Y-85289571D01*
X148087142Y-85503857D01*
X148230000Y-85646714D01*
X148372857Y-85718142D01*
X146801428Y-86789571D02*
X146515714Y-86789571D01*
X146372857Y-86718142D01*
X146301428Y-86646714D01*
X146158571Y-86432428D01*
X146087142Y-86146714D01*
X146087142Y-85575285D01*
X146158571Y-85432428D01*
X146230000Y-85361000D01*
X146372857Y-85289571D01*
X146658571Y-85289571D01*
X146801428Y-85361000D01*
X146872857Y-85432428D01*
X146944285Y-85575285D01*
X146944285Y-85932428D01*
X146872857Y-86075285D01*
X146801428Y-86146714D01*
X146658571Y-86218142D01*
X146372857Y-86218142D01*
X146230000Y-86146714D01*
X146158571Y-86075285D01*
X146087142Y-85932428D01*
X164686285Y-82739571D02*
X164686285Y-83953857D01*
X164614857Y-84096714D01*
X164543428Y-84168142D01*
X164400571Y-84239571D01*
X164114857Y-84239571D01*
X163972000Y-84168142D01*
X163900571Y-84096714D01*
X163829142Y-83953857D01*
X163829142Y-82739571D01*
X163186285Y-84168142D02*
X162972000Y-84239571D01*
X162614857Y-84239571D01*
X162472000Y-84168142D01*
X162400571Y-84096714D01*
X162329142Y-83953857D01*
X162329142Y-83811000D01*
X162400571Y-83668142D01*
X162472000Y-83596714D01*
X162614857Y-83525285D01*
X162900571Y-83453857D01*
X163043428Y-83382428D01*
X163114857Y-83311000D01*
X163186285Y-83168142D01*
X163186285Y-83025285D01*
X163114857Y-82882428D01*
X163043428Y-82811000D01*
X162900571Y-82739571D01*
X162543428Y-82739571D01*
X162329142Y-82811000D01*
X161186285Y-83453857D02*
X160972000Y-83525285D01*
X160900571Y-83596714D01*
X160829142Y-83739571D01*
X160829142Y-83953857D01*
X160900571Y-84096714D01*
X160972000Y-84168142D01*
X161114857Y-84239571D01*
X161686285Y-84239571D01*
X161686285Y-82739571D01*
X161186285Y-82739571D01*
X161043428Y-82811000D01*
X160972000Y-82882428D01*
X160900571Y-83025285D01*
X160900571Y-83168142D01*
X160972000Y-83311000D01*
X161043428Y-83382428D01*
X161186285Y-83453857D01*
X161686285Y-83453857D01*
X160186285Y-83668142D02*
X159043428Y-83668142D01*
X158400571Y-84168142D02*
X158186285Y-84239571D01*
X157829142Y-84239571D01*
X157686285Y-84168142D01*
X157614857Y-84096714D01*
X157543428Y-83953857D01*
X157543428Y-83811000D01*
X157614857Y-83668142D01*
X157686285Y-83596714D01*
X157829142Y-83525285D01*
X158114857Y-83453857D01*
X158257714Y-83382428D01*
X158329142Y-83311000D01*
X158400571Y-83168142D01*
X158400571Y-83025285D01*
X158329142Y-82882428D01*
X158257714Y-82811000D01*
X158114857Y-82739571D01*
X157757714Y-82739571D01*
X157543428Y-82811000D01*
X156900571Y-84239571D02*
X156900571Y-82739571D01*
X156329142Y-82739571D01*
X156186285Y-82811000D01*
X156114857Y-82882428D01*
X156043428Y-83025285D01*
X156043428Y-83239571D01*
X156114857Y-83382428D01*
X156186285Y-83453857D01*
X156329142Y-83525285D01*
X156900571Y-83525285D01*
X155400571Y-84239571D02*
X155400571Y-82739571D01*
X155043428Y-84382428D02*
X153900571Y-84382428D01*
X153543428Y-83239571D02*
X153543428Y-84739571D01*
X153543428Y-83311000D02*
X153400571Y-83239571D01*
X153114857Y-83239571D01*
X152972000Y-83311000D01*
X152900571Y-83382428D01*
X152829142Y-83525285D01*
X152829142Y-83953857D01*
X152900571Y-84096714D01*
X152972000Y-84168142D01*
X153114857Y-84239571D01*
X153400571Y-84239571D01*
X153543428Y-84168142D01*
X152186285Y-84239571D02*
X152186285Y-83239571D01*
X152186285Y-83525285D02*
X152114857Y-83382428D01*
X152043428Y-83311000D01*
X151900571Y-83239571D01*
X151757714Y-83239571D01*
X151043428Y-84239571D02*
X151186285Y-84168142D01*
X151257714Y-84096714D01*
X151329142Y-83953857D01*
X151329142Y-83525285D01*
X151257714Y-83382428D01*
X151186285Y-83311000D01*
X151043428Y-83239571D01*
X150829142Y-83239571D01*
X150686285Y-83311000D01*
X150614857Y-83382428D01*
X150543428Y-83525285D01*
X150543428Y-83953857D01*
X150614857Y-84096714D01*
X150686285Y-84168142D01*
X150829142Y-84239571D01*
X151043428Y-84239571D01*
X149257714Y-83239571D02*
X149257714Y-84453857D01*
X149329142Y-84596714D01*
X149400571Y-84668142D01*
X149543428Y-84739571D01*
X149757714Y-84739571D01*
X149900571Y-84668142D01*
X149257714Y-84168142D02*
X149400571Y-84239571D01*
X149686285Y-84239571D01*
X149829142Y-84168142D01*
X149900571Y-84096714D01*
X149972000Y-83953857D01*
X149972000Y-83525285D01*
X149900571Y-83382428D01*
X149829142Y-83311000D01*
X149686285Y-83239571D01*
X149400571Y-83239571D01*
X149257714Y-83311000D01*
X168293428Y-86789571D02*
X168293428Y-85289571D01*
X168293428Y-85861000D02*
X168150571Y-85789571D01*
X167864857Y-85789571D01*
X167722000Y-85861000D01*
X167650571Y-85932428D01*
X167579142Y-86075285D01*
X167579142Y-86503857D01*
X167650571Y-86646714D01*
X167722000Y-86718142D01*
X167864857Y-86789571D01*
X168150571Y-86789571D01*
X168293428Y-86718142D01*
X167079142Y-85789571D02*
X166722000Y-86789571D01*
X166364857Y-85789571D02*
X166722000Y-86789571D01*
X166864857Y-87146714D01*
X166936285Y-87218142D01*
X167079142Y-87289571D01*
X164793428Y-85289571D02*
X164436285Y-86789571D01*
X164150571Y-85718142D01*
X163864857Y-86789571D01*
X163507714Y-85289571D01*
X162936285Y-86789571D02*
X162936285Y-85289571D01*
X162364857Y-85789571D02*
X162079142Y-86789571D01*
X161793428Y-86075285D01*
X161507714Y-86789571D01*
X161222000Y-85789571D01*
X160007714Y-86789571D02*
X160007714Y-86003857D01*
X160079142Y-85861000D01*
X160222000Y-85789571D01*
X160507714Y-85789571D01*
X160650571Y-85861000D01*
X160007714Y-86718142D02*
X160150571Y-86789571D01*
X160507714Y-86789571D01*
X160650571Y-86718142D01*
X160722000Y-86575285D01*
X160722000Y-86432428D01*
X160650571Y-86289571D01*
X160507714Y-86218142D01*
X160150571Y-86218142D01*
X160007714Y-86146714D01*
X159293428Y-85789571D02*
X159293428Y-86789571D01*
X159293428Y-85932428D02*
X159222000Y-85861000D01*
X159079142Y-85789571D01*
X158864857Y-85789571D01*
X158722000Y-85861000D01*
X158650571Y-86003857D01*
X158650571Y-86789571D01*
X157722000Y-86789571D02*
X157864857Y-86718142D01*
X157936285Y-86646714D01*
X158007714Y-86503857D01*
X158007714Y-86075285D01*
X157936285Y-85932428D01*
X157864857Y-85861000D01*
X157722000Y-85789571D01*
X157507714Y-85789571D01*
X157364857Y-85861000D01*
X157293428Y-85932428D01*
X157222000Y-86075285D01*
X157222000Y-86503857D01*
X157293428Y-86646714D01*
X157364857Y-86718142D01*
X157507714Y-86789571D01*
X157722000Y-86789571D01*
X156722000Y-85789571D02*
X156436285Y-86789571D01*
X156150571Y-86075285D01*
X155864857Y-86789571D01*
X155579142Y-85789571D01*
X155007714Y-86789571D02*
X155007714Y-85789571D01*
X155007714Y-85289571D02*
X155079142Y-85361000D01*
X155007714Y-85432428D01*
X154936285Y-85361000D01*
X155007714Y-85289571D01*
X155007714Y-85432428D01*
X153650571Y-86718142D02*
X153793428Y-86789571D01*
X154079142Y-86789571D01*
X154222000Y-86718142D01*
X154293428Y-86646714D01*
X154364857Y-86503857D01*
X154364857Y-86075285D01*
X154293428Y-85932428D01*
X154222000Y-85861000D01*
X154079142Y-85789571D01*
X153793428Y-85789571D01*
X153650571Y-85861000D01*
X153150571Y-85789571D02*
X152364857Y-85789571D01*
X153150571Y-86789571D01*
X152364857Y-86789571D01*
X150722000Y-85432428D02*
X150650571Y-85361000D01*
X150507714Y-85289571D01*
X150150571Y-85289571D01*
X150007714Y-85361000D01*
X149936285Y-85432428D01*
X149864857Y-85575285D01*
X149864857Y-85718142D01*
X149936285Y-85932428D01*
X150793428Y-86789571D01*
X149864857Y-86789571D01*
X148936285Y-85289571D02*
X148793428Y-85289571D01*
X148650571Y-85361000D01*
X148579142Y-85432428D01*
X148507714Y-85575285D01*
X148436285Y-85861000D01*
X148436285Y-86218142D01*
X148507714Y-86503857D01*
X148579142Y-86646714D01*
X148650571Y-86718142D01*
X148793428Y-86789571D01*
X148936285Y-86789571D01*
X149079142Y-86718142D01*
X149150571Y-86646714D01*
X149222000Y-86503857D01*
X149293428Y-86218142D01*
X149293428Y-85861000D01*
X149222000Y-85575285D01*
X149150571Y-85432428D01*
X149079142Y-85361000D01*
X148936285Y-85289571D01*
X147007714Y-86789571D02*
X147864857Y-86789571D01*
X147436285Y-86789571D02*
X147436285Y-85289571D01*
X147579142Y-85503857D01*
X147722000Y-85646714D01*
X147864857Y-85718142D01*
X146293428Y-86789571D02*
X146007714Y-86789571D01*
X145864857Y-86718142D01*
X145793428Y-86646714D01*
X145650571Y-86432428D01*
X145579142Y-86146714D01*
X145579142Y-85575285D01*
X145650571Y-85432428D01*
X145722000Y-85361000D01*
X145864857Y-85289571D01*
X146150571Y-85289571D01*
X146293428Y-85361000D01*
X146364857Y-85432428D01*
X146436285Y-85575285D01*
X146436285Y-85932428D01*
X146364857Y-86075285D01*
X146293428Y-86146714D01*
X146150571Y-86218142D01*
X145864857Y-86218142D01*
X145722000Y-86146714D01*
X145650571Y-86075285D01*
X145579142Y-85932428D01*
X149765714Y-81723571D02*
X149765714Y-82937857D01*
X149837142Y-83080714D01*
X149908571Y-83152142D01*
X150051428Y-83223571D01*
X150337142Y-83223571D01*
X150480000Y-83152142D01*
X150551428Y-83080714D01*
X150622857Y-82937857D01*
X150622857Y-81723571D01*
X151265714Y-83152142D02*
X151480000Y-83223571D01*
X151837142Y-83223571D01*
X151980000Y-83152142D01*
X152051428Y-83080714D01*
X152122857Y-82937857D01*
X152122857Y-82795000D01*
X152051428Y-82652142D01*
X151980000Y-82580714D01*
X151837142Y-82509285D01*
X151551428Y-82437857D01*
X151408571Y-82366428D01*
X151337142Y-82295000D01*
X151265714Y-82152142D01*
X151265714Y-82009285D01*
X151337142Y-81866428D01*
X151408571Y-81795000D01*
X151551428Y-81723571D01*
X151908571Y-81723571D01*
X152122857Y-81795000D01*
X153265714Y-82437857D02*
X153480000Y-82509285D01*
X153551428Y-82580714D01*
X153622857Y-82723571D01*
X153622857Y-82937857D01*
X153551428Y-83080714D01*
X153480000Y-83152142D01*
X153337142Y-83223571D01*
X152765714Y-83223571D01*
X152765714Y-81723571D01*
X153265714Y-81723571D01*
X153408571Y-81795000D01*
X153480000Y-81866428D01*
X153551428Y-82009285D01*
X153551428Y-82152142D01*
X153480000Y-82295000D01*
X153408571Y-82366428D01*
X153265714Y-82437857D01*
X152765714Y-82437857D01*
X154265714Y-82652142D02*
X155408571Y-82652142D01*
X156051428Y-83152142D02*
X156265714Y-83223571D01*
X156622857Y-83223571D01*
X156765714Y-83152142D01*
X156837142Y-83080714D01*
X156908571Y-82937857D01*
X156908571Y-82795000D01*
X156837142Y-82652142D01*
X156765714Y-82580714D01*
X156622857Y-82509285D01*
X156337142Y-82437857D01*
X156194285Y-82366428D01*
X156122857Y-82295000D01*
X156051428Y-82152142D01*
X156051428Y-82009285D01*
X156122857Y-81866428D01*
X156194285Y-81795000D01*
X156337142Y-81723571D01*
X156694285Y-81723571D01*
X156908571Y-81795000D01*
X157551428Y-83223571D02*
X157551428Y-81723571D01*
X158122857Y-81723571D01*
X158265714Y-81795000D01*
X158337142Y-81866428D01*
X158408571Y-82009285D01*
X158408571Y-82223571D01*
X158337142Y-82366428D01*
X158265714Y-82437857D01*
X158122857Y-82509285D01*
X157551428Y-82509285D01*
X159051428Y-83223571D02*
X159051428Y-81723571D01*
X159408571Y-83366428D02*
X160551428Y-83366428D01*
X160908571Y-82223571D02*
X160908571Y-83723571D01*
X160908571Y-82295000D02*
X161051428Y-82223571D01*
X161337142Y-82223571D01*
X161480000Y-82295000D01*
X161551428Y-82366428D01*
X161622857Y-82509285D01*
X161622857Y-82937857D01*
X161551428Y-83080714D01*
X161480000Y-83152142D01*
X161337142Y-83223571D01*
X161051428Y-83223571D01*
X160908571Y-83152142D01*
X162265714Y-83223571D02*
X162265714Y-82223571D01*
X162265714Y-82509285D02*
X162337142Y-82366428D01*
X162408571Y-82295000D01*
X162551428Y-82223571D01*
X162694285Y-82223571D01*
X163408571Y-83223571D02*
X163265714Y-83152142D01*
X163194285Y-83080714D01*
X163122857Y-82937857D01*
X163122857Y-82509285D01*
X163194285Y-82366428D01*
X163265714Y-82295000D01*
X163408571Y-82223571D01*
X163622857Y-82223571D01*
X163765714Y-82295000D01*
X163837142Y-82366428D01*
X163908571Y-82509285D01*
X163908571Y-82937857D01*
X163837142Y-83080714D01*
X163765714Y-83152142D01*
X163622857Y-83223571D01*
X163408571Y-83223571D01*
X165194285Y-82223571D02*
X165194285Y-83437857D01*
X165122857Y-83580714D01*
X165051428Y-83652142D01*
X164908571Y-83723571D01*
X164694285Y-83723571D01*
X164551428Y-83652142D01*
X165194285Y-83152142D02*
X165051428Y-83223571D01*
X164765714Y-83223571D01*
X164622857Y-83152142D01*
X164551428Y-83080714D01*
X164480000Y-82937857D01*
X164480000Y-82509285D01*
X164551428Y-82366428D01*
X164622857Y-82295000D01*
X164765714Y-82223571D01*
X165051428Y-82223571D01*
X165194285Y-82295000D01*
X146158571Y-85773571D02*
X146158571Y-84273571D01*
X146158571Y-84845000D02*
X146301428Y-84773571D01*
X146587142Y-84773571D01*
X146730000Y-84845000D01*
X146801428Y-84916428D01*
X146872857Y-85059285D01*
X146872857Y-85487857D01*
X146801428Y-85630714D01*
X146730000Y-85702142D01*
X146587142Y-85773571D01*
X146301428Y-85773571D01*
X146158571Y-85702142D01*
X147372857Y-84773571D02*
X147730000Y-85773571D01*
X148087142Y-84773571D02*
X147730000Y-85773571D01*
X147587142Y-86130714D01*
X147515714Y-86202142D01*
X147372857Y-86273571D01*
X149658571Y-84273571D02*
X150015714Y-85773571D01*
X150301428Y-84702142D01*
X150587142Y-85773571D01*
X150944285Y-84273571D01*
X151515714Y-85773571D02*
X151515714Y-84273571D01*
X152087142Y-84773571D02*
X152372857Y-85773571D01*
X152658571Y-85059285D01*
X152944285Y-85773571D01*
X153230000Y-84773571D01*
X154444285Y-85773571D02*
X154444285Y-84987857D01*
X154372857Y-84845000D01*
X154230000Y-84773571D01*
X153944285Y-84773571D01*
X153801428Y-84845000D01*
X154444285Y-85702142D02*
X154301428Y-85773571D01*
X153944285Y-85773571D01*
X153801428Y-85702142D01*
X153730000Y-85559285D01*
X153730000Y-85416428D01*
X153801428Y-85273571D01*
X153944285Y-85202142D01*
X154301428Y-85202142D01*
X154444285Y-85130714D01*
X155158571Y-84773571D02*
X155158571Y-85773571D01*
X155158571Y-84916428D02*
X155230000Y-84845000D01*
X155372857Y-84773571D01*
X155587142Y-84773571D01*
X155730000Y-84845000D01*
X155801428Y-84987857D01*
X155801428Y-85773571D01*
X156730000Y-85773571D02*
X156587142Y-85702142D01*
X156515714Y-85630714D01*
X156444285Y-85487857D01*
X156444285Y-85059285D01*
X156515714Y-84916428D01*
X156587142Y-84845000D01*
X156730000Y-84773571D01*
X156944285Y-84773571D01*
X157087142Y-84845000D01*
X157158571Y-84916428D01*
X157230000Y-85059285D01*
X157230000Y-85487857D01*
X157158571Y-85630714D01*
X157087142Y-85702142D01*
X156944285Y-85773571D01*
X156730000Y-85773571D01*
X157730000Y-84773571D02*
X158015714Y-85773571D01*
X158301428Y-85059285D01*
X158587142Y-85773571D01*
X158872857Y-84773571D01*
X159444285Y-85773571D02*
X159444285Y-84773571D01*
X159444285Y-84273571D02*
X159372857Y-84345000D01*
X159444285Y-84416428D01*
X159515714Y-84345000D01*
X159444285Y-84273571D01*
X159444285Y-84416428D01*
X160801428Y-85702142D02*
X160658571Y-85773571D01*
X160372857Y-85773571D01*
X160230000Y-85702142D01*
X160158571Y-85630714D01*
X160087142Y-85487857D01*
X160087142Y-85059285D01*
X160158571Y-84916428D01*
X160230000Y-84845000D01*
X160372857Y-84773571D01*
X160658571Y-84773571D01*
X160801428Y-84845000D01*
X161301428Y-84773571D02*
X162087142Y-84773571D01*
X161301428Y-85773571D01*
X162087142Y-85773571D01*
X163730000Y-84416428D02*
X163801428Y-84345000D01*
X163944285Y-84273571D01*
X164301428Y-84273571D01*
X164444285Y-84345000D01*
X164515714Y-84416428D01*
X164587142Y-84559285D01*
X164587142Y-84702142D01*
X164515714Y-84916428D01*
X163658571Y-85773571D01*
X164587142Y-85773571D01*
X165515714Y-84273571D02*
X165658571Y-84273571D01*
X165801428Y-84345000D01*
X165872857Y-84416428D01*
X165944285Y-84559285D01*
X166015714Y-84845000D01*
X166015714Y-85202142D01*
X165944285Y-85487857D01*
X165872857Y-85630714D01*
X165801428Y-85702142D01*
X165658571Y-85773571D01*
X165515714Y-85773571D01*
X165372857Y-85702142D01*
X165301428Y-85630714D01*
X165230000Y-85487857D01*
X165158571Y-85202142D01*
X165158571Y-84845000D01*
X165230000Y-84559285D01*
X165301428Y-84416428D01*
X165372857Y-84345000D01*
X165515714Y-84273571D01*
X167444285Y-85773571D02*
X166587142Y-85773571D01*
X167015714Y-85773571D02*
X167015714Y-84273571D01*
X166872857Y-84487857D01*
X166730000Y-84630714D01*
X166587142Y-84702142D01*
X168158571Y-85773571D02*
X168444285Y-85773571D01*
X168587142Y-85702142D01*
X168658571Y-85630714D01*
X168801428Y-85416428D01*
X168872857Y-85130714D01*
X168872857Y-84559285D01*
X168801428Y-84416428D01*
X168730000Y-84345000D01*
X168587142Y-84273571D01*
X168301428Y-84273571D01*
X168158571Y-84345000D01*
X168087142Y-84416428D01*
X168015714Y-84559285D01*
X168015714Y-84916428D01*
X168087142Y-85059285D01*
X168158571Y-85130714D01*
X168301428Y-85202142D01*
X168587142Y-85202142D01*
X168730000Y-85130714D01*
X168801428Y-85059285D01*
X168872857Y-84916428D01*
D11*
G04 #@! TO.P,J1,6*
G04 #@! TO.N,GND*
X120720000Y-89389000D03*
X120720000Y-96539000D03*
G04 #@! TD*
D12*
G04 #@! TO.P,J2,1*
G04 #@! TO.N,MISO*
X165100000Y-91440000D03*
D13*
G04 #@! TO.P,J2,2*
G04 #@! TO.N,SCK*
X165100000Y-93980000D03*
G04 #@! TO.P,J2,3*
G04 #@! TO.N,MOSI*
X165100000Y-96520000D03*
G04 #@! TO.P,J2,4*
G04 #@! TO.N,5V*
X165100000Y-99060000D03*
G04 #@! TO.P,J2,5*
G04 #@! TO.N,GND*
X165100000Y-101600000D03*
G04 #@! TD*
D12*
G04 #@! TO.P,J3,1*
G04 #@! TO.N,GP0*
X139700000Y-108712000D03*
D13*
G04 #@! TO.P,J3,2*
G04 #@! TO.N,GP1*
X142240000Y-108712000D03*
G04 #@! TO.P,J3,3*
G04 #@! TO.N,GP2*
X144780000Y-108712000D03*
G04 #@! TO.P,J3,4*
G04 #@! TO.N,GP3*
X147320000Y-108712000D03*
G04 #@! TO.P,J3,5*
G04 #@! TO.N,GP4*
X149860000Y-108712000D03*
G04 #@! TO.P,J3,6*
G04 #@! TO.N,GP5*
X152400000Y-108712000D03*
G04 #@! TO.P,J3,7*
G04 #@! TO.N,GP6*
X154940000Y-108712000D03*
G04 #@! TO.P,J3,8*
G04 #@! TO.N,GP7*
X157480000Y-108712000D03*
G04 #@! TO.P,J3,9*
G04 #@! TO.N,GP8*
X160020000Y-108712000D03*
G04 #@! TO.P,J3,10*
G04 #@! TO.N,5V*
X162560000Y-108712000D03*
G04 #@! TO.P,J3,11*
G04 #@! TO.N,GND*
X165100000Y-108712000D03*
G04 #@! TD*
D14*
G04 #@! TO.N,5V*
X160020000Y-99568000D03*
X144272000Y-102616000D03*
X141224000Y-91440000D03*
G04 #@! TO.N,GP5*
X157988000Y-95504000D03*
G04 #@! TO.N,GP6*
X155448000Y-96012000D03*
X156464000Y-106680000D03*
G04 #@! TO.N,GP7*
X153924000Y-90424000D03*
G04 #@! TD*
D15*
G04 #@! TO.N,5V*
X141224000Y-91440000D02*
X141224000Y-101600000D01*
X141224000Y-101600000D02*
X142240000Y-102616000D01*
X144272000Y-102616000D02*
X142240000Y-102616000D01*
X159569991Y-93021991D02*
X147770009Y-93021991D01*
X160020000Y-93472000D02*
X159569991Y-93021991D01*
X147770009Y-93021991D02*
X146812000Y-93980000D01*
X146812000Y-93980000D02*
X146812000Y-97028000D01*
X144272000Y-99568000D02*
X144272000Y-102616000D01*
X146812000Y-97028000D02*
X144272000Y-99568000D01*
X160020000Y-99568000D02*
X160020000Y-93472000D01*
G04 #@! TO.N,GP5*
X157988000Y-95504000D02*
X157988000Y-101600000D01*
X157988000Y-101600000D02*
X155448000Y-104140000D01*
X155448000Y-104140000D02*
X153416000Y-104140000D01*
X153416000Y-104140000D02*
X152400000Y-105156000D01*
X152400000Y-105156000D02*
X152400000Y-108712000D01*
G04 #@! TO.N,GP6*
X156464000Y-106680000D02*
X156464000Y-105156000D01*
X158713001Y-102906999D02*
X158713001Y-93689001D01*
X156464000Y-105156000D02*
X158713001Y-102906999D01*
X158713001Y-93689001D02*
X158496000Y-93472000D01*
X158496000Y-93472000D02*
X156464000Y-93472000D01*
X155448000Y-94488000D02*
X155448000Y-96012000D01*
X156464000Y-93472000D02*
X155448000Y-94488000D01*
G04 #@! TO.N,GP7*
X157480000Y-105664000D02*
X157480000Y-108712000D01*
X160020000Y-90424000D02*
X161036000Y-91440000D01*
X153924000Y-90424000D02*
X160020000Y-90424000D01*
X161036000Y-91440000D02*
X161036000Y-102616000D01*
X161036000Y-102616000D02*
X158496000Y-105156000D01*
X158496000Y-105156000D02*
X157988000Y-105156000D01*
X157988000Y-105156000D02*
X157480000Y-105664000D01*
G04 #@! TD*
D16*
G04 #@! TO.N,GND*
G36*
X169445001Y-111533000D02*
X119607000Y-111533000D01*
X119607000Y-107862000D01*
X138202560Y-107862000D01*
X138202560Y-109562000D01*
X138251843Y-109809765D01*
X138392191Y-110019809D01*
X138602235Y-110160157D01*
X138850000Y-110209440D01*
X140550000Y-110209440D01*
X140797765Y-110160157D01*
X141007809Y-110019809D01*
X141148157Y-109809765D01*
X141157184Y-109764381D01*
X141169375Y-109782625D01*
X141660582Y-110110839D01*
X142093744Y-110197000D01*
X142386256Y-110197000D01*
X142819418Y-110110839D01*
X143310625Y-109782625D01*
X143510000Y-109484239D01*
X143709375Y-109782625D01*
X144200582Y-110110839D01*
X144633744Y-110197000D01*
X144926256Y-110197000D01*
X145359418Y-110110839D01*
X145850625Y-109782625D01*
X146050000Y-109484239D01*
X146249375Y-109782625D01*
X146740582Y-110110839D01*
X147173744Y-110197000D01*
X147466256Y-110197000D01*
X147899418Y-110110839D01*
X148390625Y-109782625D01*
X148590000Y-109484239D01*
X148789375Y-109782625D01*
X149280582Y-110110839D01*
X149713744Y-110197000D01*
X150006256Y-110197000D01*
X150439418Y-110110839D01*
X150930625Y-109782625D01*
X151130000Y-109484239D01*
X151329375Y-109782625D01*
X151820582Y-110110839D01*
X152253744Y-110197000D01*
X152546256Y-110197000D01*
X152979418Y-110110839D01*
X153470625Y-109782625D01*
X153670000Y-109484239D01*
X153869375Y-109782625D01*
X154360582Y-110110839D01*
X154793744Y-110197000D01*
X155086256Y-110197000D01*
X155519418Y-110110839D01*
X156010625Y-109782625D01*
X156210000Y-109484239D01*
X156409375Y-109782625D01*
X156900582Y-110110839D01*
X157333744Y-110197000D01*
X157626256Y-110197000D01*
X158059418Y-110110839D01*
X158550625Y-109782625D01*
X158750000Y-109484239D01*
X158949375Y-109782625D01*
X159440582Y-110110839D01*
X159873744Y-110197000D01*
X160166256Y-110197000D01*
X160599418Y-110110839D01*
X161090625Y-109782625D01*
X161290000Y-109484239D01*
X161489375Y-109782625D01*
X161980582Y-110110839D01*
X162413744Y-110197000D01*
X162706256Y-110197000D01*
X163139418Y-110110839D01*
X163630625Y-109782625D01*
X163843843Y-109463522D01*
X163904817Y-109593358D01*
X164333076Y-109983645D01*
X164743110Y-110153476D01*
X164973000Y-110032155D01*
X164973000Y-108839000D01*
X165227000Y-108839000D01*
X165227000Y-110032155D01*
X165456890Y-110153476D01*
X165866924Y-109983645D01*
X166295183Y-109593358D01*
X166541486Y-109068892D01*
X166420819Y-108839000D01*
X165227000Y-108839000D01*
X164973000Y-108839000D01*
X164953000Y-108839000D01*
X164953000Y-108585000D01*
X164973000Y-108585000D01*
X164973000Y-107391845D01*
X165227000Y-107391845D01*
X165227000Y-108585000D01*
X166420819Y-108585000D01*
X166541486Y-108355108D01*
X166295183Y-107830642D01*
X165866924Y-107440355D01*
X165456890Y-107270524D01*
X165227000Y-107391845D01*
X164973000Y-107391845D01*
X164743110Y-107270524D01*
X164333076Y-107440355D01*
X163904817Y-107830642D01*
X163843843Y-107960478D01*
X163630625Y-107641375D01*
X163139418Y-107313161D01*
X162706256Y-107227000D01*
X162413744Y-107227000D01*
X161980582Y-107313161D01*
X161489375Y-107641375D01*
X161290000Y-107939761D01*
X161090625Y-107641375D01*
X160599418Y-107313161D01*
X160166256Y-107227000D01*
X159873744Y-107227000D01*
X159440582Y-107313161D01*
X158949375Y-107641375D01*
X158750000Y-107939761D01*
X158550625Y-107641375D01*
X158240000Y-107433822D01*
X158240000Y-105978802D01*
X158302802Y-105916000D01*
X158421153Y-105916000D01*
X158496000Y-105930888D01*
X158570847Y-105916000D01*
X158570852Y-105916000D01*
X158792537Y-105871904D01*
X159043929Y-105703929D01*
X159086331Y-105640470D01*
X161520476Y-103206327D01*
X161583929Y-103163929D01*
X161626327Y-103100476D01*
X161626329Y-103100474D01*
X161751903Y-102912538D01*
X161751904Y-102912537D01*
X161796000Y-102690852D01*
X161796000Y-102690848D01*
X161810888Y-102616001D01*
X161796000Y-102541154D01*
X161796000Y-101956890D01*
X163658524Y-101956890D01*
X163828355Y-102366924D01*
X164218642Y-102795183D01*
X164743108Y-103041486D01*
X164973000Y-102920819D01*
X164973000Y-101727000D01*
X165227000Y-101727000D01*
X165227000Y-102920819D01*
X165456892Y-103041486D01*
X165981358Y-102795183D01*
X166371645Y-102366924D01*
X166541476Y-101956890D01*
X166420155Y-101727000D01*
X165227000Y-101727000D01*
X164973000Y-101727000D01*
X163779845Y-101727000D01*
X163658524Y-101956890D01*
X161796000Y-101956890D01*
X161796000Y-93980000D01*
X163585908Y-93980000D01*
X163701161Y-94559418D01*
X164029375Y-95050625D01*
X164327761Y-95250000D01*
X164029375Y-95449375D01*
X163701161Y-95940582D01*
X163585908Y-96520000D01*
X163701161Y-97099418D01*
X164029375Y-97590625D01*
X164327761Y-97790000D01*
X164029375Y-97989375D01*
X163701161Y-98480582D01*
X163585908Y-99060000D01*
X163701161Y-99639418D01*
X164029375Y-100130625D01*
X164348478Y-100343843D01*
X164218642Y-100404817D01*
X163828355Y-100833076D01*
X163658524Y-101243110D01*
X163779845Y-101473000D01*
X164973000Y-101473000D01*
X164973000Y-101453000D01*
X165227000Y-101453000D01*
X165227000Y-101473000D01*
X166420155Y-101473000D01*
X166541476Y-101243110D01*
X166371645Y-100833076D01*
X165981358Y-100404817D01*
X165851522Y-100343843D01*
X166170625Y-100130625D01*
X166498839Y-99639418D01*
X166614092Y-99060000D01*
X166498839Y-98480582D01*
X166170625Y-97989375D01*
X165872239Y-97790000D01*
X166170625Y-97590625D01*
X166498839Y-97099418D01*
X166614092Y-96520000D01*
X166498839Y-95940582D01*
X166170625Y-95449375D01*
X165872239Y-95250000D01*
X166170625Y-95050625D01*
X166498839Y-94559418D01*
X166614092Y-93980000D01*
X166498839Y-93400582D01*
X166170625Y-92909375D01*
X166152381Y-92897184D01*
X166197765Y-92888157D01*
X166407809Y-92747809D01*
X166548157Y-92537765D01*
X166597440Y-92290000D01*
X166597440Y-90590000D01*
X166548157Y-90342235D01*
X166407809Y-90132191D01*
X166197765Y-89991843D01*
X165950000Y-89942560D01*
X164250000Y-89942560D01*
X164002235Y-89991843D01*
X163792191Y-90132191D01*
X163651843Y-90342235D01*
X163602560Y-90590000D01*
X163602560Y-92290000D01*
X163651843Y-92537765D01*
X163792191Y-92747809D01*
X164002235Y-92888157D01*
X164047619Y-92897184D01*
X164029375Y-92909375D01*
X163701161Y-93400582D01*
X163585908Y-93980000D01*
X161796000Y-93980000D01*
X161796000Y-91514847D01*
X161810888Y-91440000D01*
X161796000Y-91365153D01*
X161796000Y-91365148D01*
X161751904Y-91143463D01*
X161583929Y-90892071D01*
X161520473Y-90849671D01*
X160610331Y-89939530D01*
X160567929Y-89876071D01*
X160316537Y-89708096D01*
X160094852Y-89664000D01*
X160094847Y-89664000D01*
X160020000Y-89649112D01*
X159945153Y-89664000D01*
X154627711Y-89664000D01*
X154510280Y-89546569D01*
X154129874Y-89389000D01*
X153718126Y-89389000D01*
X153337720Y-89546569D01*
X153046569Y-89837720D01*
X152889000Y-90218126D01*
X152889000Y-90629874D01*
X153046569Y-91010280D01*
X153337720Y-91301431D01*
X153718126Y-91459000D01*
X154129874Y-91459000D01*
X154510280Y-91301431D01*
X154627711Y-91184000D01*
X159705199Y-91184000D01*
X160276000Y-91754802D01*
X160276000Y-92653199D01*
X160160322Y-92537521D01*
X160117920Y-92474062D01*
X159866528Y-92306087D01*
X159644843Y-92261991D01*
X159644838Y-92261991D01*
X159569991Y-92247103D01*
X159495144Y-92261991D01*
X147844855Y-92261991D01*
X147770008Y-92247103D01*
X147695161Y-92261991D01*
X147695157Y-92261991D01*
X147473472Y-92306087D01*
X147473470Y-92306088D01*
X147473471Y-92306088D01*
X147285535Y-92431662D01*
X147285533Y-92431664D01*
X147222080Y-92474062D01*
X147179682Y-92537516D01*
X146327529Y-93389669D01*
X146264071Y-93432071D01*
X146096096Y-93683464D01*
X146052000Y-93905149D01*
X146052000Y-93905153D01*
X146037112Y-93980000D01*
X146052000Y-94054847D01*
X146052001Y-96713196D01*
X143787530Y-98977669D01*
X143724071Y-99020071D01*
X143556096Y-99271464D01*
X143512000Y-99493149D01*
X143512000Y-99493153D01*
X143497112Y-99568000D01*
X143512000Y-99642847D01*
X143512001Y-101856000D01*
X142554802Y-101856000D01*
X141984000Y-101285199D01*
X141984000Y-92143711D01*
X142101431Y-92026280D01*
X142259000Y-91645874D01*
X142259000Y-91234126D01*
X142101431Y-90853720D01*
X141810280Y-90562569D01*
X141429874Y-90405000D01*
X141018126Y-90405000D01*
X140637720Y-90562569D01*
X140346569Y-90853720D01*
X140189000Y-91234126D01*
X140189000Y-91645874D01*
X140346569Y-92026280D01*
X140464000Y-92143711D01*
X140464001Y-101525148D01*
X140449112Y-101600000D01*
X140508097Y-101896537D01*
X140622713Y-102068071D01*
X140676072Y-102147929D01*
X140739528Y-102190329D01*
X141649671Y-103100473D01*
X141692071Y-103163929D01*
X141943463Y-103331904D01*
X142165148Y-103376000D01*
X142165153Y-103376000D01*
X142240000Y-103390888D01*
X142314847Y-103376000D01*
X143568289Y-103376000D01*
X143685720Y-103493431D01*
X144066126Y-103651000D01*
X144477874Y-103651000D01*
X144858280Y-103493431D01*
X145149431Y-103202280D01*
X145307000Y-102821874D01*
X145307000Y-102410126D01*
X145149431Y-102029720D01*
X145032000Y-101912289D01*
X145032000Y-99882801D01*
X147296476Y-97618327D01*
X147359929Y-97575929D01*
X147402327Y-97512476D01*
X147402329Y-97512474D01*
X147527903Y-97324538D01*
X147527904Y-97324537D01*
X147572000Y-97102852D01*
X147572000Y-97102848D01*
X147586888Y-97028001D01*
X147572000Y-96953154D01*
X147572000Y-94294802D01*
X148084811Y-93781991D01*
X155079208Y-93781991D01*
X154963530Y-93897669D01*
X154900071Y-93940071D01*
X154732096Y-94191464D01*
X154688000Y-94413149D01*
X154688000Y-94413153D01*
X154673112Y-94488000D01*
X154688000Y-94562847D01*
X154688001Y-95308288D01*
X154570569Y-95425720D01*
X154413000Y-95806126D01*
X154413000Y-96217874D01*
X154570569Y-96598280D01*
X154861720Y-96889431D01*
X155242126Y-97047000D01*
X155653874Y-97047000D01*
X156034280Y-96889431D01*
X156325431Y-96598280D01*
X156483000Y-96217874D01*
X156483000Y-95806126D01*
X156325431Y-95425720D01*
X156208000Y-95308289D01*
X156208000Y-94802801D01*
X156778802Y-94232000D01*
X157953002Y-94232000D01*
X157953002Y-94469000D01*
X157782126Y-94469000D01*
X157401720Y-94626569D01*
X157110569Y-94917720D01*
X156953000Y-95298126D01*
X156953000Y-95709874D01*
X157110569Y-96090280D01*
X157228000Y-96207711D01*
X157228001Y-101285196D01*
X155133199Y-103380000D01*
X153490847Y-103380000D01*
X153416000Y-103365112D01*
X153341153Y-103380000D01*
X153341148Y-103380000D01*
X153119463Y-103424096D01*
X152868071Y-103592071D01*
X152825671Y-103655527D01*
X151915530Y-104565669D01*
X151852071Y-104608071D01*
X151684096Y-104859464D01*
X151640000Y-105081149D01*
X151640000Y-105081153D01*
X151625112Y-105156000D01*
X151640000Y-105230847D01*
X151640001Y-107433822D01*
X151329375Y-107641375D01*
X151130000Y-107939761D01*
X150930625Y-107641375D01*
X150439418Y-107313161D01*
X150006256Y-107227000D01*
X149713744Y-107227000D01*
X149280582Y-107313161D01*
X148789375Y-107641375D01*
X148590000Y-107939761D01*
X148390625Y-107641375D01*
X147899418Y-107313161D01*
X147466256Y-107227000D01*
X147173744Y-107227000D01*
X146740582Y-107313161D01*
X146249375Y-107641375D01*
X146050000Y-107939761D01*
X145850625Y-107641375D01*
X145359418Y-107313161D01*
X144926256Y-107227000D01*
X144633744Y-107227000D01*
X144200582Y-107313161D01*
X143709375Y-107641375D01*
X143510000Y-107939761D01*
X143310625Y-107641375D01*
X142819418Y-107313161D01*
X142386256Y-107227000D01*
X142093744Y-107227000D01*
X141660582Y-107313161D01*
X141169375Y-107641375D01*
X141157184Y-107659619D01*
X141148157Y-107614235D01*
X141007809Y-107404191D01*
X140797765Y-107263843D01*
X140550000Y-107214560D01*
X138850000Y-107214560D01*
X138602235Y-107263843D01*
X138392191Y-107404191D01*
X138251843Y-107614235D01*
X138202560Y-107862000D01*
X119607000Y-107862000D01*
X119607000Y-97455746D01*
X119733755Y-97562099D01*
X120168000Y-97699000D01*
X120593000Y-97699000D01*
X120593000Y-96666000D01*
X120847000Y-96666000D01*
X120847000Y-97699000D01*
X121272000Y-97699000D01*
X121706245Y-97562099D01*
X122055046Y-97269441D01*
X122263964Y-96844810D01*
X122138163Y-96666000D01*
X120847000Y-96666000D01*
X120593000Y-96666000D01*
X120573000Y-96666000D01*
X120573000Y-96412000D01*
X120593000Y-96412000D01*
X120593000Y-95379000D01*
X120847000Y-95379000D01*
X120847000Y-96412000D01*
X122138163Y-96412000D01*
X122263964Y-96233190D01*
X122055046Y-95808559D01*
X121706245Y-95515901D01*
X121272000Y-95379000D01*
X120847000Y-95379000D01*
X120593000Y-95379000D01*
X120168000Y-95379000D01*
X119733755Y-95515901D01*
X119607000Y-95622254D01*
X119607000Y-90305746D01*
X119733755Y-90412099D01*
X120168000Y-90549000D01*
X120593000Y-90549000D01*
X120593000Y-89516000D01*
X120847000Y-89516000D01*
X120847000Y-90549000D01*
X121272000Y-90549000D01*
X121706245Y-90412099D01*
X122055046Y-90119441D01*
X122263964Y-89694810D01*
X122138163Y-89516000D01*
X120847000Y-89516000D01*
X120593000Y-89516000D01*
X120573000Y-89516000D01*
X120573000Y-89262000D01*
X120593000Y-89262000D01*
X120593000Y-88229000D01*
X120847000Y-88229000D01*
X120847000Y-89262000D01*
X122138163Y-89262000D01*
X122263964Y-89083190D01*
X122055046Y-88658559D01*
X121706245Y-88365901D01*
X121272000Y-88229000D01*
X120847000Y-88229000D01*
X120593000Y-88229000D01*
X120168000Y-88229000D01*
X119733755Y-88365901D01*
X119607000Y-88472254D01*
X119607000Y-79983000D01*
X169445000Y-79983000D01*
X169445001Y-111533000D01*
X169445001Y-111533000D01*
G37*
X169445001Y-111533000D02*
X119607000Y-111533000D01*
X119607000Y-107862000D01*
X138202560Y-107862000D01*
X138202560Y-109562000D01*
X138251843Y-109809765D01*
X138392191Y-110019809D01*
X138602235Y-110160157D01*
X138850000Y-110209440D01*
X140550000Y-110209440D01*
X140797765Y-110160157D01*
X141007809Y-110019809D01*
X141148157Y-109809765D01*
X141157184Y-109764381D01*
X141169375Y-109782625D01*
X141660582Y-110110839D01*
X142093744Y-110197000D01*
X142386256Y-110197000D01*
X142819418Y-110110839D01*
X143310625Y-109782625D01*
X143510000Y-109484239D01*
X143709375Y-109782625D01*
X144200582Y-110110839D01*
X144633744Y-110197000D01*
X144926256Y-110197000D01*
X145359418Y-110110839D01*
X145850625Y-109782625D01*
X146050000Y-109484239D01*
X146249375Y-109782625D01*
X146740582Y-110110839D01*
X147173744Y-110197000D01*
X147466256Y-110197000D01*
X147899418Y-110110839D01*
X148390625Y-109782625D01*
X148590000Y-109484239D01*
X148789375Y-109782625D01*
X149280582Y-110110839D01*
X149713744Y-110197000D01*
X150006256Y-110197000D01*
X150439418Y-110110839D01*
X150930625Y-109782625D01*
X151130000Y-109484239D01*
X151329375Y-109782625D01*
X151820582Y-110110839D01*
X152253744Y-110197000D01*
X152546256Y-110197000D01*
X152979418Y-110110839D01*
X153470625Y-109782625D01*
X153670000Y-109484239D01*
X153869375Y-109782625D01*
X154360582Y-110110839D01*
X154793744Y-110197000D01*
X155086256Y-110197000D01*
X155519418Y-110110839D01*
X156010625Y-109782625D01*
X156210000Y-109484239D01*
X156409375Y-109782625D01*
X156900582Y-110110839D01*
X157333744Y-110197000D01*
X157626256Y-110197000D01*
X158059418Y-110110839D01*
X158550625Y-109782625D01*
X158750000Y-109484239D01*
X158949375Y-109782625D01*
X159440582Y-110110839D01*
X159873744Y-110197000D01*
X160166256Y-110197000D01*
X160599418Y-110110839D01*
X161090625Y-109782625D01*
X161290000Y-109484239D01*
X161489375Y-109782625D01*
X161980582Y-110110839D01*
X162413744Y-110197000D01*
X162706256Y-110197000D01*
X163139418Y-110110839D01*
X163630625Y-109782625D01*
X163843843Y-109463522D01*
X163904817Y-109593358D01*
X164333076Y-109983645D01*
X164743110Y-110153476D01*
X164973000Y-110032155D01*
X164973000Y-108839000D01*
X165227000Y-108839000D01*
X165227000Y-110032155D01*
X165456890Y-110153476D01*
X165866924Y-109983645D01*
X166295183Y-109593358D01*
X166541486Y-109068892D01*
X166420819Y-108839000D01*
X165227000Y-108839000D01*
X164973000Y-108839000D01*
X164953000Y-108839000D01*
X164953000Y-108585000D01*
X164973000Y-108585000D01*
X164973000Y-107391845D01*
X165227000Y-107391845D01*
X165227000Y-108585000D01*
X166420819Y-108585000D01*
X166541486Y-108355108D01*
X166295183Y-107830642D01*
X165866924Y-107440355D01*
X165456890Y-107270524D01*
X165227000Y-107391845D01*
X164973000Y-107391845D01*
X164743110Y-107270524D01*
X164333076Y-107440355D01*
X163904817Y-107830642D01*
X163843843Y-107960478D01*
X163630625Y-107641375D01*
X163139418Y-107313161D01*
X162706256Y-107227000D01*
X162413744Y-107227000D01*
X161980582Y-107313161D01*
X161489375Y-107641375D01*
X161290000Y-107939761D01*
X161090625Y-107641375D01*
X160599418Y-107313161D01*
X160166256Y-107227000D01*
X159873744Y-107227000D01*
X159440582Y-107313161D01*
X158949375Y-107641375D01*
X158750000Y-107939761D01*
X158550625Y-107641375D01*
X158240000Y-107433822D01*
X158240000Y-105978802D01*
X158302802Y-105916000D01*
X158421153Y-105916000D01*
X158496000Y-105930888D01*
X158570847Y-105916000D01*
X158570852Y-105916000D01*
X158792537Y-105871904D01*
X159043929Y-105703929D01*
X159086331Y-105640470D01*
X161520476Y-103206327D01*
X161583929Y-103163929D01*
X161626327Y-103100476D01*
X161626329Y-103100474D01*
X161751903Y-102912538D01*
X161751904Y-102912537D01*
X161796000Y-102690852D01*
X161796000Y-102690848D01*
X161810888Y-102616001D01*
X161796000Y-102541154D01*
X161796000Y-101956890D01*
X163658524Y-101956890D01*
X163828355Y-102366924D01*
X164218642Y-102795183D01*
X164743108Y-103041486D01*
X164973000Y-102920819D01*
X164973000Y-101727000D01*
X165227000Y-101727000D01*
X165227000Y-102920819D01*
X165456892Y-103041486D01*
X165981358Y-102795183D01*
X166371645Y-102366924D01*
X166541476Y-101956890D01*
X166420155Y-101727000D01*
X165227000Y-101727000D01*
X164973000Y-101727000D01*
X163779845Y-101727000D01*
X163658524Y-101956890D01*
X161796000Y-101956890D01*
X161796000Y-93980000D01*
X163585908Y-93980000D01*
X163701161Y-94559418D01*
X164029375Y-95050625D01*
X164327761Y-95250000D01*
X164029375Y-95449375D01*
X163701161Y-95940582D01*
X163585908Y-96520000D01*
X163701161Y-97099418D01*
X164029375Y-97590625D01*
X164327761Y-97790000D01*
X164029375Y-97989375D01*
X163701161Y-98480582D01*
X163585908Y-99060000D01*
X163701161Y-99639418D01*
X164029375Y-100130625D01*
X164348478Y-100343843D01*
X164218642Y-100404817D01*
X163828355Y-100833076D01*
X163658524Y-101243110D01*
X163779845Y-101473000D01*
X164973000Y-101473000D01*
X164973000Y-101453000D01*
X165227000Y-101453000D01*
X165227000Y-101473000D01*
X166420155Y-101473000D01*
X166541476Y-101243110D01*
X166371645Y-100833076D01*
X165981358Y-100404817D01*
X165851522Y-100343843D01*
X166170625Y-100130625D01*
X166498839Y-99639418D01*
X166614092Y-99060000D01*
X166498839Y-98480582D01*
X166170625Y-97989375D01*
X165872239Y-97790000D01*
X166170625Y-97590625D01*
X166498839Y-97099418D01*
X166614092Y-96520000D01*
X166498839Y-95940582D01*
X166170625Y-95449375D01*
X165872239Y-95250000D01*
X166170625Y-95050625D01*
X166498839Y-94559418D01*
X166614092Y-93980000D01*
X166498839Y-93400582D01*
X166170625Y-92909375D01*
X166152381Y-92897184D01*
X166197765Y-92888157D01*
X166407809Y-92747809D01*
X166548157Y-92537765D01*
X166597440Y-92290000D01*
X166597440Y-90590000D01*
X166548157Y-90342235D01*
X166407809Y-90132191D01*
X166197765Y-89991843D01*
X165950000Y-89942560D01*
X164250000Y-89942560D01*
X164002235Y-89991843D01*
X163792191Y-90132191D01*
X163651843Y-90342235D01*
X163602560Y-90590000D01*
X163602560Y-92290000D01*
X163651843Y-92537765D01*
X163792191Y-92747809D01*
X164002235Y-92888157D01*
X164047619Y-92897184D01*
X164029375Y-92909375D01*
X163701161Y-93400582D01*
X163585908Y-93980000D01*
X161796000Y-93980000D01*
X161796000Y-91514847D01*
X161810888Y-91440000D01*
X161796000Y-91365153D01*
X161796000Y-91365148D01*
X161751904Y-91143463D01*
X161583929Y-90892071D01*
X161520473Y-90849671D01*
X160610331Y-89939530D01*
X160567929Y-89876071D01*
X160316537Y-89708096D01*
X160094852Y-89664000D01*
X160094847Y-89664000D01*
X160020000Y-89649112D01*
X159945153Y-89664000D01*
X154627711Y-89664000D01*
X154510280Y-89546569D01*
X154129874Y-89389000D01*
X153718126Y-89389000D01*
X153337720Y-89546569D01*
X153046569Y-89837720D01*
X152889000Y-90218126D01*
X152889000Y-90629874D01*
X153046569Y-91010280D01*
X153337720Y-91301431D01*
X153718126Y-91459000D01*
X154129874Y-91459000D01*
X154510280Y-91301431D01*
X154627711Y-91184000D01*
X159705199Y-91184000D01*
X160276000Y-91754802D01*
X160276000Y-92653199D01*
X160160322Y-92537521D01*
X160117920Y-92474062D01*
X159866528Y-92306087D01*
X159644843Y-92261991D01*
X159644838Y-92261991D01*
X159569991Y-92247103D01*
X159495144Y-92261991D01*
X147844855Y-92261991D01*
X147770008Y-92247103D01*
X147695161Y-92261991D01*
X147695157Y-92261991D01*
X147473472Y-92306087D01*
X147473470Y-92306088D01*
X147473471Y-92306088D01*
X147285535Y-92431662D01*
X147285533Y-92431664D01*
X147222080Y-92474062D01*
X147179682Y-92537516D01*
X146327529Y-93389669D01*
X146264071Y-93432071D01*
X146096096Y-93683464D01*
X146052000Y-93905149D01*
X146052000Y-93905153D01*
X146037112Y-93980000D01*
X146052000Y-94054847D01*
X146052001Y-96713196D01*
X143787530Y-98977669D01*
X143724071Y-99020071D01*
X143556096Y-99271464D01*
X143512000Y-99493149D01*
X143512000Y-99493153D01*
X143497112Y-99568000D01*
X143512000Y-99642847D01*
X143512001Y-101856000D01*
X142554802Y-101856000D01*
X141984000Y-101285199D01*
X141984000Y-92143711D01*
X142101431Y-92026280D01*
X142259000Y-91645874D01*
X142259000Y-91234126D01*
X142101431Y-90853720D01*
X141810280Y-90562569D01*
X141429874Y-90405000D01*
X141018126Y-90405000D01*
X140637720Y-90562569D01*
X140346569Y-90853720D01*
X140189000Y-91234126D01*
X140189000Y-91645874D01*
X140346569Y-92026280D01*
X140464000Y-92143711D01*
X140464001Y-101525148D01*
X140449112Y-101600000D01*
X140508097Y-101896537D01*
X140622713Y-102068071D01*
X140676072Y-102147929D01*
X140739528Y-102190329D01*
X141649671Y-103100473D01*
X141692071Y-103163929D01*
X141943463Y-103331904D01*
X142165148Y-103376000D01*
X142165153Y-103376000D01*
X142240000Y-103390888D01*
X142314847Y-103376000D01*
X143568289Y-103376000D01*
X143685720Y-103493431D01*
X144066126Y-103651000D01*
X144477874Y-103651000D01*
X144858280Y-103493431D01*
X145149431Y-103202280D01*
X145307000Y-102821874D01*
X145307000Y-102410126D01*
X145149431Y-102029720D01*
X145032000Y-101912289D01*
X145032000Y-99882801D01*
X147296476Y-97618327D01*
X147359929Y-97575929D01*
X147402327Y-97512476D01*
X147402329Y-97512474D01*
X147527903Y-97324538D01*
X147527904Y-97324537D01*
X147572000Y-97102852D01*
X147572000Y-97102848D01*
X147586888Y-97028001D01*
X147572000Y-96953154D01*
X147572000Y-94294802D01*
X148084811Y-93781991D01*
X155079208Y-93781991D01*
X154963530Y-93897669D01*
X154900071Y-93940071D01*
X154732096Y-94191464D01*
X154688000Y-94413149D01*
X154688000Y-94413153D01*
X154673112Y-94488000D01*
X154688000Y-94562847D01*
X154688001Y-95308288D01*
X154570569Y-95425720D01*
X154413000Y-95806126D01*
X154413000Y-96217874D01*
X154570569Y-96598280D01*
X154861720Y-96889431D01*
X155242126Y-97047000D01*
X155653874Y-97047000D01*
X156034280Y-96889431D01*
X156325431Y-96598280D01*
X156483000Y-96217874D01*
X156483000Y-95806126D01*
X156325431Y-95425720D01*
X156208000Y-95308289D01*
X156208000Y-94802801D01*
X156778802Y-94232000D01*
X157953002Y-94232000D01*
X157953002Y-94469000D01*
X157782126Y-94469000D01*
X157401720Y-94626569D01*
X157110569Y-94917720D01*
X156953000Y-95298126D01*
X156953000Y-95709874D01*
X157110569Y-96090280D01*
X157228000Y-96207711D01*
X157228001Y-101285196D01*
X155133199Y-103380000D01*
X153490847Y-103380000D01*
X153416000Y-103365112D01*
X153341153Y-103380000D01*
X153341148Y-103380000D01*
X153119463Y-103424096D01*
X152868071Y-103592071D01*
X152825671Y-103655527D01*
X151915530Y-104565669D01*
X151852071Y-104608071D01*
X151684096Y-104859464D01*
X151640000Y-105081149D01*
X151640000Y-105081153D01*
X151625112Y-105156000D01*
X151640000Y-105230847D01*
X151640001Y-107433822D01*
X151329375Y-107641375D01*
X151130000Y-107939761D01*
X150930625Y-107641375D01*
X150439418Y-107313161D01*
X150006256Y-107227000D01*
X149713744Y-107227000D01*
X149280582Y-107313161D01*
X148789375Y-107641375D01*
X148590000Y-107939761D01*
X148390625Y-107641375D01*
X147899418Y-107313161D01*
X147466256Y-107227000D01*
X147173744Y-107227000D01*
X146740582Y-107313161D01*
X146249375Y-107641375D01*
X146050000Y-107939761D01*
X145850625Y-107641375D01*
X145359418Y-107313161D01*
X144926256Y-107227000D01*
X144633744Y-107227000D01*
X144200582Y-107313161D01*
X143709375Y-107641375D01*
X143510000Y-107939761D01*
X143310625Y-107641375D01*
X142819418Y-107313161D01*
X142386256Y-107227000D01*
X142093744Y-107227000D01*
X141660582Y-107313161D01*
X141169375Y-107641375D01*
X141157184Y-107659619D01*
X141148157Y-107614235D01*
X141007809Y-107404191D01*
X140797765Y-107263843D01*
X140550000Y-107214560D01*
X138850000Y-107214560D01*
X138602235Y-107263843D01*
X138392191Y-107404191D01*
X138251843Y-107614235D01*
X138202560Y-107862000D01*
X119607000Y-107862000D01*
X119607000Y-97455746D01*
X119733755Y-97562099D01*
X120168000Y-97699000D01*
X120593000Y-97699000D01*
X120593000Y-96666000D01*
X120847000Y-96666000D01*
X120847000Y-97699000D01*
X121272000Y-97699000D01*
X121706245Y-97562099D01*
X122055046Y-97269441D01*
X122263964Y-96844810D01*
X122138163Y-96666000D01*
X120847000Y-96666000D01*
X120593000Y-96666000D01*
X120573000Y-96666000D01*
X120573000Y-96412000D01*
X120593000Y-96412000D01*
X120593000Y-95379000D01*
X120847000Y-95379000D01*
X120847000Y-96412000D01*
X122138163Y-96412000D01*
X122263964Y-96233190D01*
X122055046Y-95808559D01*
X121706245Y-95515901D01*
X121272000Y-95379000D01*
X120847000Y-95379000D01*
X120593000Y-95379000D01*
X120168000Y-95379000D01*
X119733755Y-95515901D01*
X119607000Y-95622254D01*
X119607000Y-90305746D01*
X119733755Y-90412099D01*
X120168000Y-90549000D01*
X120593000Y-90549000D01*
X120593000Y-89516000D01*
X120847000Y-89516000D01*
X120847000Y-90549000D01*
X121272000Y-90549000D01*
X121706245Y-90412099D01*
X122055046Y-90119441D01*
X122263964Y-89694810D01*
X122138163Y-89516000D01*
X120847000Y-89516000D01*
X120593000Y-89516000D01*
X120573000Y-89516000D01*
X120573000Y-89262000D01*
X120593000Y-89262000D01*
X120593000Y-88229000D01*
X120847000Y-88229000D01*
X120847000Y-89262000D01*
X122138163Y-89262000D01*
X122263964Y-89083190D01*
X122055046Y-88658559D01*
X121706245Y-88365901D01*
X121272000Y-88229000D01*
X120847000Y-88229000D01*
X120593000Y-88229000D01*
X120168000Y-88229000D01*
X119733755Y-88365901D01*
X119607000Y-88472254D01*
X119607000Y-79983000D01*
X169445000Y-79983000D01*
X169445001Y-111533000D01*
G04 #@! TD*
M02*
