G04 #@! TF.GenerationSoftware,KiCad,Pcbnew,(5.0.1)-4*
G04 #@! TF.CreationDate,2019-08-09T21:17:30+02:00*
G04 #@! TF.ProjectId,USB-SPI_prog,5553422D5350495F70726F672E6B6963,rev?*
G04 #@! TF.SameCoordinates,Original*
G04 #@! TF.FileFunction,Copper,L1,Top,Signal*
G04 #@! TF.FilePolarity,Positive*
%FSLAX46Y46*%
G04 Gerber Fmt 4.6, Leading zero omitted, Abs format (unit mm)*
G04 Created by KiCad (PCBNEW (5.0.1)-4) date 09.08.2019 21:17:30*
%MOMM*%
%LPD*%
G01*
G04 APERTURE LIST*
G04 #@! TA.AperFunction,Conductor*
%ADD10C,0.100000*%
G04 #@! TD*
G04 #@! TA.AperFunction,SMDPad,CuDef*
%ADD11C,1.925000*%
G04 #@! TD*
G04 #@! TA.AperFunction,SMDPad,CuDef*
%ADD12R,2.500000X1.200000*%
G04 #@! TD*
G04 #@! TA.AperFunction,SMDPad,CuDef*
%ADD13C,0.975000*%
G04 #@! TD*
G04 #@! TA.AperFunction,SMDPad,CuDef*
%ADD14C,1.250000*%
G04 #@! TD*
G04 #@! TA.AperFunction,SMDPad,CuDef*
%ADD15C,0.875000*%
G04 #@! TD*
G04 #@! TA.AperFunction,SMDPad,CuDef*
%ADD16R,1.900000X1.750000*%
G04 #@! TD*
G04 #@! TA.AperFunction,SMDPad,CuDef*
%ADD17R,1.400000X0.400000*%
G04 #@! TD*
G04 #@! TA.AperFunction,ComponentPad*
%ADD18O,1.900000X1.050000*%
G04 #@! TD*
G04 #@! TA.AperFunction,SMDPad,CuDef*
%ADD19R,1.450000X1.150000*%
G04 #@! TD*
G04 #@! TA.AperFunction,ComponentPad*
%ADD20R,1.700000X1.700000*%
G04 #@! TD*
G04 #@! TA.AperFunction,ComponentPad*
%ADD21O,1.700000X1.700000*%
G04 #@! TD*
G04 #@! TA.AperFunction,SMDPad,CuDef*
%ADD22R,0.600000X1.950000*%
G04 #@! TD*
G04 #@! TA.AperFunction,SMDPad,CuDef*
%ADD23R,4.500000X2.000000*%
G04 #@! TD*
G04 #@! TA.AperFunction,ViaPad*
%ADD24C,0.800000*%
G04 #@! TD*
G04 #@! TA.AperFunction,Conductor*
%ADD25C,0.250000*%
G04 #@! TD*
G04 #@! TA.AperFunction,Conductor*
%ADD26C,0.200000*%
G04 #@! TD*
G04 #@! TA.AperFunction,Conductor*
%ADD27C,0.254000*%
G04 #@! TD*
G04 APERTURE END LIST*
D10*
G04 #@! TO.N,5V*
G04 #@! TO.C,F1*
G36*
X135188505Y-85668204D02*
X135212773Y-85671804D01*
X135236572Y-85677765D01*
X135259671Y-85686030D01*
X135281850Y-85696520D01*
X135302893Y-85709132D01*
X135322599Y-85723747D01*
X135340777Y-85740223D01*
X135357253Y-85758401D01*
X135371868Y-85778107D01*
X135384480Y-85799150D01*
X135394970Y-85821329D01*
X135403235Y-85844428D01*
X135409196Y-85868227D01*
X135412796Y-85892495D01*
X135414000Y-85916999D01*
X135414000Y-90867001D01*
X135412796Y-90891505D01*
X135409196Y-90915773D01*
X135403235Y-90939572D01*
X135394970Y-90962671D01*
X135384480Y-90984850D01*
X135371868Y-91005893D01*
X135357253Y-91025599D01*
X135340777Y-91043777D01*
X135322599Y-91060253D01*
X135302893Y-91074868D01*
X135281850Y-91087480D01*
X135259671Y-91097970D01*
X135236572Y-91106235D01*
X135212773Y-91112196D01*
X135188505Y-91115796D01*
X135164001Y-91117000D01*
X133738999Y-91117000D01*
X133714495Y-91115796D01*
X133690227Y-91112196D01*
X133666428Y-91106235D01*
X133643329Y-91097970D01*
X133621150Y-91087480D01*
X133600107Y-91074868D01*
X133580401Y-91060253D01*
X133562223Y-91043777D01*
X133545747Y-91025599D01*
X133531132Y-91005893D01*
X133518520Y-90984850D01*
X133508030Y-90962671D01*
X133499765Y-90939572D01*
X133493804Y-90915773D01*
X133490204Y-90891505D01*
X133489000Y-90867001D01*
X133489000Y-85916999D01*
X133490204Y-85892495D01*
X133493804Y-85868227D01*
X133499765Y-85844428D01*
X133508030Y-85821329D01*
X133518520Y-85799150D01*
X133531132Y-85778107D01*
X133545747Y-85758401D01*
X133562223Y-85740223D01*
X133580401Y-85723747D01*
X133600107Y-85709132D01*
X133621150Y-85696520D01*
X133643329Y-85686030D01*
X133666428Y-85677765D01*
X133690227Y-85671804D01*
X133714495Y-85668204D01*
X133738999Y-85667000D01*
X135164001Y-85667000D01*
X135188505Y-85668204D01*
X135188505Y-85668204D01*
G37*
D11*
G04 #@! TD*
G04 #@! TO.P,F1,1*
G04 #@! TO.N,5V*
X134451500Y-88392000D03*
D10*
G04 #@! TO.N,Net-(C1-Pad1)*
G04 #@! TO.C,F1*
G36*
X128413505Y-85668204D02*
X128437773Y-85671804D01*
X128461572Y-85677765D01*
X128484671Y-85686030D01*
X128506850Y-85696520D01*
X128527893Y-85709132D01*
X128547599Y-85723747D01*
X128565777Y-85740223D01*
X128582253Y-85758401D01*
X128596868Y-85778107D01*
X128609480Y-85799150D01*
X128619970Y-85821329D01*
X128628235Y-85844428D01*
X128634196Y-85868227D01*
X128637796Y-85892495D01*
X128639000Y-85916999D01*
X128639000Y-90867001D01*
X128637796Y-90891505D01*
X128634196Y-90915773D01*
X128628235Y-90939572D01*
X128619970Y-90962671D01*
X128609480Y-90984850D01*
X128596868Y-91005893D01*
X128582253Y-91025599D01*
X128565777Y-91043777D01*
X128547599Y-91060253D01*
X128527893Y-91074868D01*
X128506850Y-91087480D01*
X128484671Y-91097970D01*
X128461572Y-91106235D01*
X128437773Y-91112196D01*
X128413505Y-91115796D01*
X128389001Y-91117000D01*
X126963999Y-91117000D01*
X126939495Y-91115796D01*
X126915227Y-91112196D01*
X126891428Y-91106235D01*
X126868329Y-91097970D01*
X126846150Y-91087480D01*
X126825107Y-91074868D01*
X126805401Y-91060253D01*
X126787223Y-91043777D01*
X126770747Y-91025599D01*
X126756132Y-91005893D01*
X126743520Y-90984850D01*
X126733030Y-90962671D01*
X126724765Y-90939572D01*
X126718804Y-90915773D01*
X126715204Y-90891505D01*
X126714000Y-90867001D01*
X126714000Y-85916999D01*
X126715204Y-85892495D01*
X126718804Y-85868227D01*
X126724765Y-85844428D01*
X126733030Y-85821329D01*
X126743520Y-85799150D01*
X126756132Y-85778107D01*
X126770747Y-85758401D01*
X126787223Y-85740223D01*
X126805401Y-85723747D01*
X126825107Y-85709132D01*
X126846150Y-85696520D01*
X126868329Y-85686030D01*
X126891428Y-85677765D01*
X126915227Y-85671804D01*
X126939495Y-85668204D01*
X126963999Y-85667000D01*
X128389001Y-85667000D01*
X128413505Y-85668204D01*
X128413505Y-85668204D01*
G37*
D11*
G04 #@! TD*
G04 #@! TO.P,F1,2*
G04 #@! TO.N,Net-(C1-Pad1)*
X127676500Y-88392000D03*
D12*
G04 #@! TO.P,SW1,3*
G04 #@! TO.N,N/C*
X159666000Y-88646000D03*
G04 #@! TO.P,SW1,4*
X147166000Y-88646000D03*
G04 #@! TO.P,SW1,1*
G04 #@! TO.N,GND*
X159666000Y-81026000D03*
G04 #@! TO.P,SW1,2*
G04 #@! TO.N,Net-(R2-Pad2)*
X147166000Y-81026000D03*
G04 #@! TD*
D10*
G04 #@! TO.N,Net-(C1-Pad1)*
G04 #@! TO.C,C1*
G36*
X124432142Y-82904174D02*
X124455803Y-82907684D01*
X124479007Y-82913496D01*
X124501529Y-82921554D01*
X124523153Y-82931782D01*
X124543670Y-82944079D01*
X124562883Y-82958329D01*
X124580607Y-82974393D01*
X124596671Y-82992117D01*
X124610921Y-83011330D01*
X124623218Y-83031847D01*
X124633446Y-83053471D01*
X124641504Y-83075993D01*
X124647316Y-83099197D01*
X124650826Y-83122858D01*
X124652000Y-83146750D01*
X124652000Y-83634250D01*
X124650826Y-83658142D01*
X124647316Y-83681803D01*
X124641504Y-83705007D01*
X124633446Y-83727529D01*
X124623218Y-83749153D01*
X124610921Y-83769670D01*
X124596671Y-83788883D01*
X124580607Y-83806607D01*
X124562883Y-83822671D01*
X124543670Y-83836921D01*
X124523153Y-83849218D01*
X124501529Y-83859446D01*
X124479007Y-83867504D01*
X124455803Y-83873316D01*
X124432142Y-83876826D01*
X124408250Y-83878000D01*
X123495750Y-83878000D01*
X123471858Y-83876826D01*
X123448197Y-83873316D01*
X123424993Y-83867504D01*
X123402471Y-83859446D01*
X123380847Y-83849218D01*
X123360330Y-83836921D01*
X123341117Y-83822671D01*
X123323393Y-83806607D01*
X123307329Y-83788883D01*
X123293079Y-83769670D01*
X123280782Y-83749153D01*
X123270554Y-83727529D01*
X123262496Y-83705007D01*
X123256684Y-83681803D01*
X123253174Y-83658142D01*
X123252000Y-83634250D01*
X123252000Y-83146750D01*
X123253174Y-83122858D01*
X123256684Y-83099197D01*
X123262496Y-83075993D01*
X123270554Y-83053471D01*
X123280782Y-83031847D01*
X123293079Y-83011330D01*
X123307329Y-82992117D01*
X123323393Y-82974393D01*
X123341117Y-82958329D01*
X123360330Y-82944079D01*
X123380847Y-82931782D01*
X123402471Y-82921554D01*
X123424993Y-82913496D01*
X123448197Y-82907684D01*
X123471858Y-82904174D01*
X123495750Y-82903000D01*
X124408250Y-82903000D01*
X124432142Y-82904174D01*
X124432142Y-82904174D01*
G37*
D13*
G04 #@! TD*
G04 #@! TO.P,C1,1*
G04 #@! TO.N,Net-(C1-Pad1)*
X123952000Y-83390500D03*
D10*
G04 #@! TO.N,GND*
G04 #@! TO.C,C1*
G36*
X124432142Y-84779174D02*
X124455803Y-84782684D01*
X124479007Y-84788496D01*
X124501529Y-84796554D01*
X124523153Y-84806782D01*
X124543670Y-84819079D01*
X124562883Y-84833329D01*
X124580607Y-84849393D01*
X124596671Y-84867117D01*
X124610921Y-84886330D01*
X124623218Y-84906847D01*
X124633446Y-84928471D01*
X124641504Y-84950993D01*
X124647316Y-84974197D01*
X124650826Y-84997858D01*
X124652000Y-85021750D01*
X124652000Y-85509250D01*
X124650826Y-85533142D01*
X124647316Y-85556803D01*
X124641504Y-85580007D01*
X124633446Y-85602529D01*
X124623218Y-85624153D01*
X124610921Y-85644670D01*
X124596671Y-85663883D01*
X124580607Y-85681607D01*
X124562883Y-85697671D01*
X124543670Y-85711921D01*
X124523153Y-85724218D01*
X124501529Y-85734446D01*
X124479007Y-85742504D01*
X124455803Y-85748316D01*
X124432142Y-85751826D01*
X124408250Y-85753000D01*
X123495750Y-85753000D01*
X123471858Y-85751826D01*
X123448197Y-85748316D01*
X123424993Y-85742504D01*
X123402471Y-85734446D01*
X123380847Y-85724218D01*
X123360330Y-85711921D01*
X123341117Y-85697671D01*
X123323393Y-85681607D01*
X123307329Y-85663883D01*
X123293079Y-85644670D01*
X123280782Y-85624153D01*
X123270554Y-85602529D01*
X123262496Y-85580007D01*
X123256684Y-85556803D01*
X123253174Y-85533142D01*
X123252000Y-85509250D01*
X123252000Y-85021750D01*
X123253174Y-84997858D01*
X123256684Y-84974197D01*
X123262496Y-84950993D01*
X123270554Y-84928471D01*
X123280782Y-84906847D01*
X123293079Y-84886330D01*
X123307329Y-84867117D01*
X123323393Y-84849393D01*
X123341117Y-84833329D01*
X123360330Y-84819079D01*
X123380847Y-84806782D01*
X123402471Y-84796554D01*
X123424993Y-84788496D01*
X123448197Y-84782684D01*
X123471858Y-84779174D01*
X123495750Y-84778000D01*
X124408250Y-84778000D01*
X124432142Y-84779174D01*
X124432142Y-84779174D01*
G37*
D13*
G04 #@! TD*
G04 #@! TO.P,C1,2*
G04 #@! TO.N,GND*
X123952000Y-85265500D03*
D10*
G04 #@! TO.N,Net-(C2-Pad1)*
G04 #@! TO.C,C2*
G36*
X130955504Y-96154204D02*
X130979773Y-96157804D01*
X131003571Y-96163765D01*
X131026671Y-96172030D01*
X131048849Y-96182520D01*
X131069893Y-96195133D01*
X131089598Y-96209747D01*
X131107777Y-96226223D01*
X131124253Y-96244402D01*
X131138867Y-96264107D01*
X131151480Y-96285151D01*
X131161970Y-96307329D01*
X131170235Y-96330429D01*
X131176196Y-96354227D01*
X131179796Y-96378496D01*
X131181000Y-96403000D01*
X131181000Y-97653000D01*
X131179796Y-97677504D01*
X131176196Y-97701773D01*
X131170235Y-97725571D01*
X131161970Y-97748671D01*
X131151480Y-97770849D01*
X131138867Y-97791893D01*
X131124253Y-97811598D01*
X131107777Y-97829777D01*
X131089598Y-97846253D01*
X131069893Y-97860867D01*
X131048849Y-97873480D01*
X131026671Y-97883970D01*
X131003571Y-97892235D01*
X130979773Y-97898196D01*
X130955504Y-97901796D01*
X130931000Y-97903000D01*
X130181000Y-97903000D01*
X130156496Y-97901796D01*
X130132227Y-97898196D01*
X130108429Y-97892235D01*
X130085329Y-97883970D01*
X130063151Y-97873480D01*
X130042107Y-97860867D01*
X130022402Y-97846253D01*
X130004223Y-97829777D01*
X129987747Y-97811598D01*
X129973133Y-97791893D01*
X129960520Y-97770849D01*
X129950030Y-97748671D01*
X129941765Y-97725571D01*
X129935804Y-97701773D01*
X129932204Y-97677504D01*
X129931000Y-97653000D01*
X129931000Y-96403000D01*
X129932204Y-96378496D01*
X129935804Y-96354227D01*
X129941765Y-96330429D01*
X129950030Y-96307329D01*
X129960520Y-96285151D01*
X129973133Y-96264107D01*
X129987747Y-96244402D01*
X130004223Y-96226223D01*
X130022402Y-96209747D01*
X130042107Y-96195133D01*
X130063151Y-96182520D01*
X130085329Y-96172030D01*
X130108429Y-96163765D01*
X130132227Y-96157804D01*
X130156496Y-96154204D01*
X130181000Y-96153000D01*
X130931000Y-96153000D01*
X130955504Y-96154204D01*
X130955504Y-96154204D01*
G37*
D14*
G04 #@! TD*
G04 #@! TO.P,C2,1*
G04 #@! TO.N,Net-(C2-Pad1)*
X130556000Y-97028000D03*
D10*
G04 #@! TO.N,GND*
G04 #@! TO.C,C2*
G36*
X128155504Y-96154204D02*
X128179773Y-96157804D01*
X128203571Y-96163765D01*
X128226671Y-96172030D01*
X128248849Y-96182520D01*
X128269893Y-96195133D01*
X128289598Y-96209747D01*
X128307777Y-96226223D01*
X128324253Y-96244402D01*
X128338867Y-96264107D01*
X128351480Y-96285151D01*
X128361970Y-96307329D01*
X128370235Y-96330429D01*
X128376196Y-96354227D01*
X128379796Y-96378496D01*
X128381000Y-96403000D01*
X128381000Y-97653000D01*
X128379796Y-97677504D01*
X128376196Y-97701773D01*
X128370235Y-97725571D01*
X128361970Y-97748671D01*
X128351480Y-97770849D01*
X128338867Y-97791893D01*
X128324253Y-97811598D01*
X128307777Y-97829777D01*
X128289598Y-97846253D01*
X128269893Y-97860867D01*
X128248849Y-97873480D01*
X128226671Y-97883970D01*
X128203571Y-97892235D01*
X128179773Y-97898196D01*
X128155504Y-97901796D01*
X128131000Y-97903000D01*
X127381000Y-97903000D01*
X127356496Y-97901796D01*
X127332227Y-97898196D01*
X127308429Y-97892235D01*
X127285329Y-97883970D01*
X127263151Y-97873480D01*
X127242107Y-97860867D01*
X127222402Y-97846253D01*
X127204223Y-97829777D01*
X127187747Y-97811598D01*
X127173133Y-97791893D01*
X127160520Y-97770849D01*
X127150030Y-97748671D01*
X127141765Y-97725571D01*
X127135804Y-97701773D01*
X127132204Y-97677504D01*
X127131000Y-97653000D01*
X127131000Y-96403000D01*
X127132204Y-96378496D01*
X127135804Y-96354227D01*
X127141765Y-96330429D01*
X127150030Y-96307329D01*
X127160520Y-96285151D01*
X127173133Y-96264107D01*
X127187747Y-96244402D01*
X127204223Y-96226223D01*
X127222402Y-96209747D01*
X127242107Y-96195133D01*
X127263151Y-96182520D01*
X127285329Y-96172030D01*
X127308429Y-96163765D01*
X127332227Y-96157804D01*
X127356496Y-96154204D01*
X127381000Y-96153000D01*
X128131000Y-96153000D01*
X128155504Y-96154204D01*
X128155504Y-96154204D01*
G37*
D14*
G04 #@! TD*
G04 #@! TO.P,C2,2*
G04 #@! TO.N,GND*
X127756000Y-97028000D03*
D10*
G04 #@! TO.N,GND*
G04 #@! TO.C,C3*
G36*
X126411289Y-100923884D02*
X126432524Y-100927034D01*
X126453348Y-100932250D01*
X126473560Y-100939482D01*
X126492966Y-100948661D01*
X126511379Y-100959697D01*
X126528622Y-100972485D01*
X126544528Y-100986901D01*
X126558944Y-101002807D01*
X126571732Y-101020050D01*
X126582768Y-101038463D01*
X126591947Y-101057869D01*
X126599179Y-101078081D01*
X126604395Y-101098905D01*
X126607545Y-101120140D01*
X126608598Y-101141581D01*
X126608598Y-101654081D01*
X126607545Y-101675522D01*
X126604395Y-101696757D01*
X126599179Y-101717581D01*
X126591947Y-101737793D01*
X126582768Y-101757199D01*
X126571732Y-101775612D01*
X126558944Y-101792855D01*
X126544528Y-101808761D01*
X126528622Y-101823177D01*
X126511379Y-101835965D01*
X126492966Y-101847001D01*
X126473560Y-101856180D01*
X126453348Y-101863412D01*
X126432524Y-101868628D01*
X126411289Y-101871778D01*
X126389848Y-101872831D01*
X125952348Y-101872831D01*
X125930907Y-101871778D01*
X125909672Y-101868628D01*
X125888848Y-101863412D01*
X125868636Y-101856180D01*
X125849230Y-101847001D01*
X125830817Y-101835965D01*
X125813574Y-101823177D01*
X125797668Y-101808761D01*
X125783252Y-101792855D01*
X125770464Y-101775612D01*
X125759428Y-101757199D01*
X125750249Y-101737793D01*
X125743017Y-101717581D01*
X125737801Y-101696757D01*
X125734651Y-101675522D01*
X125733598Y-101654081D01*
X125733598Y-101141581D01*
X125734651Y-101120140D01*
X125737801Y-101098905D01*
X125743017Y-101078081D01*
X125750249Y-101057869D01*
X125759428Y-101038463D01*
X125770464Y-101020050D01*
X125783252Y-101002807D01*
X125797668Y-100986901D01*
X125813574Y-100972485D01*
X125830817Y-100959697D01*
X125849230Y-100948661D01*
X125868636Y-100939482D01*
X125888848Y-100932250D01*
X125909672Y-100927034D01*
X125930907Y-100923884D01*
X125952348Y-100922831D01*
X126389848Y-100922831D01*
X126411289Y-100923884D01*
X126411289Y-100923884D01*
G37*
D15*
G04 #@! TD*
G04 #@! TO.P,C3,2*
G04 #@! TO.N,GND*
X126171098Y-101397831D03*
D10*
G04 #@! TO.N,Net-(C3-Pad1)*
G04 #@! TO.C,C3*
G36*
X124836289Y-100923884D02*
X124857524Y-100927034D01*
X124878348Y-100932250D01*
X124898560Y-100939482D01*
X124917966Y-100948661D01*
X124936379Y-100959697D01*
X124953622Y-100972485D01*
X124969528Y-100986901D01*
X124983944Y-101002807D01*
X124996732Y-101020050D01*
X125007768Y-101038463D01*
X125016947Y-101057869D01*
X125024179Y-101078081D01*
X125029395Y-101098905D01*
X125032545Y-101120140D01*
X125033598Y-101141581D01*
X125033598Y-101654081D01*
X125032545Y-101675522D01*
X125029395Y-101696757D01*
X125024179Y-101717581D01*
X125016947Y-101737793D01*
X125007768Y-101757199D01*
X124996732Y-101775612D01*
X124983944Y-101792855D01*
X124969528Y-101808761D01*
X124953622Y-101823177D01*
X124936379Y-101835965D01*
X124917966Y-101847001D01*
X124898560Y-101856180D01*
X124878348Y-101863412D01*
X124857524Y-101868628D01*
X124836289Y-101871778D01*
X124814848Y-101872831D01*
X124377348Y-101872831D01*
X124355907Y-101871778D01*
X124334672Y-101868628D01*
X124313848Y-101863412D01*
X124293636Y-101856180D01*
X124274230Y-101847001D01*
X124255817Y-101835965D01*
X124238574Y-101823177D01*
X124222668Y-101808761D01*
X124208252Y-101792855D01*
X124195464Y-101775612D01*
X124184428Y-101757199D01*
X124175249Y-101737793D01*
X124168017Y-101717581D01*
X124162801Y-101696757D01*
X124159651Y-101675522D01*
X124158598Y-101654081D01*
X124158598Y-101141581D01*
X124159651Y-101120140D01*
X124162801Y-101098905D01*
X124168017Y-101078081D01*
X124175249Y-101057869D01*
X124184428Y-101038463D01*
X124195464Y-101020050D01*
X124208252Y-101002807D01*
X124222668Y-100986901D01*
X124238574Y-100972485D01*
X124255817Y-100959697D01*
X124274230Y-100948661D01*
X124293636Y-100939482D01*
X124313848Y-100932250D01*
X124334672Y-100927034D01*
X124355907Y-100923884D01*
X124377348Y-100922831D01*
X124814848Y-100922831D01*
X124836289Y-100923884D01*
X124836289Y-100923884D01*
G37*
D15*
G04 #@! TD*
G04 #@! TO.P,C3,1*
G04 #@! TO.N,Net-(C3-Pad1)*
X124596098Y-101397831D03*
D10*
G04 #@! TO.N,GND*
G04 #@! TO.C,C4*
G36*
X131948289Y-100923884D02*
X131969524Y-100927034D01*
X131990348Y-100932250D01*
X132010560Y-100939482D01*
X132029966Y-100948661D01*
X132048379Y-100959697D01*
X132065622Y-100972485D01*
X132081528Y-100986901D01*
X132095944Y-101002807D01*
X132108732Y-101020050D01*
X132119768Y-101038463D01*
X132128947Y-101057869D01*
X132136179Y-101078081D01*
X132141395Y-101098905D01*
X132144545Y-101120140D01*
X132145598Y-101141581D01*
X132145598Y-101654081D01*
X132144545Y-101675522D01*
X132141395Y-101696757D01*
X132136179Y-101717581D01*
X132128947Y-101737793D01*
X132119768Y-101757199D01*
X132108732Y-101775612D01*
X132095944Y-101792855D01*
X132081528Y-101808761D01*
X132065622Y-101823177D01*
X132048379Y-101835965D01*
X132029966Y-101847001D01*
X132010560Y-101856180D01*
X131990348Y-101863412D01*
X131969524Y-101868628D01*
X131948289Y-101871778D01*
X131926848Y-101872831D01*
X131489348Y-101872831D01*
X131467907Y-101871778D01*
X131446672Y-101868628D01*
X131425848Y-101863412D01*
X131405636Y-101856180D01*
X131386230Y-101847001D01*
X131367817Y-101835965D01*
X131350574Y-101823177D01*
X131334668Y-101808761D01*
X131320252Y-101792855D01*
X131307464Y-101775612D01*
X131296428Y-101757199D01*
X131287249Y-101737793D01*
X131280017Y-101717581D01*
X131274801Y-101696757D01*
X131271651Y-101675522D01*
X131270598Y-101654081D01*
X131270598Y-101141581D01*
X131271651Y-101120140D01*
X131274801Y-101098905D01*
X131280017Y-101078081D01*
X131287249Y-101057869D01*
X131296428Y-101038463D01*
X131307464Y-101020050D01*
X131320252Y-101002807D01*
X131334668Y-100986901D01*
X131350574Y-100972485D01*
X131367817Y-100959697D01*
X131386230Y-100948661D01*
X131405636Y-100939482D01*
X131425848Y-100932250D01*
X131446672Y-100927034D01*
X131467907Y-100923884D01*
X131489348Y-100922831D01*
X131926848Y-100922831D01*
X131948289Y-100923884D01*
X131948289Y-100923884D01*
G37*
D15*
G04 #@! TD*
G04 #@! TO.P,C4,1*
G04 #@! TO.N,GND*
X131708098Y-101397831D03*
D10*
G04 #@! TO.N,Net-(C4-Pad2)*
G04 #@! TO.C,C4*
G36*
X133523289Y-100923884D02*
X133544524Y-100927034D01*
X133565348Y-100932250D01*
X133585560Y-100939482D01*
X133604966Y-100948661D01*
X133623379Y-100959697D01*
X133640622Y-100972485D01*
X133656528Y-100986901D01*
X133670944Y-101002807D01*
X133683732Y-101020050D01*
X133694768Y-101038463D01*
X133703947Y-101057869D01*
X133711179Y-101078081D01*
X133716395Y-101098905D01*
X133719545Y-101120140D01*
X133720598Y-101141581D01*
X133720598Y-101654081D01*
X133719545Y-101675522D01*
X133716395Y-101696757D01*
X133711179Y-101717581D01*
X133703947Y-101737793D01*
X133694768Y-101757199D01*
X133683732Y-101775612D01*
X133670944Y-101792855D01*
X133656528Y-101808761D01*
X133640622Y-101823177D01*
X133623379Y-101835965D01*
X133604966Y-101847001D01*
X133585560Y-101856180D01*
X133565348Y-101863412D01*
X133544524Y-101868628D01*
X133523289Y-101871778D01*
X133501848Y-101872831D01*
X133064348Y-101872831D01*
X133042907Y-101871778D01*
X133021672Y-101868628D01*
X133000848Y-101863412D01*
X132980636Y-101856180D01*
X132961230Y-101847001D01*
X132942817Y-101835965D01*
X132925574Y-101823177D01*
X132909668Y-101808761D01*
X132895252Y-101792855D01*
X132882464Y-101775612D01*
X132871428Y-101757199D01*
X132862249Y-101737793D01*
X132855017Y-101717581D01*
X132849801Y-101696757D01*
X132846651Y-101675522D01*
X132845598Y-101654081D01*
X132845598Y-101141581D01*
X132846651Y-101120140D01*
X132849801Y-101098905D01*
X132855017Y-101078081D01*
X132862249Y-101057869D01*
X132871428Y-101038463D01*
X132882464Y-101020050D01*
X132895252Y-101002807D01*
X132909668Y-100986901D01*
X132925574Y-100972485D01*
X132942817Y-100959697D01*
X132961230Y-100948661D01*
X132980636Y-100939482D01*
X133000848Y-100932250D01*
X133021672Y-100927034D01*
X133042907Y-100923884D01*
X133064348Y-100922831D01*
X133501848Y-100922831D01*
X133523289Y-100923884D01*
X133523289Y-100923884D01*
G37*
D15*
G04 #@! TD*
G04 #@! TO.P,C4,2*
G04 #@! TO.N,Net-(C4-Pad2)*
X133283098Y-101397831D03*
D10*
G04 #@! TO.N,GND*
G04 #@! TO.C,D1*
G36*
X134123691Y-82838053D02*
X134144926Y-82841203D01*
X134165750Y-82846419D01*
X134185962Y-82853651D01*
X134205368Y-82862830D01*
X134223781Y-82873866D01*
X134241024Y-82886654D01*
X134256930Y-82901070D01*
X134271346Y-82916976D01*
X134284134Y-82934219D01*
X134295170Y-82952632D01*
X134304349Y-82972038D01*
X134311581Y-82992250D01*
X134316797Y-83013074D01*
X134319947Y-83034309D01*
X134321000Y-83055750D01*
X134321000Y-83568250D01*
X134319947Y-83589691D01*
X134316797Y-83610926D01*
X134311581Y-83631750D01*
X134304349Y-83651962D01*
X134295170Y-83671368D01*
X134284134Y-83689781D01*
X134271346Y-83707024D01*
X134256930Y-83722930D01*
X134241024Y-83737346D01*
X134223781Y-83750134D01*
X134205368Y-83761170D01*
X134185962Y-83770349D01*
X134165750Y-83777581D01*
X134144926Y-83782797D01*
X134123691Y-83785947D01*
X134102250Y-83787000D01*
X133664750Y-83787000D01*
X133643309Y-83785947D01*
X133622074Y-83782797D01*
X133601250Y-83777581D01*
X133581038Y-83770349D01*
X133561632Y-83761170D01*
X133543219Y-83750134D01*
X133525976Y-83737346D01*
X133510070Y-83722930D01*
X133495654Y-83707024D01*
X133482866Y-83689781D01*
X133471830Y-83671368D01*
X133462651Y-83651962D01*
X133455419Y-83631750D01*
X133450203Y-83610926D01*
X133447053Y-83589691D01*
X133446000Y-83568250D01*
X133446000Y-83055750D01*
X133447053Y-83034309D01*
X133450203Y-83013074D01*
X133455419Y-82992250D01*
X133462651Y-82972038D01*
X133471830Y-82952632D01*
X133482866Y-82934219D01*
X133495654Y-82916976D01*
X133510070Y-82901070D01*
X133525976Y-82886654D01*
X133543219Y-82873866D01*
X133561632Y-82862830D01*
X133581038Y-82853651D01*
X133601250Y-82846419D01*
X133622074Y-82841203D01*
X133643309Y-82838053D01*
X133664750Y-82837000D01*
X134102250Y-82837000D01*
X134123691Y-82838053D01*
X134123691Y-82838053D01*
G37*
D15*
G04 #@! TD*
G04 #@! TO.P,D1,1*
G04 #@! TO.N,GND*
X133883500Y-83312000D03*
D10*
G04 #@! TO.N,Net-(D1-Pad2)*
G04 #@! TO.C,D1*
G36*
X132548691Y-82838053D02*
X132569926Y-82841203D01*
X132590750Y-82846419D01*
X132610962Y-82853651D01*
X132630368Y-82862830D01*
X132648781Y-82873866D01*
X132666024Y-82886654D01*
X132681930Y-82901070D01*
X132696346Y-82916976D01*
X132709134Y-82934219D01*
X132720170Y-82952632D01*
X132729349Y-82972038D01*
X132736581Y-82992250D01*
X132741797Y-83013074D01*
X132744947Y-83034309D01*
X132746000Y-83055750D01*
X132746000Y-83568250D01*
X132744947Y-83589691D01*
X132741797Y-83610926D01*
X132736581Y-83631750D01*
X132729349Y-83651962D01*
X132720170Y-83671368D01*
X132709134Y-83689781D01*
X132696346Y-83707024D01*
X132681930Y-83722930D01*
X132666024Y-83737346D01*
X132648781Y-83750134D01*
X132630368Y-83761170D01*
X132610962Y-83770349D01*
X132590750Y-83777581D01*
X132569926Y-83782797D01*
X132548691Y-83785947D01*
X132527250Y-83787000D01*
X132089750Y-83787000D01*
X132068309Y-83785947D01*
X132047074Y-83782797D01*
X132026250Y-83777581D01*
X132006038Y-83770349D01*
X131986632Y-83761170D01*
X131968219Y-83750134D01*
X131950976Y-83737346D01*
X131935070Y-83722930D01*
X131920654Y-83707024D01*
X131907866Y-83689781D01*
X131896830Y-83671368D01*
X131887651Y-83651962D01*
X131880419Y-83631750D01*
X131875203Y-83610926D01*
X131872053Y-83589691D01*
X131871000Y-83568250D01*
X131871000Y-83055750D01*
X131872053Y-83034309D01*
X131875203Y-83013074D01*
X131880419Y-82992250D01*
X131887651Y-82972038D01*
X131896830Y-82952632D01*
X131907866Y-82934219D01*
X131920654Y-82916976D01*
X131935070Y-82901070D01*
X131950976Y-82886654D01*
X131968219Y-82873866D01*
X131986632Y-82862830D01*
X132006038Y-82853651D01*
X132026250Y-82846419D01*
X132047074Y-82841203D01*
X132068309Y-82838053D01*
X132089750Y-82837000D01*
X132527250Y-82837000D01*
X132548691Y-82838053D01*
X132548691Y-82838053D01*
G37*
D15*
G04 #@! TD*
G04 #@! TO.P,D1,2*
G04 #@! TO.N,Net-(D1-Pad2)*
X132308500Y-83312000D03*
D16*
G04 #@! TO.P,J1,6*
G04 #@! TO.N,GND*
X120720000Y-94089000D03*
D17*
G04 #@! TO.P,J1,2*
G04 #@! TO.N,/D-*
X123370000Y-92314000D03*
G04 #@! TO.P,J1,1*
G04 #@! TO.N,Net-(C1-Pad1)*
X123370000Y-91664000D03*
G04 #@! TO.P,J1,5*
G04 #@! TO.N,GND*
X123370000Y-94264000D03*
G04 #@! TO.P,J1,4*
G04 #@! TO.N,Net-(J1-Pad4)*
X123370000Y-93614000D03*
G04 #@! TO.P,J1,3*
G04 #@! TO.N,/D+*
X123370000Y-92964000D03*
D16*
G04 #@! TO.P,J1,6*
G04 #@! TO.N,GND*
X120720000Y-91839000D03*
D18*
X120720000Y-89389000D03*
X120720000Y-96539000D03*
D19*
X122950000Y-95284000D03*
X122950000Y-90644000D03*
G04 #@! TD*
D20*
G04 #@! TO.P,J2,1*
G04 #@! TO.N,MISO*
X165100000Y-91440000D03*
D21*
G04 #@! TO.P,J2,2*
G04 #@! TO.N,SCK*
X165100000Y-93980000D03*
G04 #@! TO.P,J2,3*
G04 #@! TO.N,MOSI*
X165100000Y-96520000D03*
G04 #@! TO.P,J2,4*
G04 #@! TO.N,5V*
X165100000Y-99060000D03*
G04 #@! TO.P,J2,5*
G04 #@! TO.N,GND*
X165100000Y-101600000D03*
G04 #@! TD*
D20*
G04 #@! TO.P,J3,1*
G04 #@! TO.N,GP0*
X139700000Y-108712000D03*
D21*
G04 #@! TO.P,J3,2*
G04 #@! TO.N,GP1*
X142240000Y-108712000D03*
G04 #@! TO.P,J3,3*
G04 #@! TO.N,GP2*
X144780000Y-108712000D03*
G04 #@! TO.P,J3,4*
G04 #@! TO.N,GP3*
X147320000Y-108712000D03*
G04 #@! TO.P,J3,5*
G04 #@! TO.N,GP4*
X149860000Y-108712000D03*
G04 #@! TO.P,J3,6*
G04 #@! TO.N,GP5*
X152400000Y-108712000D03*
G04 #@! TO.P,J3,7*
G04 #@! TO.N,GP6*
X154940000Y-108712000D03*
G04 #@! TO.P,J3,8*
G04 #@! TO.N,GP7*
X157480000Y-108712000D03*
G04 #@! TO.P,J3,9*
G04 #@! TO.N,GP8*
X160020000Y-108712000D03*
G04 #@! TO.P,J3,10*
G04 #@! TO.N,5V*
X162560000Y-108712000D03*
G04 #@! TO.P,J3,11*
G04 #@! TO.N,GND*
X165100000Y-108712000D03*
G04 #@! TD*
D10*
G04 #@! TO.N,Net-(D1-Pad2)*
G04 #@! TO.C,R1*
G36*
X129729142Y-82613174D02*
X129752803Y-82616684D01*
X129776007Y-82622496D01*
X129798529Y-82630554D01*
X129820153Y-82640782D01*
X129840670Y-82653079D01*
X129859883Y-82667329D01*
X129877607Y-82683393D01*
X129893671Y-82701117D01*
X129907921Y-82720330D01*
X129920218Y-82740847D01*
X129930446Y-82762471D01*
X129938504Y-82784993D01*
X129944316Y-82808197D01*
X129947826Y-82831858D01*
X129949000Y-82855750D01*
X129949000Y-83768250D01*
X129947826Y-83792142D01*
X129944316Y-83815803D01*
X129938504Y-83839007D01*
X129930446Y-83861529D01*
X129920218Y-83883153D01*
X129907921Y-83903670D01*
X129893671Y-83922883D01*
X129877607Y-83940607D01*
X129859883Y-83956671D01*
X129840670Y-83970921D01*
X129820153Y-83983218D01*
X129798529Y-83993446D01*
X129776007Y-84001504D01*
X129752803Y-84007316D01*
X129729142Y-84010826D01*
X129705250Y-84012000D01*
X129217750Y-84012000D01*
X129193858Y-84010826D01*
X129170197Y-84007316D01*
X129146993Y-84001504D01*
X129124471Y-83993446D01*
X129102847Y-83983218D01*
X129082330Y-83970921D01*
X129063117Y-83956671D01*
X129045393Y-83940607D01*
X129029329Y-83922883D01*
X129015079Y-83903670D01*
X129002782Y-83883153D01*
X128992554Y-83861529D01*
X128984496Y-83839007D01*
X128978684Y-83815803D01*
X128975174Y-83792142D01*
X128974000Y-83768250D01*
X128974000Y-82855750D01*
X128975174Y-82831858D01*
X128978684Y-82808197D01*
X128984496Y-82784993D01*
X128992554Y-82762471D01*
X129002782Y-82740847D01*
X129015079Y-82720330D01*
X129029329Y-82701117D01*
X129045393Y-82683393D01*
X129063117Y-82667329D01*
X129082330Y-82653079D01*
X129102847Y-82640782D01*
X129124471Y-82630554D01*
X129146993Y-82622496D01*
X129170197Y-82616684D01*
X129193858Y-82613174D01*
X129217750Y-82612000D01*
X129705250Y-82612000D01*
X129729142Y-82613174D01*
X129729142Y-82613174D01*
G37*
D13*
G04 #@! TD*
G04 #@! TO.P,R1,2*
G04 #@! TO.N,Net-(D1-Pad2)*
X129461500Y-83312000D03*
D10*
G04 #@! TO.N,Net-(C1-Pad1)*
G04 #@! TO.C,R1*
G36*
X127854142Y-82613174D02*
X127877803Y-82616684D01*
X127901007Y-82622496D01*
X127923529Y-82630554D01*
X127945153Y-82640782D01*
X127965670Y-82653079D01*
X127984883Y-82667329D01*
X128002607Y-82683393D01*
X128018671Y-82701117D01*
X128032921Y-82720330D01*
X128045218Y-82740847D01*
X128055446Y-82762471D01*
X128063504Y-82784993D01*
X128069316Y-82808197D01*
X128072826Y-82831858D01*
X128074000Y-82855750D01*
X128074000Y-83768250D01*
X128072826Y-83792142D01*
X128069316Y-83815803D01*
X128063504Y-83839007D01*
X128055446Y-83861529D01*
X128045218Y-83883153D01*
X128032921Y-83903670D01*
X128018671Y-83922883D01*
X128002607Y-83940607D01*
X127984883Y-83956671D01*
X127965670Y-83970921D01*
X127945153Y-83983218D01*
X127923529Y-83993446D01*
X127901007Y-84001504D01*
X127877803Y-84007316D01*
X127854142Y-84010826D01*
X127830250Y-84012000D01*
X127342750Y-84012000D01*
X127318858Y-84010826D01*
X127295197Y-84007316D01*
X127271993Y-84001504D01*
X127249471Y-83993446D01*
X127227847Y-83983218D01*
X127207330Y-83970921D01*
X127188117Y-83956671D01*
X127170393Y-83940607D01*
X127154329Y-83922883D01*
X127140079Y-83903670D01*
X127127782Y-83883153D01*
X127117554Y-83861529D01*
X127109496Y-83839007D01*
X127103684Y-83815803D01*
X127100174Y-83792142D01*
X127099000Y-83768250D01*
X127099000Y-82855750D01*
X127100174Y-82831858D01*
X127103684Y-82808197D01*
X127109496Y-82784993D01*
X127117554Y-82762471D01*
X127127782Y-82740847D01*
X127140079Y-82720330D01*
X127154329Y-82701117D01*
X127170393Y-82683393D01*
X127188117Y-82667329D01*
X127207330Y-82653079D01*
X127227847Y-82640782D01*
X127249471Y-82630554D01*
X127271993Y-82622496D01*
X127295197Y-82616684D01*
X127318858Y-82613174D01*
X127342750Y-82612000D01*
X127830250Y-82612000D01*
X127854142Y-82613174D01*
X127854142Y-82613174D01*
G37*
D13*
G04 #@! TD*
G04 #@! TO.P,R1,1*
G04 #@! TO.N,Net-(C1-Pad1)*
X127586500Y-83312000D03*
D10*
G04 #@! TO.N,5V*
G04 #@! TO.C,R2*
G36*
X141704142Y-87905674D02*
X141727803Y-87909184D01*
X141751007Y-87914996D01*
X141773529Y-87923054D01*
X141795153Y-87933282D01*
X141815670Y-87945579D01*
X141834883Y-87959829D01*
X141852607Y-87975893D01*
X141868671Y-87993617D01*
X141882921Y-88012830D01*
X141895218Y-88033347D01*
X141905446Y-88054971D01*
X141913504Y-88077493D01*
X141919316Y-88100697D01*
X141922826Y-88124358D01*
X141924000Y-88148250D01*
X141924000Y-88635750D01*
X141922826Y-88659642D01*
X141919316Y-88683303D01*
X141913504Y-88706507D01*
X141905446Y-88729029D01*
X141895218Y-88750653D01*
X141882921Y-88771170D01*
X141868671Y-88790383D01*
X141852607Y-88808107D01*
X141834883Y-88824171D01*
X141815670Y-88838421D01*
X141795153Y-88850718D01*
X141773529Y-88860946D01*
X141751007Y-88869004D01*
X141727803Y-88874816D01*
X141704142Y-88878326D01*
X141680250Y-88879500D01*
X140767750Y-88879500D01*
X140743858Y-88878326D01*
X140720197Y-88874816D01*
X140696993Y-88869004D01*
X140674471Y-88860946D01*
X140652847Y-88850718D01*
X140632330Y-88838421D01*
X140613117Y-88824171D01*
X140595393Y-88808107D01*
X140579329Y-88790383D01*
X140565079Y-88771170D01*
X140552782Y-88750653D01*
X140542554Y-88729029D01*
X140534496Y-88706507D01*
X140528684Y-88683303D01*
X140525174Y-88659642D01*
X140524000Y-88635750D01*
X140524000Y-88148250D01*
X140525174Y-88124358D01*
X140528684Y-88100697D01*
X140534496Y-88077493D01*
X140542554Y-88054971D01*
X140552782Y-88033347D01*
X140565079Y-88012830D01*
X140579329Y-87993617D01*
X140595393Y-87975893D01*
X140613117Y-87959829D01*
X140632330Y-87945579D01*
X140652847Y-87933282D01*
X140674471Y-87923054D01*
X140696993Y-87914996D01*
X140720197Y-87909184D01*
X140743858Y-87905674D01*
X140767750Y-87904500D01*
X141680250Y-87904500D01*
X141704142Y-87905674D01*
X141704142Y-87905674D01*
G37*
D13*
G04 #@! TD*
G04 #@! TO.P,R2,1*
G04 #@! TO.N,5V*
X141224000Y-88392000D03*
D10*
G04 #@! TO.N,Net-(R2-Pad2)*
G04 #@! TO.C,R2*
G36*
X141704142Y-86030674D02*
X141727803Y-86034184D01*
X141751007Y-86039996D01*
X141773529Y-86048054D01*
X141795153Y-86058282D01*
X141815670Y-86070579D01*
X141834883Y-86084829D01*
X141852607Y-86100893D01*
X141868671Y-86118617D01*
X141882921Y-86137830D01*
X141895218Y-86158347D01*
X141905446Y-86179971D01*
X141913504Y-86202493D01*
X141919316Y-86225697D01*
X141922826Y-86249358D01*
X141924000Y-86273250D01*
X141924000Y-86760750D01*
X141922826Y-86784642D01*
X141919316Y-86808303D01*
X141913504Y-86831507D01*
X141905446Y-86854029D01*
X141895218Y-86875653D01*
X141882921Y-86896170D01*
X141868671Y-86915383D01*
X141852607Y-86933107D01*
X141834883Y-86949171D01*
X141815670Y-86963421D01*
X141795153Y-86975718D01*
X141773529Y-86985946D01*
X141751007Y-86994004D01*
X141727803Y-86999816D01*
X141704142Y-87003326D01*
X141680250Y-87004500D01*
X140767750Y-87004500D01*
X140743858Y-87003326D01*
X140720197Y-86999816D01*
X140696993Y-86994004D01*
X140674471Y-86985946D01*
X140652847Y-86975718D01*
X140632330Y-86963421D01*
X140613117Y-86949171D01*
X140595393Y-86933107D01*
X140579329Y-86915383D01*
X140565079Y-86896170D01*
X140552782Y-86875653D01*
X140542554Y-86854029D01*
X140534496Y-86831507D01*
X140528684Y-86808303D01*
X140525174Y-86784642D01*
X140524000Y-86760750D01*
X140524000Y-86273250D01*
X140525174Y-86249358D01*
X140528684Y-86225697D01*
X140534496Y-86202493D01*
X140542554Y-86179971D01*
X140552782Y-86158347D01*
X140565079Y-86137830D01*
X140579329Y-86118617D01*
X140595393Y-86100893D01*
X140613117Y-86084829D01*
X140632330Y-86070579D01*
X140652847Y-86058282D01*
X140674471Y-86048054D01*
X140696993Y-86039996D01*
X140720197Y-86034184D01*
X140743858Y-86030674D01*
X140767750Y-86029500D01*
X141680250Y-86029500D01*
X141704142Y-86030674D01*
X141704142Y-86030674D01*
G37*
D13*
G04 #@! TD*
G04 #@! TO.P,R2,2*
G04 #@! TO.N,Net-(R2-Pad2)*
X141224000Y-86517000D03*
D22*
G04 #@! TO.P,U1,1*
G04 #@! TO.N,5V*
X147193000Y-102744000D03*
G04 #@! TO.P,U1,2*
G04 #@! TO.N,Net-(C3-Pad1)*
X148463000Y-102744000D03*
G04 #@! TO.P,U1,3*
G04 #@! TO.N,Net-(C4-Pad2)*
X149733000Y-102744000D03*
G04 #@! TO.P,U1,4*
G04 #@! TO.N,Net-(R2-Pad2)*
X151003000Y-102744000D03*
G04 #@! TO.P,U1,5*
G04 #@! TO.N,GP0*
X152273000Y-102744000D03*
G04 #@! TO.P,U1,6*
G04 #@! TO.N,GP1*
X153543000Y-102744000D03*
G04 #@! TO.P,U1,7*
G04 #@! TO.N,GP2*
X154813000Y-102744000D03*
G04 #@! TO.P,U1,8*
G04 #@! TO.N,GP3*
X156083000Y-102744000D03*
G04 #@! TO.P,U1,9*
G04 #@! TO.N,MOSI*
X157353000Y-102744000D03*
G04 #@! TO.P,U1,10*
G04 #@! TO.N,GP4*
X158623000Y-102744000D03*
G04 #@! TO.P,U1,11*
G04 #@! TO.N,SCK*
X158623000Y-93344000D03*
G04 #@! TO.P,U1,12*
G04 #@! TO.N,GP5*
X157353000Y-93344000D03*
G04 #@! TO.P,U1,13*
G04 #@! TO.N,MISO*
X156083000Y-93344000D03*
G04 #@! TO.P,U1,14*
G04 #@! TO.N,GP6*
X154813000Y-93344000D03*
G04 #@! TO.P,U1,15*
G04 #@! TO.N,GP7*
X153543000Y-93344000D03*
G04 #@! TO.P,U1,16*
G04 #@! TO.N,GP8*
X152273000Y-93344000D03*
G04 #@! TO.P,U1,17*
G04 #@! TO.N,Net-(C2-Pad1)*
X151003000Y-93344000D03*
G04 #@! TO.P,U1,18*
G04 #@! TO.N,/D-*
X149733000Y-93344000D03*
G04 #@! TO.P,U1,19*
G04 #@! TO.N,/D+*
X148463000Y-93344000D03*
G04 #@! TO.P,U1,20*
G04 #@! TO.N,GND*
X147193000Y-93344000D03*
G04 #@! TD*
D23*
G04 #@! TO.P,Y1,1*
G04 #@! TO.N,Net-(C3-Pad1)*
X124689598Y-105969831D03*
G04 #@! TO.P,Y1,2*
G04 #@! TO.N,Net-(C4-Pad2)*
X133189598Y-105969831D03*
G04 #@! TD*
D24*
G04 #@! TO.N,5V*
X160020000Y-99568000D03*
X144272000Y-102616000D03*
X141224000Y-91440000D03*
G04 #@! TO.N,GP5*
X157988000Y-95504000D03*
G04 #@! TO.N,GP6*
X155448000Y-96012000D03*
X156464000Y-106680000D03*
G04 #@! TO.N,GP7*
X153924000Y-90424000D03*
G04 #@! TD*
D25*
G04 #@! TO.N,Net-(C1-Pad1)*
X127586500Y-89318000D02*
X127676500Y-89408000D01*
X127586500Y-83312000D02*
X127586500Y-84112000D01*
X127586500Y-88302000D02*
X127676500Y-88392000D01*
X127586500Y-83312000D02*
X127586500Y-88302000D01*
X124030500Y-83312000D02*
X123952000Y-83390500D01*
X127586500Y-83312000D02*
X124030500Y-83312000D01*
X127676500Y-88392000D02*
X126614000Y-88392000D01*
X125984000Y-88392000D02*
X127676500Y-88392000D01*
X125476000Y-88900000D02*
X125984000Y-88392000D01*
X125476000Y-90932000D02*
X125476000Y-88900000D01*
X123370000Y-91664000D02*
X124744000Y-91664000D01*
X124744000Y-91664000D02*
X125476000Y-90932000D01*
G04 #@! TO.N,GND*
X120720000Y-94089000D02*
X120795000Y-94089000D01*
X120720000Y-91839000D02*
X120795000Y-91839000D01*
X159016000Y-81026000D02*
X159666000Y-81026000D01*
X147065000Y-93472000D02*
X147193000Y-93344000D01*
X123370000Y-94264000D02*
X122204000Y-94264000D01*
X122029000Y-94089000D02*
X120720000Y-94089000D01*
X122204000Y-94264000D02*
X122029000Y-94089000D01*
G04 #@! TO.N,Net-(C2-Pad1)*
X151003000Y-94019000D02*
X151003000Y-93344000D01*
X151003000Y-94869000D02*
X151003000Y-93344000D01*
X150777989Y-95094011D02*
X151003000Y-94869000D01*
X130965989Y-95094011D02*
X150777989Y-95094011D01*
X130556000Y-97028000D02*
X130556000Y-95504000D01*
X130556000Y-95504000D02*
X130965989Y-95094011D01*
G04 #@! TO.N,Net-(C3-Pad1)*
X124689598Y-101491331D02*
X124596098Y-101397831D01*
X124689598Y-105969831D02*
X124689598Y-101491331D01*
X136144000Y-107188000D02*
X135636000Y-107696000D01*
X124968000Y-107696000D02*
X124689598Y-107417598D01*
X136144000Y-102616000D02*
X136144000Y-107188000D01*
X124689598Y-107417598D02*
X124689598Y-105969831D01*
X148463000Y-101219000D02*
X148336000Y-101092000D01*
X148463000Y-102744000D02*
X148463000Y-101219000D01*
X148336000Y-101092000D02*
X146304000Y-101092000D01*
X135636000Y-107696000D02*
X124968000Y-107696000D01*
X146304000Y-101092000D02*
X145548159Y-101847841D01*
X145548159Y-101847841D02*
X136912159Y-101847841D01*
X136912159Y-101847841D02*
X136144000Y-102616000D01*
G04 #@! TO.N,Net-(C4-Pad2)*
X133189598Y-101491331D02*
X133283098Y-101397831D01*
X133189598Y-105969831D02*
X133189598Y-101491331D01*
X149733000Y-100965000D02*
X149733000Y-102744000D01*
X149352000Y-100584000D02*
X149733000Y-100965000D01*
X145796000Y-100584000D02*
X149352000Y-100584000D01*
X133283098Y-101397831D02*
X144982169Y-101397831D01*
X144982169Y-101397831D02*
X145796000Y-100584000D01*
G04 #@! TO.N,Net-(D1-Pad2)*
X132308500Y-83312000D02*
X129461500Y-83312000D01*
G04 #@! TO.N,5V*
X165100000Y-99060000D02*
X163897919Y-99060000D01*
X163897919Y-99060000D02*
X162560000Y-100397919D01*
X147065000Y-102616000D02*
X147193000Y-102744000D01*
X144272000Y-102616000D02*
X147065000Y-102616000D01*
X162560000Y-100397919D02*
X162560000Y-108712000D01*
X160849919Y-100397919D02*
X160020000Y-99568000D01*
X162560000Y-100397919D02*
X160849919Y-100397919D01*
X141224000Y-88392000D02*
X134451500Y-88392000D01*
X141224000Y-91440000D02*
X141224000Y-88392000D01*
G04 #@! TO.N,MISO*
X156083000Y-93344000D02*
X156083000Y-91821000D01*
X156464000Y-91440000D02*
X165100000Y-91440000D01*
X156083000Y-91821000D02*
X156464000Y-91440000D01*
G04 #@! TO.N,MOSI*
X157353000Y-97155000D02*
X157353000Y-102744000D01*
X165100000Y-96520000D02*
X157988000Y-96520000D01*
X157988000Y-96520000D02*
X157353000Y-97155000D01*
G04 #@! TO.N,SCK*
X158623000Y-93344000D02*
X162432000Y-93344000D01*
X163068000Y-93980000D02*
X165100000Y-93980000D01*
X162432000Y-93344000D02*
X163068000Y-93980000D01*
G04 #@! TO.N,GP0*
X139700000Y-105156000D02*
X139700000Y-108712000D01*
X140208000Y-104648000D02*
X139700000Y-105156000D01*
X151892000Y-104648000D02*
X140208000Y-104648000D01*
X152273000Y-102744000D02*
X152273000Y-104267000D01*
X152273000Y-104267000D02*
X151892000Y-104648000D01*
G04 #@! TO.N,GP1*
X142240000Y-105664000D02*
X142240000Y-108712000D01*
X142805990Y-105098010D02*
X142240000Y-105664000D01*
X152965990Y-105098010D02*
X142805990Y-105098010D01*
X153543000Y-102744000D02*
X153543000Y-104521000D01*
X153543000Y-104521000D02*
X152965990Y-105098010D01*
G04 #@! TO.N,GP2*
X144780000Y-106172000D02*
X144780000Y-108712000D01*
X145403980Y-105548020D02*
X144780000Y-106172000D01*
X154039980Y-105548020D02*
X145403980Y-105548020D01*
X154813000Y-102744000D02*
X154813000Y-104775000D01*
X154813000Y-104775000D02*
X154039980Y-105548020D01*
G04 #@! TO.N,GP3*
X147320000Y-106680000D02*
X147320000Y-108712000D01*
X148001970Y-105998030D02*
X147320000Y-106680000D01*
X155113970Y-105998030D02*
X148001970Y-105998030D01*
X156083000Y-102744000D02*
X156083000Y-105029000D01*
X156083000Y-105029000D02*
X155113970Y-105998030D01*
G04 #@! TO.N,GP4*
X158623000Y-102744000D02*
X158623000Y-103419000D01*
X155593960Y-106448040D02*
X150091960Y-106448040D01*
X149860000Y-106680000D02*
X149860000Y-108712000D01*
X150091960Y-106448040D02*
X149860000Y-106680000D01*
X155593960Y-106448040D02*
X156886000Y-105156000D01*
X156886000Y-105156000D02*
X157988000Y-105156000D01*
X158623000Y-104521000D02*
X158623000Y-102744000D01*
X157988000Y-105156000D02*
X158623000Y-104521000D01*
G04 #@! TO.N,GP5*
X157422315Y-95504000D02*
X157988000Y-95504000D01*
X157353000Y-95434685D02*
X157422315Y-95504000D01*
X157353000Y-93344000D02*
X157353000Y-95434685D01*
G04 #@! TO.N,GP6*
X155448000Y-96012000D02*
X154940000Y-96012000D01*
X154813000Y-95885000D02*
X154813000Y-93344000D01*
X154940000Y-96012000D02*
X154813000Y-95885000D01*
X156464000Y-107188000D02*
X156464000Y-106680000D01*
X154940000Y-108712000D02*
X156464000Y-107188000D01*
G04 #@! TO.N,GP7*
X153543000Y-93344000D02*
X153543000Y-91821000D01*
X153924000Y-91440000D02*
X153924000Y-90424000D01*
X153543000Y-91821000D02*
X153924000Y-91440000D01*
G04 #@! TO.N,GP8*
X152273000Y-94019000D02*
X152400000Y-94146000D01*
X152273000Y-93344000D02*
X152273000Y-94019000D01*
X160020000Y-110236000D02*
X160020000Y-108712000D01*
X160528000Y-110744000D02*
X160020000Y-110236000D01*
X168148000Y-110744000D02*
X160528000Y-110744000D01*
X152273000Y-88011000D02*
X152908000Y-87376000D01*
X152273000Y-93344000D02*
X152273000Y-88011000D01*
X152908000Y-87376000D02*
X167640000Y-87376000D01*
X167640000Y-87376000D02*
X168656000Y-88392000D01*
X168656000Y-88392000D02*
X168656000Y-110236000D01*
X168656000Y-110236000D02*
X168148000Y-110744000D01*
G04 #@! TO.N,Net-(R2-Pad2)*
X144018000Y-81026000D02*
X147166000Y-81026000D01*
X141224000Y-86517000D02*
X141224000Y-81280000D01*
X141478000Y-81026000D02*
X144018000Y-81026000D01*
X141224000Y-81280000D02*
X141478000Y-81026000D01*
X151003000Y-102744000D02*
X151003000Y-103419000D01*
X150876000Y-104140000D02*
X151003000Y-104013000D01*
X138176000Y-104140000D02*
X150876000Y-104140000D01*
X137160000Y-105156000D02*
X138176000Y-104140000D01*
X137160000Y-110744000D02*
X137160000Y-105156000D01*
X151003000Y-104013000D02*
X151003000Y-102744000D01*
X167797000Y-86517000D02*
X169106009Y-87826009D01*
X141224000Y-86517000D02*
X167797000Y-86517000D01*
X169106009Y-87826009D02*
X169106009Y-110422401D01*
X169106009Y-110422401D02*
X168334400Y-111194010D01*
X168334400Y-111194010D02*
X137610010Y-111194010D01*
X137610010Y-111194010D02*
X137160000Y-110744000D01*
D26*
G04 #@! TO.N,/D-*
X124520001Y-92414000D02*
X142471800Y-92414000D01*
X123370000Y-92314000D02*
X124420001Y-92314000D01*
X124420001Y-92314000D02*
X124520001Y-92414000D01*
X142471800Y-92414000D02*
X144178800Y-90707000D01*
X144178800Y-90707000D02*
X148429200Y-90707000D01*
X149733000Y-92669000D02*
X149733000Y-93344000D01*
X148429200Y-90707000D02*
X149323000Y-91600800D01*
X149323000Y-92259000D02*
X149733000Y-92669000D01*
X149323000Y-91600800D02*
X149323000Y-92259000D01*
D25*
G04 #@! TO.N,/D+*
X148463000Y-94019000D02*
X148463000Y-93344000D01*
D26*
X124520001Y-92864000D02*
X142658200Y-92864000D01*
X124420001Y-92964000D02*
X124520001Y-92864000D01*
X123370000Y-92964000D02*
X124420001Y-92964000D01*
X142658200Y-92864000D02*
X144365200Y-91157000D01*
X144365200Y-91157000D02*
X148242800Y-91157000D01*
X148463000Y-92669000D02*
X148463000Y-93344000D01*
X148873000Y-92259000D02*
X148463000Y-92669000D01*
X148873000Y-91787200D02*
X148873000Y-92259000D01*
X148242800Y-91157000D02*
X148873000Y-91787200D01*
G04 #@! TD*
D27*
G04 #@! TO.N,GND*
G36*
X170053000Y-112141000D02*
X118999000Y-112141000D01*
X118999000Y-96844810D01*
X119176036Y-96844810D01*
X119384954Y-97269441D01*
X119733755Y-97562099D01*
X120168000Y-97699000D01*
X120593000Y-97699000D01*
X120593000Y-96666000D01*
X120847000Y-96666000D01*
X120847000Y-97699000D01*
X121272000Y-97699000D01*
X121706245Y-97562099D01*
X122002236Y-97313750D01*
X126496000Y-97313750D01*
X126496000Y-98029310D01*
X126592673Y-98262699D01*
X126771302Y-98441327D01*
X127004691Y-98538000D01*
X127470250Y-98538000D01*
X127629000Y-98379250D01*
X127629000Y-97155000D01*
X127883000Y-97155000D01*
X127883000Y-98379250D01*
X128041750Y-98538000D01*
X128507309Y-98538000D01*
X128740698Y-98441327D01*
X128919327Y-98262699D01*
X129016000Y-98029310D01*
X129016000Y-97313750D01*
X128857250Y-97155000D01*
X127883000Y-97155000D01*
X127629000Y-97155000D01*
X126654750Y-97155000D01*
X126496000Y-97313750D01*
X122002236Y-97313750D01*
X122055046Y-97269441D01*
X122263964Y-96844810D01*
X122138163Y-96666000D01*
X120847000Y-96666000D01*
X120593000Y-96666000D01*
X119301837Y-96666000D01*
X119176036Y-96844810D01*
X118999000Y-96844810D01*
X118999000Y-94374750D01*
X119135000Y-94374750D01*
X119135000Y-95090309D01*
X119231673Y-95323698D01*
X119410301Y-95502327D01*
X119637681Y-95596511D01*
X119384954Y-95808559D01*
X119176036Y-96233190D01*
X119301837Y-96412000D01*
X120593000Y-96412000D01*
X120593000Y-94216000D01*
X119293750Y-94216000D01*
X119135000Y-94374750D01*
X118999000Y-94374750D01*
X118999000Y-92124750D01*
X119135000Y-92124750D01*
X119135000Y-92840309D01*
X119186235Y-92964000D01*
X119135000Y-93087691D01*
X119135000Y-93803250D01*
X119293750Y-93962000D01*
X120593000Y-93962000D01*
X120593000Y-91966000D01*
X119293750Y-91966000D01*
X119135000Y-92124750D01*
X118999000Y-92124750D01*
X118999000Y-90837691D01*
X119135000Y-90837691D01*
X119135000Y-91553250D01*
X119293750Y-91712000D01*
X120593000Y-91712000D01*
X120593000Y-89516000D01*
X120847000Y-89516000D01*
X120847000Y-91712000D01*
X120867000Y-91712000D01*
X120867000Y-91966000D01*
X120847000Y-91966000D01*
X120847000Y-93962000D01*
X120867000Y-93962000D01*
X120867000Y-94216000D01*
X120847000Y-94216000D01*
X120847000Y-96412000D01*
X121900725Y-96412000D01*
X122098690Y-96494000D01*
X122664250Y-96494000D01*
X122823000Y-96335250D01*
X122823000Y-95411000D01*
X123077000Y-95411000D01*
X123077000Y-96335250D01*
X123235750Y-96494000D01*
X123801310Y-96494000D01*
X124034699Y-96397327D01*
X124213327Y-96218698D01*
X124292859Y-96026690D01*
X126496000Y-96026690D01*
X126496000Y-96742250D01*
X126654750Y-96901000D01*
X127629000Y-96901000D01*
X127629000Y-95676750D01*
X127883000Y-95676750D01*
X127883000Y-96901000D01*
X128857250Y-96901000D01*
X129016000Y-96742250D01*
X129016000Y-96026690D01*
X128919327Y-95793301D01*
X128740698Y-95614673D01*
X128507309Y-95518000D01*
X128041750Y-95518000D01*
X127883000Y-95676750D01*
X127629000Y-95676750D01*
X127470250Y-95518000D01*
X127004691Y-95518000D01*
X126771302Y-95614673D01*
X126592673Y-95793301D01*
X126496000Y-96026690D01*
X124292859Y-96026690D01*
X124310000Y-95985309D01*
X124310000Y-95569750D01*
X124151250Y-95411000D01*
X123077000Y-95411000D01*
X122823000Y-95411000D01*
X122803000Y-95411000D01*
X122803000Y-95157000D01*
X122823000Y-95157000D01*
X122823000Y-95137000D01*
X123077000Y-95137000D01*
X123077000Y-95157000D01*
X124151250Y-95157000D01*
X124218400Y-95089850D01*
X124429699Y-95002327D01*
X124608327Y-94823698D01*
X124705000Y-94590309D01*
X124705000Y-94522750D01*
X124546250Y-94364000D01*
X124389836Y-94364000D01*
X124527809Y-94271809D01*
X124668157Y-94061765D01*
X124673042Y-94037208D01*
X124705000Y-94005250D01*
X124705000Y-93937691D01*
X124696783Y-93917853D01*
X124717440Y-93814000D01*
X124717440Y-93649234D01*
X124792620Y-93599000D01*
X142585816Y-93599000D01*
X142658200Y-93613398D01*
X142730584Y-93599000D01*
X142730588Y-93599000D01*
X142944983Y-93556354D01*
X143188105Y-93393905D01*
X143229111Y-93332535D01*
X144669647Y-91892000D01*
X146471974Y-91892000D01*
X146354673Y-92009302D01*
X146258000Y-92242691D01*
X146258000Y-93058250D01*
X146416750Y-93217000D01*
X147066000Y-93217000D01*
X147066000Y-93197000D01*
X147320000Y-93197000D01*
X147320000Y-93217000D01*
X147340000Y-93217000D01*
X147340000Y-93471000D01*
X147320000Y-93471000D01*
X147320000Y-93491000D01*
X147066000Y-93491000D01*
X147066000Y-93471000D01*
X146416750Y-93471000D01*
X146258000Y-93629750D01*
X146258000Y-94334011D01*
X131040835Y-94334011D01*
X130965988Y-94319123D01*
X130891141Y-94334011D01*
X130891137Y-94334011D01*
X130669452Y-94378107D01*
X130418060Y-94546082D01*
X130375658Y-94609541D01*
X130071528Y-94913671D01*
X130008072Y-94956071D01*
X129965672Y-95019527D01*
X129965671Y-95019528D01*
X129840097Y-95207463D01*
X129781112Y-95504000D01*
X129796001Y-95578851D01*
X129796001Y-95601646D01*
X129546414Y-95768414D01*
X129351874Y-96059565D01*
X129283560Y-96403000D01*
X129283560Y-97653000D01*
X129351874Y-97996435D01*
X129546414Y-98287586D01*
X129837565Y-98482126D01*
X130181000Y-98550440D01*
X130931000Y-98550440D01*
X131274435Y-98482126D01*
X131565586Y-98287586D01*
X131760126Y-97996435D01*
X131828440Y-97653000D01*
X131828440Y-96403000D01*
X131760126Y-96059565D01*
X131622780Y-95854011D01*
X150703142Y-95854011D01*
X150777989Y-95868899D01*
X150852836Y-95854011D01*
X150852841Y-95854011D01*
X151074526Y-95809915D01*
X151325918Y-95641940D01*
X151368320Y-95578481D01*
X151487470Y-95459331D01*
X151550929Y-95416929D01*
X151718904Y-95165537D01*
X151763000Y-94943852D01*
X151763000Y-94943848D01*
X151766670Y-94925399D01*
X151973000Y-94966440D01*
X152573000Y-94966440D01*
X152820765Y-94917157D01*
X152908000Y-94858868D01*
X152995235Y-94917157D01*
X153243000Y-94966440D01*
X153843000Y-94966440D01*
X154053000Y-94924669D01*
X154053000Y-95810153D01*
X154038112Y-95885000D01*
X154053000Y-95959847D01*
X154053000Y-95959851D01*
X154097096Y-96181536D01*
X154265071Y-96432929D01*
X154328530Y-96475331D01*
X154349669Y-96496470D01*
X154392071Y-96559929D01*
X154643463Y-96727904D01*
X154714279Y-96741990D01*
X154861720Y-96889431D01*
X155242126Y-97047000D01*
X155653874Y-97047000D01*
X156034280Y-96889431D01*
X156325431Y-96598280D01*
X156483000Y-96217874D01*
X156483000Y-95806126D01*
X156325431Y-95425720D01*
X156034280Y-95134569D01*
X155653874Y-94977000D01*
X155573000Y-94977000D01*
X155573000Y-94924669D01*
X155783000Y-94966440D01*
X156383000Y-94966440D01*
X156593001Y-94924669D01*
X156593001Y-95359833D01*
X156578112Y-95434685D01*
X156593001Y-95509537D01*
X156637097Y-95731222D01*
X156805072Y-95982614D01*
X156846621Y-96010377D01*
X156874386Y-96051929D01*
X157125778Y-96219904D01*
X157198774Y-96234424D01*
X156868530Y-96564669D01*
X156805071Y-96607071D01*
X156637096Y-96858464D01*
X156593000Y-97080149D01*
X156593000Y-97080153D01*
X156578112Y-97155000D01*
X156593000Y-97229847D01*
X156593001Y-101163331D01*
X156383000Y-101121560D01*
X155783000Y-101121560D01*
X155535235Y-101170843D01*
X155448000Y-101229132D01*
X155360765Y-101170843D01*
X155113000Y-101121560D01*
X154513000Y-101121560D01*
X154265235Y-101170843D01*
X154178000Y-101229132D01*
X154090765Y-101170843D01*
X153843000Y-101121560D01*
X153243000Y-101121560D01*
X152995235Y-101170843D01*
X152908000Y-101229132D01*
X152820765Y-101170843D01*
X152573000Y-101121560D01*
X151973000Y-101121560D01*
X151725235Y-101170843D01*
X151638000Y-101229132D01*
X151550765Y-101170843D01*
X151303000Y-101121560D01*
X150703000Y-101121560D01*
X150493000Y-101163331D01*
X150493000Y-101039846D01*
X150507888Y-100964999D01*
X150493000Y-100890152D01*
X150493000Y-100890148D01*
X150448904Y-100668463D01*
X150280929Y-100417071D01*
X150217473Y-100374671D01*
X149942331Y-100099529D01*
X149899929Y-100036071D01*
X149648537Y-99868096D01*
X149426852Y-99824000D01*
X149426847Y-99824000D01*
X149352000Y-99809112D01*
X149277153Y-99824000D01*
X145870848Y-99824000D01*
X145796000Y-99809112D01*
X145721152Y-99824000D01*
X145721148Y-99824000D01*
X145547605Y-99858520D01*
X145499462Y-99868096D01*
X145312418Y-99993076D01*
X145248071Y-100036071D01*
X145205671Y-100099527D01*
X144667368Y-100637831D01*
X134186994Y-100637831D01*
X134114337Y-100529092D01*
X133833325Y-100341326D01*
X133501848Y-100275391D01*
X133064348Y-100275391D01*
X132732871Y-100341326D01*
X132570567Y-100449774D01*
X132505296Y-100384504D01*
X132271907Y-100287831D01*
X131993848Y-100287831D01*
X131835098Y-100446581D01*
X131835098Y-101270831D01*
X131855098Y-101270831D01*
X131855098Y-101524831D01*
X131835098Y-101524831D01*
X131835098Y-102349081D01*
X131993848Y-102507831D01*
X132271907Y-102507831D01*
X132429599Y-102442513D01*
X132429598Y-104322391D01*
X130939598Y-104322391D01*
X130691833Y-104371674D01*
X130481789Y-104512022D01*
X130341441Y-104722066D01*
X130292158Y-104969831D01*
X130292158Y-106936000D01*
X127587038Y-106936000D01*
X127587038Y-104969831D01*
X127537755Y-104722066D01*
X127397407Y-104512022D01*
X127187363Y-104371674D01*
X126939598Y-104322391D01*
X125449598Y-104322391D01*
X125449598Y-102442513D01*
X125607289Y-102507831D01*
X125885348Y-102507831D01*
X126044098Y-102349081D01*
X126044098Y-101524831D01*
X126298098Y-101524831D01*
X126298098Y-102349081D01*
X126456848Y-102507831D01*
X126734907Y-102507831D01*
X126968296Y-102411158D01*
X127146925Y-102232530D01*
X127243598Y-101999141D01*
X127243598Y-101683581D01*
X130635598Y-101683581D01*
X130635598Y-101999141D01*
X130732271Y-102232530D01*
X130910900Y-102411158D01*
X131144289Y-102507831D01*
X131422348Y-102507831D01*
X131581098Y-102349081D01*
X131581098Y-101524831D01*
X130794348Y-101524831D01*
X130635598Y-101683581D01*
X127243598Y-101683581D01*
X127084848Y-101524831D01*
X126298098Y-101524831D01*
X126044098Y-101524831D01*
X126024098Y-101524831D01*
X126024098Y-101270831D01*
X126044098Y-101270831D01*
X126044098Y-100446581D01*
X126298098Y-100446581D01*
X126298098Y-101270831D01*
X127084848Y-101270831D01*
X127243598Y-101112081D01*
X127243598Y-100796521D01*
X130635598Y-100796521D01*
X130635598Y-101112081D01*
X130794348Y-101270831D01*
X131581098Y-101270831D01*
X131581098Y-100446581D01*
X131422348Y-100287831D01*
X131144289Y-100287831D01*
X130910900Y-100384504D01*
X130732271Y-100563132D01*
X130635598Y-100796521D01*
X127243598Y-100796521D01*
X127146925Y-100563132D01*
X126968296Y-100384504D01*
X126734907Y-100287831D01*
X126456848Y-100287831D01*
X126298098Y-100446581D01*
X126044098Y-100446581D01*
X125885348Y-100287831D01*
X125607289Y-100287831D01*
X125373900Y-100384504D01*
X125308629Y-100449774D01*
X125146325Y-100341326D01*
X124814848Y-100275391D01*
X124377348Y-100275391D01*
X124045871Y-100341326D01*
X123764859Y-100529092D01*
X123577093Y-100810104D01*
X123511158Y-101141581D01*
X123511158Y-101654081D01*
X123577093Y-101985558D01*
X123764859Y-102266570D01*
X123929599Y-102376645D01*
X123929598Y-104322391D01*
X122439598Y-104322391D01*
X122191833Y-104371674D01*
X121981789Y-104512022D01*
X121841441Y-104722066D01*
X121792158Y-104969831D01*
X121792158Y-106969831D01*
X121841441Y-107217596D01*
X121981789Y-107427640D01*
X122191833Y-107567988D01*
X122439598Y-107617271D01*
X123954427Y-107617271D01*
X123973694Y-107714134D01*
X124141669Y-107965527D01*
X124205128Y-108007929D01*
X124377669Y-108180470D01*
X124420071Y-108243929D01*
X124671463Y-108411904D01*
X124893148Y-108456000D01*
X124893153Y-108456000D01*
X124968000Y-108470888D01*
X125042847Y-108456000D01*
X135561153Y-108456000D01*
X135636000Y-108470888D01*
X135710847Y-108456000D01*
X135710852Y-108456000D01*
X135932537Y-108411904D01*
X136183929Y-108243929D01*
X136226330Y-108180471D01*
X136400001Y-108006801D01*
X136400001Y-110669148D01*
X136385112Y-110744000D01*
X136444097Y-111040537D01*
X136546645Y-111194010D01*
X136612072Y-111291929D01*
X136675528Y-111334329D01*
X137019679Y-111678480D01*
X137062081Y-111741939D01*
X137313473Y-111909914D01*
X137535158Y-111954010D01*
X137535162Y-111954010D01*
X137610009Y-111968898D01*
X137684856Y-111954010D01*
X168259553Y-111954010D01*
X168334400Y-111968898D01*
X168409247Y-111954010D01*
X168409252Y-111954010D01*
X168630937Y-111909914D01*
X168882329Y-111741939D01*
X168924731Y-111678480D01*
X169590482Y-111012730D01*
X169653938Y-110970330D01*
X169821913Y-110718938D01*
X169866009Y-110497253D01*
X169866009Y-110497248D01*
X169880897Y-110422401D01*
X169866009Y-110347554D01*
X169866009Y-87900855D01*
X169880897Y-87826008D01*
X169866009Y-87751161D01*
X169866009Y-87751157D01*
X169821913Y-87529472D01*
X169653938Y-87278080D01*
X169590482Y-87235680D01*
X168387331Y-86032530D01*
X168344929Y-85969071D01*
X168093537Y-85801096D01*
X167871852Y-85757000D01*
X167871847Y-85757000D01*
X167797000Y-85742112D01*
X167722153Y-85757000D01*
X142386533Y-85757000D01*
X142310416Y-85643084D01*
X142021294Y-85449898D01*
X141984000Y-85442480D01*
X141984000Y-81786000D01*
X145300386Y-81786000D01*
X145317843Y-81873765D01*
X145458191Y-82083809D01*
X145668235Y-82224157D01*
X145916000Y-82273440D01*
X148416000Y-82273440D01*
X148663765Y-82224157D01*
X148873809Y-82083809D01*
X149014157Y-81873765D01*
X149063440Y-81626000D01*
X149063440Y-81311750D01*
X157781000Y-81311750D01*
X157781000Y-81752310D01*
X157877673Y-81985699D01*
X158056302Y-82164327D01*
X158289691Y-82261000D01*
X159380250Y-82261000D01*
X159539000Y-82102250D01*
X159539000Y-81153000D01*
X159793000Y-81153000D01*
X159793000Y-82102250D01*
X159951750Y-82261000D01*
X161042309Y-82261000D01*
X161275698Y-82164327D01*
X161454327Y-81985699D01*
X161551000Y-81752310D01*
X161551000Y-81311750D01*
X161392250Y-81153000D01*
X159793000Y-81153000D01*
X159539000Y-81153000D01*
X157939750Y-81153000D01*
X157781000Y-81311750D01*
X149063440Y-81311750D01*
X149063440Y-80426000D01*
X149038316Y-80299690D01*
X157781000Y-80299690D01*
X157781000Y-80740250D01*
X157939750Y-80899000D01*
X159539000Y-80899000D01*
X159539000Y-79949750D01*
X159793000Y-79949750D01*
X159793000Y-80899000D01*
X161392250Y-80899000D01*
X161551000Y-80740250D01*
X161551000Y-80299690D01*
X161454327Y-80066301D01*
X161275698Y-79887673D01*
X161042309Y-79791000D01*
X159951750Y-79791000D01*
X159793000Y-79949750D01*
X159539000Y-79949750D01*
X159380250Y-79791000D01*
X158289691Y-79791000D01*
X158056302Y-79887673D01*
X157877673Y-80066301D01*
X157781000Y-80299690D01*
X149038316Y-80299690D01*
X149014157Y-80178235D01*
X148873809Y-79968191D01*
X148663765Y-79827843D01*
X148416000Y-79778560D01*
X145916000Y-79778560D01*
X145668235Y-79827843D01*
X145458191Y-79968191D01*
X145317843Y-80178235D01*
X145300386Y-80266000D01*
X141552846Y-80266000D01*
X141477999Y-80251112D01*
X141403152Y-80266000D01*
X141403148Y-80266000D01*
X141181463Y-80310096D01*
X140930071Y-80478071D01*
X140887669Y-80541530D01*
X140739528Y-80689671D01*
X140676072Y-80732071D01*
X140633672Y-80795527D01*
X140633671Y-80795528D01*
X140508097Y-80983463D01*
X140449112Y-81280000D01*
X140464001Y-81354852D01*
X140464000Y-85442480D01*
X140426706Y-85449898D01*
X140137584Y-85643084D01*
X139944398Y-85932206D01*
X139876560Y-86273250D01*
X139876560Y-86760750D01*
X139944398Y-87101794D01*
X140137584Y-87390916D01*
X140232744Y-87454500D01*
X140137584Y-87518084D01*
X140061467Y-87632000D01*
X136061440Y-87632000D01*
X136061440Y-85916999D01*
X135993127Y-85573564D01*
X135798586Y-85282414D01*
X135507436Y-85087873D01*
X135164001Y-85019560D01*
X133738999Y-85019560D01*
X133395564Y-85087873D01*
X133104414Y-85282414D01*
X132909873Y-85573564D01*
X132841560Y-85916999D01*
X132841560Y-90867001D01*
X132909873Y-91210436D01*
X133104414Y-91501586D01*
X133369932Y-91679000D01*
X128758068Y-91679000D01*
X129023586Y-91501586D01*
X129218127Y-91210436D01*
X129286440Y-90867001D01*
X129286440Y-85916999D01*
X129218127Y-85573564D01*
X129023586Y-85282414D01*
X128732436Y-85087873D01*
X128389001Y-85019560D01*
X128346500Y-85019560D01*
X128346500Y-84474533D01*
X128460416Y-84398416D01*
X128524000Y-84303256D01*
X128587584Y-84398416D01*
X128876706Y-84591602D01*
X129217750Y-84659440D01*
X129705250Y-84659440D01*
X130046294Y-84591602D01*
X130335416Y-84398416D01*
X130528602Y-84109294D01*
X130536020Y-84072000D01*
X131404604Y-84072000D01*
X131477261Y-84180739D01*
X131758273Y-84368505D01*
X132089750Y-84434440D01*
X132527250Y-84434440D01*
X132858727Y-84368505D01*
X133021031Y-84260057D01*
X133086302Y-84325327D01*
X133319691Y-84422000D01*
X133597750Y-84422000D01*
X133756500Y-84263250D01*
X133756500Y-83439000D01*
X134010500Y-83439000D01*
X134010500Y-84263250D01*
X134169250Y-84422000D01*
X134447309Y-84422000D01*
X134680698Y-84325327D01*
X134859327Y-84146699D01*
X134956000Y-83913310D01*
X134956000Y-83597750D01*
X134797250Y-83439000D01*
X134010500Y-83439000D01*
X133756500Y-83439000D01*
X133736500Y-83439000D01*
X133736500Y-83185000D01*
X133756500Y-83185000D01*
X133756500Y-82360750D01*
X134010500Y-82360750D01*
X134010500Y-83185000D01*
X134797250Y-83185000D01*
X134956000Y-83026250D01*
X134956000Y-82710690D01*
X134859327Y-82477301D01*
X134680698Y-82298673D01*
X134447309Y-82202000D01*
X134169250Y-82202000D01*
X134010500Y-82360750D01*
X133756500Y-82360750D01*
X133597750Y-82202000D01*
X133319691Y-82202000D01*
X133086302Y-82298673D01*
X133021031Y-82363943D01*
X132858727Y-82255495D01*
X132527250Y-82189560D01*
X132089750Y-82189560D01*
X131758273Y-82255495D01*
X131477261Y-82443261D01*
X131404604Y-82552000D01*
X130536020Y-82552000D01*
X130528602Y-82514706D01*
X130335416Y-82225584D01*
X130046294Y-82032398D01*
X129705250Y-81964560D01*
X129217750Y-81964560D01*
X128876706Y-82032398D01*
X128587584Y-82225584D01*
X128524000Y-82320744D01*
X128460416Y-82225584D01*
X128171294Y-82032398D01*
X127830250Y-81964560D01*
X127342750Y-81964560D01*
X127001706Y-82032398D01*
X126712584Y-82225584D01*
X126519398Y-82514706D01*
X126511980Y-82552000D01*
X125062080Y-82552000D01*
X125038416Y-82516584D01*
X124749294Y-82323398D01*
X124408250Y-82255560D01*
X123495750Y-82255560D01*
X123154706Y-82323398D01*
X122865584Y-82516584D01*
X122672398Y-82805706D01*
X122604560Y-83146750D01*
X122604560Y-83634250D01*
X122672398Y-83975294D01*
X122865584Y-84264416D01*
X122866767Y-84265207D01*
X122713673Y-84418302D01*
X122617000Y-84651691D01*
X122617000Y-84979750D01*
X122775750Y-85138500D01*
X123825000Y-85138500D01*
X123825000Y-85118500D01*
X124079000Y-85118500D01*
X124079000Y-85138500D01*
X125128250Y-85138500D01*
X125287000Y-84979750D01*
X125287000Y-84651691D01*
X125190327Y-84418302D01*
X125037233Y-84265207D01*
X125038416Y-84264416D01*
X125166985Y-84072000D01*
X126511980Y-84072000D01*
X126519398Y-84109294D01*
X126712584Y-84398416D01*
X126826500Y-84474533D01*
X126826500Y-85046910D01*
X126620564Y-85087873D01*
X126329414Y-85282414D01*
X126134873Y-85573564D01*
X126066560Y-85916999D01*
X126066560Y-87632000D01*
X126058848Y-87632000D01*
X125984000Y-87617112D01*
X125909152Y-87632000D01*
X125909148Y-87632000D01*
X125687463Y-87676096D01*
X125436071Y-87844071D01*
X125393669Y-87907530D01*
X125075528Y-88225671D01*
X125012072Y-88268071D01*
X124969672Y-88331527D01*
X124969671Y-88331528D01*
X124844097Y-88519463D01*
X124785112Y-88816000D01*
X124800001Y-88890851D01*
X124800000Y-90109198D01*
X124310000Y-90599199D01*
X124310000Y-90516998D01*
X124151252Y-90516998D01*
X124310000Y-90358250D01*
X124310000Y-89942691D01*
X124213327Y-89709302D01*
X124034699Y-89530673D01*
X123801310Y-89434000D01*
X123235750Y-89434000D01*
X123077000Y-89592750D01*
X123077000Y-90517000D01*
X123097000Y-90517000D01*
X123097000Y-90771000D01*
X123077000Y-90771000D01*
X123077000Y-90791000D01*
X122823000Y-90791000D01*
X122823000Y-90771000D01*
X122803000Y-90771000D01*
X122803000Y-90517000D01*
X122823000Y-90517000D01*
X122823000Y-89592750D01*
X122664250Y-89434000D01*
X122098690Y-89434000D01*
X121900725Y-89516000D01*
X120847000Y-89516000D01*
X120593000Y-89516000D01*
X119301837Y-89516000D01*
X119176036Y-89694810D01*
X119384954Y-90119441D01*
X119637681Y-90331489D01*
X119410301Y-90425673D01*
X119231673Y-90604302D01*
X119135000Y-90837691D01*
X118999000Y-90837691D01*
X118999000Y-89083190D01*
X119176036Y-89083190D01*
X119301837Y-89262000D01*
X120593000Y-89262000D01*
X120593000Y-88229000D01*
X120847000Y-88229000D01*
X120847000Y-89262000D01*
X122138163Y-89262000D01*
X122263964Y-89083190D01*
X122055046Y-88658559D01*
X121706245Y-88365901D01*
X121272000Y-88229000D01*
X120847000Y-88229000D01*
X120593000Y-88229000D01*
X120168000Y-88229000D01*
X119733755Y-88365901D01*
X119384954Y-88658559D01*
X119176036Y-89083190D01*
X118999000Y-89083190D01*
X118999000Y-85551250D01*
X122617000Y-85551250D01*
X122617000Y-85879309D01*
X122713673Y-86112698D01*
X122892301Y-86291327D01*
X123125690Y-86388000D01*
X123666250Y-86388000D01*
X123825000Y-86229250D01*
X123825000Y-85392500D01*
X124079000Y-85392500D01*
X124079000Y-86229250D01*
X124237750Y-86388000D01*
X124778310Y-86388000D01*
X125011699Y-86291327D01*
X125190327Y-86112698D01*
X125287000Y-85879309D01*
X125287000Y-85551250D01*
X125128250Y-85392500D01*
X124079000Y-85392500D01*
X123825000Y-85392500D01*
X122775750Y-85392500D01*
X122617000Y-85551250D01*
X118999000Y-85551250D01*
X118999000Y-79375000D01*
X170053000Y-79375000D01*
X170053000Y-112141000D01*
X170053000Y-112141000D01*
G37*
X170053000Y-112141000D02*
X118999000Y-112141000D01*
X118999000Y-96844810D01*
X119176036Y-96844810D01*
X119384954Y-97269441D01*
X119733755Y-97562099D01*
X120168000Y-97699000D01*
X120593000Y-97699000D01*
X120593000Y-96666000D01*
X120847000Y-96666000D01*
X120847000Y-97699000D01*
X121272000Y-97699000D01*
X121706245Y-97562099D01*
X122002236Y-97313750D01*
X126496000Y-97313750D01*
X126496000Y-98029310D01*
X126592673Y-98262699D01*
X126771302Y-98441327D01*
X127004691Y-98538000D01*
X127470250Y-98538000D01*
X127629000Y-98379250D01*
X127629000Y-97155000D01*
X127883000Y-97155000D01*
X127883000Y-98379250D01*
X128041750Y-98538000D01*
X128507309Y-98538000D01*
X128740698Y-98441327D01*
X128919327Y-98262699D01*
X129016000Y-98029310D01*
X129016000Y-97313750D01*
X128857250Y-97155000D01*
X127883000Y-97155000D01*
X127629000Y-97155000D01*
X126654750Y-97155000D01*
X126496000Y-97313750D01*
X122002236Y-97313750D01*
X122055046Y-97269441D01*
X122263964Y-96844810D01*
X122138163Y-96666000D01*
X120847000Y-96666000D01*
X120593000Y-96666000D01*
X119301837Y-96666000D01*
X119176036Y-96844810D01*
X118999000Y-96844810D01*
X118999000Y-94374750D01*
X119135000Y-94374750D01*
X119135000Y-95090309D01*
X119231673Y-95323698D01*
X119410301Y-95502327D01*
X119637681Y-95596511D01*
X119384954Y-95808559D01*
X119176036Y-96233190D01*
X119301837Y-96412000D01*
X120593000Y-96412000D01*
X120593000Y-94216000D01*
X119293750Y-94216000D01*
X119135000Y-94374750D01*
X118999000Y-94374750D01*
X118999000Y-92124750D01*
X119135000Y-92124750D01*
X119135000Y-92840309D01*
X119186235Y-92964000D01*
X119135000Y-93087691D01*
X119135000Y-93803250D01*
X119293750Y-93962000D01*
X120593000Y-93962000D01*
X120593000Y-91966000D01*
X119293750Y-91966000D01*
X119135000Y-92124750D01*
X118999000Y-92124750D01*
X118999000Y-90837691D01*
X119135000Y-90837691D01*
X119135000Y-91553250D01*
X119293750Y-91712000D01*
X120593000Y-91712000D01*
X120593000Y-89516000D01*
X120847000Y-89516000D01*
X120847000Y-91712000D01*
X120867000Y-91712000D01*
X120867000Y-91966000D01*
X120847000Y-91966000D01*
X120847000Y-93962000D01*
X120867000Y-93962000D01*
X120867000Y-94216000D01*
X120847000Y-94216000D01*
X120847000Y-96412000D01*
X121900725Y-96412000D01*
X122098690Y-96494000D01*
X122664250Y-96494000D01*
X122823000Y-96335250D01*
X122823000Y-95411000D01*
X123077000Y-95411000D01*
X123077000Y-96335250D01*
X123235750Y-96494000D01*
X123801310Y-96494000D01*
X124034699Y-96397327D01*
X124213327Y-96218698D01*
X124292859Y-96026690D01*
X126496000Y-96026690D01*
X126496000Y-96742250D01*
X126654750Y-96901000D01*
X127629000Y-96901000D01*
X127629000Y-95676750D01*
X127883000Y-95676750D01*
X127883000Y-96901000D01*
X128857250Y-96901000D01*
X129016000Y-96742250D01*
X129016000Y-96026690D01*
X128919327Y-95793301D01*
X128740698Y-95614673D01*
X128507309Y-95518000D01*
X128041750Y-95518000D01*
X127883000Y-95676750D01*
X127629000Y-95676750D01*
X127470250Y-95518000D01*
X127004691Y-95518000D01*
X126771302Y-95614673D01*
X126592673Y-95793301D01*
X126496000Y-96026690D01*
X124292859Y-96026690D01*
X124310000Y-95985309D01*
X124310000Y-95569750D01*
X124151250Y-95411000D01*
X123077000Y-95411000D01*
X122823000Y-95411000D01*
X122803000Y-95411000D01*
X122803000Y-95157000D01*
X122823000Y-95157000D01*
X122823000Y-95137000D01*
X123077000Y-95137000D01*
X123077000Y-95157000D01*
X124151250Y-95157000D01*
X124218400Y-95089850D01*
X124429699Y-95002327D01*
X124608327Y-94823698D01*
X124705000Y-94590309D01*
X124705000Y-94522750D01*
X124546250Y-94364000D01*
X124389836Y-94364000D01*
X124527809Y-94271809D01*
X124668157Y-94061765D01*
X124673042Y-94037208D01*
X124705000Y-94005250D01*
X124705000Y-93937691D01*
X124696783Y-93917853D01*
X124717440Y-93814000D01*
X124717440Y-93649234D01*
X124792620Y-93599000D01*
X142585816Y-93599000D01*
X142658200Y-93613398D01*
X142730584Y-93599000D01*
X142730588Y-93599000D01*
X142944983Y-93556354D01*
X143188105Y-93393905D01*
X143229111Y-93332535D01*
X144669647Y-91892000D01*
X146471974Y-91892000D01*
X146354673Y-92009302D01*
X146258000Y-92242691D01*
X146258000Y-93058250D01*
X146416750Y-93217000D01*
X147066000Y-93217000D01*
X147066000Y-93197000D01*
X147320000Y-93197000D01*
X147320000Y-93217000D01*
X147340000Y-93217000D01*
X147340000Y-93471000D01*
X147320000Y-93471000D01*
X147320000Y-93491000D01*
X147066000Y-93491000D01*
X147066000Y-93471000D01*
X146416750Y-93471000D01*
X146258000Y-93629750D01*
X146258000Y-94334011D01*
X131040835Y-94334011D01*
X130965988Y-94319123D01*
X130891141Y-94334011D01*
X130891137Y-94334011D01*
X130669452Y-94378107D01*
X130418060Y-94546082D01*
X130375658Y-94609541D01*
X130071528Y-94913671D01*
X130008072Y-94956071D01*
X129965672Y-95019527D01*
X129965671Y-95019528D01*
X129840097Y-95207463D01*
X129781112Y-95504000D01*
X129796001Y-95578851D01*
X129796001Y-95601646D01*
X129546414Y-95768414D01*
X129351874Y-96059565D01*
X129283560Y-96403000D01*
X129283560Y-97653000D01*
X129351874Y-97996435D01*
X129546414Y-98287586D01*
X129837565Y-98482126D01*
X130181000Y-98550440D01*
X130931000Y-98550440D01*
X131274435Y-98482126D01*
X131565586Y-98287586D01*
X131760126Y-97996435D01*
X131828440Y-97653000D01*
X131828440Y-96403000D01*
X131760126Y-96059565D01*
X131622780Y-95854011D01*
X150703142Y-95854011D01*
X150777989Y-95868899D01*
X150852836Y-95854011D01*
X150852841Y-95854011D01*
X151074526Y-95809915D01*
X151325918Y-95641940D01*
X151368320Y-95578481D01*
X151487470Y-95459331D01*
X151550929Y-95416929D01*
X151718904Y-95165537D01*
X151763000Y-94943852D01*
X151763000Y-94943848D01*
X151766670Y-94925399D01*
X151973000Y-94966440D01*
X152573000Y-94966440D01*
X152820765Y-94917157D01*
X152908000Y-94858868D01*
X152995235Y-94917157D01*
X153243000Y-94966440D01*
X153843000Y-94966440D01*
X154053000Y-94924669D01*
X154053000Y-95810153D01*
X154038112Y-95885000D01*
X154053000Y-95959847D01*
X154053000Y-95959851D01*
X154097096Y-96181536D01*
X154265071Y-96432929D01*
X154328530Y-96475331D01*
X154349669Y-96496470D01*
X154392071Y-96559929D01*
X154643463Y-96727904D01*
X154714279Y-96741990D01*
X154861720Y-96889431D01*
X155242126Y-97047000D01*
X155653874Y-97047000D01*
X156034280Y-96889431D01*
X156325431Y-96598280D01*
X156483000Y-96217874D01*
X156483000Y-95806126D01*
X156325431Y-95425720D01*
X156034280Y-95134569D01*
X155653874Y-94977000D01*
X155573000Y-94977000D01*
X155573000Y-94924669D01*
X155783000Y-94966440D01*
X156383000Y-94966440D01*
X156593001Y-94924669D01*
X156593001Y-95359833D01*
X156578112Y-95434685D01*
X156593001Y-95509537D01*
X156637097Y-95731222D01*
X156805072Y-95982614D01*
X156846621Y-96010377D01*
X156874386Y-96051929D01*
X157125778Y-96219904D01*
X157198774Y-96234424D01*
X156868530Y-96564669D01*
X156805071Y-96607071D01*
X156637096Y-96858464D01*
X156593000Y-97080149D01*
X156593000Y-97080153D01*
X156578112Y-97155000D01*
X156593000Y-97229847D01*
X156593001Y-101163331D01*
X156383000Y-101121560D01*
X155783000Y-101121560D01*
X155535235Y-101170843D01*
X155448000Y-101229132D01*
X155360765Y-101170843D01*
X155113000Y-101121560D01*
X154513000Y-101121560D01*
X154265235Y-101170843D01*
X154178000Y-101229132D01*
X154090765Y-101170843D01*
X153843000Y-101121560D01*
X153243000Y-101121560D01*
X152995235Y-101170843D01*
X152908000Y-101229132D01*
X152820765Y-101170843D01*
X152573000Y-101121560D01*
X151973000Y-101121560D01*
X151725235Y-101170843D01*
X151638000Y-101229132D01*
X151550765Y-101170843D01*
X151303000Y-101121560D01*
X150703000Y-101121560D01*
X150493000Y-101163331D01*
X150493000Y-101039846D01*
X150507888Y-100964999D01*
X150493000Y-100890152D01*
X150493000Y-100890148D01*
X150448904Y-100668463D01*
X150280929Y-100417071D01*
X150217473Y-100374671D01*
X149942331Y-100099529D01*
X149899929Y-100036071D01*
X149648537Y-99868096D01*
X149426852Y-99824000D01*
X149426847Y-99824000D01*
X149352000Y-99809112D01*
X149277153Y-99824000D01*
X145870848Y-99824000D01*
X145796000Y-99809112D01*
X145721152Y-99824000D01*
X145721148Y-99824000D01*
X145547605Y-99858520D01*
X145499462Y-99868096D01*
X145312418Y-99993076D01*
X145248071Y-100036071D01*
X145205671Y-100099527D01*
X144667368Y-100637831D01*
X134186994Y-100637831D01*
X134114337Y-100529092D01*
X133833325Y-100341326D01*
X133501848Y-100275391D01*
X133064348Y-100275391D01*
X132732871Y-100341326D01*
X132570567Y-100449774D01*
X132505296Y-100384504D01*
X132271907Y-100287831D01*
X131993848Y-100287831D01*
X131835098Y-100446581D01*
X131835098Y-101270831D01*
X131855098Y-101270831D01*
X131855098Y-101524831D01*
X131835098Y-101524831D01*
X131835098Y-102349081D01*
X131993848Y-102507831D01*
X132271907Y-102507831D01*
X132429599Y-102442513D01*
X132429598Y-104322391D01*
X130939598Y-104322391D01*
X130691833Y-104371674D01*
X130481789Y-104512022D01*
X130341441Y-104722066D01*
X130292158Y-104969831D01*
X130292158Y-106936000D01*
X127587038Y-106936000D01*
X127587038Y-104969831D01*
X127537755Y-104722066D01*
X127397407Y-104512022D01*
X127187363Y-104371674D01*
X126939598Y-104322391D01*
X125449598Y-104322391D01*
X125449598Y-102442513D01*
X125607289Y-102507831D01*
X125885348Y-102507831D01*
X126044098Y-102349081D01*
X126044098Y-101524831D01*
X126298098Y-101524831D01*
X126298098Y-102349081D01*
X126456848Y-102507831D01*
X126734907Y-102507831D01*
X126968296Y-102411158D01*
X127146925Y-102232530D01*
X127243598Y-101999141D01*
X127243598Y-101683581D01*
X130635598Y-101683581D01*
X130635598Y-101999141D01*
X130732271Y-102232530D01*
X130910900Y-102411158D01*
X131144289Y-102507831D01*
X131422348Y-102507831D01*
X131581098Y-102349081D01*
X131581098Y-101524831D01*
X130794348Y-101524831D01*
X130635598Y-101683581D01*
X127243598Y-101683581D01*
X127084848Y-101524831D01*
X126298098Y-101524831D01*
X126044098Y-101524831D01*
X126024098Y-101524831D01*
X126024098Y-101270831D01*
X126044098Y-101270831D01*
X126044098Y-100446581D01*
X126298098Y-100446581D01*
X126298098Y-101270831D01*
X127084848Y-101270831D01*
X127243598Y-101112081D01*
X127243598Y-100796521D01*
X130635598Y-100796521D01*
X130635598Y-101112081D01*
X130794348Y-101270831D01*
X131581098Y-101270831D01*
X131581098Y-100446581D01*
X131422348Y-100287831D01*
X131144289Y-100287831D01*
X130910900Y-100384504D01*
X130732271Y-100563132D01*
X130635598Y-100796521D01*
X127243598Y-100796521D01*
X127146925Y-100563132D01*
X126968296Y-100384504D01*
X126734907Y-100287831D01*
X126456848Y-100287831D01*
X126298098Y-100446581D01*
X126044098Y-100446581D01*
X125885348Y-100287831D01*
X125607289Y-100287831D01*
X125373900Y-100384504D01*
X125308629Y-100449774D01*
X125146325Y-100341326D01*
X124814848Y-100275391D01*
X124377348Y-100275391D01*
X124045871Y-100341326D01*
X123764859Y-100529092D01*
X123577093Y-100810104D01*
X123511158Y-101141581D01*
X123511158Y-101654081D01*
X123577093Y-101985558D01*
X123764859Y-102266570D01*
X123929599Y-102376645D01*
X123929598Y-104322391D01*
X122439598Y-104322391D01*
X122191833Y-104371674D01*
X121981789Y-104512022D01*
X121841441Y-104722066D01*
X121792158Y-104969831D01*
X121792158Y-106969831D01*
X121841441Y-107217596D01*
X121981789Y-107427640D01*
X122191833Y-107567988D01*
X122439598Y-107617271D01*
X123954427Y-107617271D01*
X123973694Y-107714134D01*
X124141669Y-107965527D01*
X124205128Y-108007929D01*
X124377669Y-108180470D01*
X124420071Y-108243929D01*
X124671463Y-108411904D01*
X124893148Y-108456000D01*
X124893153Y-108456000D01*
X124968000Y-108470888D01*
X125042847Y-108456000D01*
X135561153Y-108456000D01*
X135636000Y-108470888D01*
X135710847Y-108456000D01*
X135710852Y-108456000D01*
X135932537Y-108411904D01*
X136183929Y-108243929D01*
X136226330Y-108180471D01*
X136400001Y-108006801D01*
X136400001Y-110669148D01*
X136385112Y-110744000D01*
X136444097Y-111040537D01*
X136546645Y-111194010D01*
X136612072Y-111291929D01*
X136675528Y-111334329D01*
X137019679Y-111678480D01*
X137062081Y-111741939D01*
X137313473Y-111909914D01*
X137535158Y-111954010D01*
X137535162Y-111954010D01*
X137610009Y-111968898D01*
X137684856Y-111954010D01*
X168259553Y-111954010D01*
X168334400Y-111968898D01*
X168409247Y-111954010D01*
X168409252Y-111954010D01*
X168630937Y-111909914D01*
X168882329Y-111741939D01*
X168924731Y-111678480D01*
X169590482Y-111012730D01*
X169653938Y-110970330D01*
X169821913Y-110718938D01*
X169866009Y-110497253D01*
X169866009Y-110497248D01*
X169880897Y-110422401D01*
X169866009Y-110347554D01*
X169866009Y-87900855D01*
X169880897Y-87826008D01*
X169866009Y-87751161D01*
X169866009Y-87751157D01*
X169821913Y-87529472D01*
X169653938Y-87278080D01*
X169590482Y-87235680D01*
X168387331Y-86032530D01*
X168344929Y-85969071D01*
X168093537Y-85801096D01*
X167871852Y-85757000D01*
X167871847Y-85757000D01*
X167797000Y-85742112D01*
X167722153Y-85757000D01*
X142386533Y-85757000D01*
X142310416Y-85643084D01*
X142021294Y-85449898D01*
X141984000Y-85442480D01*
X141984000Y-81786000D01*
X145300386Y-81786000D01*
X145317843Y-81873765D01*
X145458191Y-82083809D01*
X145668235Y-82224157D01*
X145916000Y-82273440D01*
X148416000Y-82273440D01*
X148663765Y-82224157D01*
X148873809Y-82083809D01*
X149014157Y-81873765D01*
X149063440Y-81626000D01*
X149063440Y-81311750D01*
X157781000Y-81311750D01*
X157781000Y-81752310D01*
X157877673Y-81985699D01*
X158056302Y-82164327D01*
X158289691Y-82261000D01*
X159380250Y-82261000D01*
X159539000Y-82102250D01*
X159539000Y-81153000D01*
X159793000Y-81153000D01*
X159793000Y-82102250D01*
X159951750Y-82261000D01*
X161042309Y-82261000D01*
X161275698Y-82164327D01*
X161454327Y-81985699D01*
X161551000Y-81752310D01*
X161551000Y-81311750D01*
X161392250Y-81153000D01*
X159793000Y-81153000D01*
X159539000Y-81153000D01*
X157939750Y-81153000D01*
X157781000Y-81311750D01*
X149063440Y-81311750D01*
X149063440Y-80426000D01*
X149038316Y-80299690D01*
X157781000Y-80299690D01*
X157781000Y-80740250D01*
X157939750Y-80899000D01*
X159539000Y-80899000D01*
X159539000Y-79949750D01*
X159793000Y-79949750D01*
X159793000Y-80899000D01*
X161392250Y-80899000D01*
X161551000Y-80740250D01*
X161551000Y-80299690D01*
X161454327Y-80066301D01*
X161275698Y-79887673D01*
X161042309Y-79791000D01*
X159951750Y-79791000D01*
X159793000Y-79949750D01*
X159539000Y-79949750D01*
X159380250Y-79791000D01*
X158289691Y-79791000D01*
X158056302Y-79887673D01*
X157877673Y-80066301D01*
X157781000Y-80299690D01*
X149038316Y-80299690D01*
X149014157Y-80178235D01*
X148873809Y-79968191D01*
X148663765Y-79827843D01*
X148416000Y-79778560D01*
X145916000Y-79778560D01*
X145668235Y-79827843D01*
X145458191Y-79968191D01*
X145317843Y-80178235D01*
X145300386Y-80266000D01*
X141552846Y-80266000D01*
X141477999Y-80251112D01*
X141403152Y-80266000D01*
X141403148Y-80266000D01*
X141181463Y-80310096D01*
X140930071Y-80478071D01*
X140887669Y-80541530D01*
X140739528Y-80689671D01*
X140676072Y-80732071D01*
X140633672Y-80795527D01*
X140633671Y-80795528D01*
X140508097Y-80983463D01*
X140449112Y-81280000D01*
X140464001Y-81354852D01*
X140464000Y-85442480D01*
X140426706Y-85449898D01*
X140137584Y-85643084D01*
X139944398Y-85932206D01*
X139876560Y-86273250D01*
X139876560Y-86760750D01*
X139944398Y-87101794D01*
X140137584Y-87390916D01*
X140232744Y-87454500D01*
X140137584Y-87518084D01*
X140061467Y-87632000D01*
X136061440Y-87632000D01*
X136061440Y-85916999D01*
X135993127Y-85573564D01*
X135798586Y-85282414D01*
X135507436Y-85087873D01*
X135164001Y-85019560D01*
X133738999Y-85019560D01*
X133395564Y-85087873D01*
X133104414Y-85282414D01*
X132909873Y-85573564D01*
X132841560Y-85916999D01*
X132841560Y-90867001D01*
X132909873Y-91210436D01*
X133104414Y-91501586D01*
X133369932Y-91679000D01*
X128758068Y-91679000D01*
X129023586Y-91501586D01*
X129218127Y-91210436D01*
X129286440Y-90867001D01*
X129286440Y-85916999D01*
X129218127Y-85573564D01*
X129023586Y-85282414D01*
X128732436Y-85087873D01*
X128389001Y-85019560D01*
X128346500Y-85019560D01*
X128346500Y-84474533D01*
X128460416Y-84398416D01*
X128524000Y-84303256D01*
X128587584Y-84398416D01*
X128876706Y-84591602D01*
X129217750Y-84659440D01*
X129705250Y-84659440D01*
X130046294Y-84591602D01*
X130335416Y-84398416D01*
X130528602Y-84109294D01*
X130536020Y-84072000D01*
X131404604Y-84072000D01*
X131477261Y-84180739D01*
X131758273Y-84368505D01*
X132089750Y-84434440D01*
X132527250Y-84434440D01*
X132858727Y-84368505D01*
X133021031Y-84260057D01*
X133086302Y-84325327D01*
X133319691Y-84422000D01*
X133597750Y-84422000D01*
X133756500Y-84263250D01*
X133756500Y-83439000D01*
X134010500Y-83439000D01*
X134010500Y-84263250D01*
X134169250Y-84422000D01*
X134447309Y-84422000D01*
X134680698Y-84325327D01*
X134859327Y-84146699D01*
X134956000Y-83913310D01*
X134956000Y-83597750D01*
X134797250Y-83439000D01*
X134010500Y-83439000D01*
X133756500Y-83439000D01*
X133736500Y-83439000D01*
X133736500Y-83185000D01*
X133756500Y-83185000D01*
X133756500Y-82360750D01*
X134010500Y-82360750D01*
X134010500Y-83185000D01*
X134797250Y-83185000D01*
X134956000Y-83026250D01*
X134956000Y-82710690D01*
X134859327Y-82477301D01*
X134680698Y-82298673D01*
X134447309Y-82202000D01*
X134169250Y-82202000D01*
X134010500Y-82360750D01*
X133756500Y-82360750D01*
X133597750Y-82202000D01*
X133319691Y-82202000D01*
X133086302Y-82298673D01*
X133021031Y-82363943D01*
X132858727Y-82255495D01*
X132527250Y-82189560D01*
X132089750Y-82189560D01*
X131758273Y-82255495D01*
X131477261Y-82443261D01*
X131404604Y-82552000D01*
X130536020Y-82552000D01*
X130528602Y-82514706D01*
X130335416Y-82225584D01*
X130046294Y-82032398D01*
X129705250Y-81964560D01*
X129217750Y-81964560D01*
X128876706Y-82032398D01*
X128587584Y-82225584D01*
X128524000Y-82320744D01*
X128460416Y-82225584D01*
X128171294Y-82032398D01*
X127830250Y-81964560D01*
X127342750Y-81964560D01*
X127001706Y-82032398D01*
X126712584Y-82225584D01*
X126519398Y-82514706D01*
X126511980Y-82552000D01*
X125062080Y-82552000D01*
X125038416Y-82516584D01*
X124749294Y-82323398D01*
X124408250Y-82255560D01*
X123495750Y-82255560D01*
X123154706Y-82323398D01*
X122865584Y-82516584D01*
X122672398Y-82805706D01*
X122604560Y-83146750D01*
X122604560Y-83634250D01*
X122672398Y-83975294D01*
X122865584Y-84264416D01*
X122866767Y-84265207D01*
X122713673Y-84418302D01*
X122617000Y-84651691D01*
X122617000Y-84979750D01*
X122775750Y-85138500D01*
X123825000Y-85138500D01*
X123825000Y-85118500D01*
X124079000Y-85118500D01*
X124079000Y-85138500D01*
X125128250Y-85138500D01*
X125287000Y-84979750D01*
X125287000Y-84651691D01*
X125190327Y-84418302D01*
X125037233Y-84265207D01*
X125038416Y-84264416D01*
X125166985Y-84072000D01*
X126511980Y-84072000D01*
X126519398Y-84109294D01*
X126712584Y-84398416D01*
X126826500Y-84474533D01*
X126826500Y-85046910D01*
X126620564Y-85087873D01*
X126329414Y-85282414D01*
X126134873Y-85573564D01*
X126066560Y-85916999D01*
X126066560Y-87632000D01*
X126058848Y-87632000D01*
X125984000Y-87617112D01*
X125909152Y-87632000D01*
X125909148Y-87632000D01*
X125687463Y-87676096D01*
X125436071Y-87844071D01*
X125393669Y-87907530D01*
X125075528Y-88225671D01*
X125012072Y-88268071D01*
X124969672Y-88331527D01*
X124969671Y-88331528D01*
X124844097Y-88519463D01*
X124785112Y-88816000D01*
X124800001Y-88890851D01*
X124800000Y-90109198D01*
X124310000Y-90599199D01*
X124310000Y-90516998D01*
X124151252Y-90516998D01*
X124310000Y-90358250D01*
X124310000Y-89942691D01*
X124213327Y-89709302D01*
X124034699Y-89530673D01*
X123801310Y-89434000D01*
X123235750Y-89434000D01*
X123077000Y-89592750D01*
X123077000Y-90517000D01*
X123097000Y-90517000D01*
X123097000Y-90771000D01*
X123077000Y-90771000D01*
X123077000Y-90791000D01*
X122823000Y-90791000D01*
X122823000Y-90771000D01*
X122803000Y-90771000D01*
X122803000Y-90517000D01*
X122823000Y-90517000D01*
X122823000Y-89592750D01*
X122664250Y-89434000D01*
X122098690Y-89434000D01*
X121900725Y-89516000D01*
X120847000Y-89516000D01*
X120593000Y-89516000D01*
X119301837Y-89516000D01*
X119176036Y-89694810D01*
X119384954Y-90119441D01*
X119637681Y-90331489D01*
X119410301Y-90425673D01*
X119231673Y-90604302D01*
X119135000Y-90837691D01*
X118999000Y-90837691D01*
X118999000Y-89083190D01*
X119176036Y-89083190D01*
X119301837Y-89262000D01*
X120593000Y-89262000D01*
X120593000Y-88229000D01*
X120847000Y-88229000D01*
X120847000Y-89262000D01*
X122138163Y-89262000D01*
X122263964Y-89083190D01*
X122055046Y-88658559D01*
X121706245Y-88365901D01*
X121272000Y-88229000D01*
X120847000Y-88229000D01*
X120593000Y-88229000D01*
X120168000Y-88229000D01*
X119733755Y-88365901D01*
X119384954Y-88658559D01*
X119176036Y-89083190D01*
X118999000Y-89083190D01*
X118999000Y-85551250D01*
X122617000Y-85551250D01*
X122617000Y-85879309D01*
X122713673Y-86112698D01*
X122892301Y-86291327D01*
X123125690Y-86388000D01*
X123666250Y-86388000D01*
X123825000Y-86229250D01*
X123825000Y-85392500D01*
X124079000Y-85392500D01*
X124079000Y-86229250D01*
X124237750Y-86388000D01*
X124778310Y-86388000D01*
X125011699Y-86291327D01*
X125190327Y-86112698D01*
X125287000Y-85879309D01*
X125287000Y-85551250D01*
X125128250Y-85392500D01*
X124079000Y-85392500D01*
X123825000Y-85392500D01*
X122775750Y-85392500D01*
X122617000Y-85551250D01*
X118999000Y-85551250D01*
X118999000Y-79375000D01*
X170053000Y-79375000D01*
X170053000Y-112141000D01*
G36*
X157768560Y-89246000D02*
X157817843Y-89493765D01*
X157958191Y-89703809D01*
X158168235Y-89844157D01*
X158416000Y-89893440D01*
X160916000Y-89893440D01*
X161163765Y-89844157D01*
X161373809Y-89703809D01*
X161514157Y-89493765D01*
X161563440Y-89246000D01*
X161563440Y-88136000D01*
X167325199Y-88136000D01*
X167896000Y-88706802D01*
X167896001Y-109921197D01*
X167833198Y-109984000D01*
X165866067Y-109984000D01*
X165866924Y-109983645D01*
X166295183Y-109593358D01*
X166541486Y-109068892D01*
X166420819Y-108839000D01*
X165227000Y-108839000D01*
X165227000Y-108859000D01*
X164973000Y-108859000D01*
X164973000Y-108839000D01*
X164953000Y-108839000D01*
X164953000Y-108585000D01*
X164973000Y-108585000D01*
X164973000Y-107391845D01*
X165227000Y-107391845D01*
X165227000Y-108585000D01*
X166420819Y-108585000D01*
X166541486Y-108355108D01*
X166295183Y-107830642D01*
X165866924Y-107440355D01*
X165456890Y-107270524D01*
X165227000Y-107391845D01*
X164973000Y-107391845D01*
X164743110Y-107270524D01*
X164333076Y-107440355D01*
X163904817Y-107830642D01*
X163843843Y-107960478D01*
X163630625Y-107641375D01*
X163320000Y-107433822D01*
X163320000Y-101956890D01*
X163658524Y-101956890D01*
X163828355Y-102366924D01*
X164218642Y-102795183D01*
X164743108Y-103041486D01*
X164973000Y-102920819D01*
X164973000Y-101727000D01*
X165227000Y-101727000D01*
X165227000Y-102920819D01*
X165456892Y-103041486D01*
X165981358Y-102795183D01*
X166371645Y-102366924D01*
X166541476Y-101956890D01*
X166420155Y-101727000D01*
X165227000Y-101727000D01*
X164973000Y-101727000D01*
X163779845Y-101727000D01*
X163658524Y-101956890D01*
X163320000Y-101956890D01*
X163320000Y-100712720D01*
X163978394Y-100054327D01*
X164029375Y-100130625D01*
X164348478Y-100343843D01*
X164218642Y-100404817D01*
X163828355Y-100833076D01*
X163658524Y-101243110D01*
X163779845Y-101473000D01*
X164973000Y-101473000D01*
X164973000Y-101453000D01*
X165227000Y-101453000D01*
X165227000Y-101473000D01*
X166420155Y-101473000D01*
X166541476Y-101243110D01*
X166371645Y-100833076D01*
X165981358Y-100404817D01*
X165851522Y-100343843D01*
X166170625Y-100130625D01*
X166498839Y-99639418D01*
X166614092Y-99060000D01*
X166498839Y-98480582D01*
X166170625Y-97989375D01*
X165872239Y-97790000D01*
X166170625Y-97590625D01*
X166498839Y-97099418D01*
X166614092Y-96520000D01*
X166498839Y-95940582D01*
X166170625Y-95449375D01*
X165872239Y-95250000D01*
X166170625Y-95050625D01*
X166498839Y-94559418D01*
X166614092Y-93980000D01*
X166498839Y-93400582D01*
X166170625Y-92909375D01*
X166152381Y-92897184D01*
X166197765Y-92888157D01*
X166407809Y-92747809D01*
X166548157Y-92537765D01*
X166597440Y-92290000D01*
X166597440Y-90590000D01*
X166548157Y-90342235D01*
X166407809Y-90132191D01*
X166197765Y-89991843D01*
X165950000Y-89942560D01*
X164250000Y-89942560D01*
X164002235Y-89991843D01*
X163792191Y-90132191D01*
X163651843Y-90342235D01*
X163602560Y-90590000D01*
X163602560Y-90680000D01*
X156538846Y-90680000D01*
X156463999Y-90665112D01*
X156389152Y-90680000D01*
X156389148Y-90680000D01*
X156167463Y-90724096D01*
X155916071Y-90892071D01*
X155873671Y-90955528D01*
X155598527Y-91230671D01*
X155535072Y-91273071D01*
X155492672Y-91336527D01*
X155492671Y-91336528D01*
X155367097Y-91524463D01*
X155319713Y-91762677D01*
X155113000Y-91721560D01*
X154642883Y-91721560D01*
X154684000Y-91514852D01*
X154684000Y-91514848D01*
X154698888Y-91440001D01*
X154684000Y-91365154D01*
X154684000Y-91127711D01*
X154801431Y-91010280D01*
X154959000Y-90629874D01*
X154959000Y-90218126D01*
X154801431Y-89837720D01*
X154510280Y-89546569D01*
X154129874Y-89389000D01*
X153718126Y-89389000D01*
X153337720Y-89546569D01*
X153046569Y-89837720D01*
X153033000Y-89870479D01*
X153033000Y-88325801D01*
X153222802Y-88136000D01*
X157768560Y-88136000D01*
X157768560Y-89246000D01*
X157768560Y-89246000D01*
G37*
X157768560Y-89246000D02*
X157817843Y-89493765D01*
X157958191Y-89703809D01*
X158168235Y-89844157D01*
X158416000Y-89893440D01*
X160916000Y-89893440D01*
X161163765Y-89844157D01*
X161373809Y-89703809D01*
X161514157Y-89493765D01*
X161563440Y-89246000D01*
X161563440Y-88136000D01*
X167325199Y-88136000D01*
X167896000Y-88706802D01*
X167896001Y-109921197D01*
X167833198Y-109984000D01*
X165866067Y-109984000D01*
X165866924Y-109983645D01*
X166295183Y-109593358D01*
X166541486Y-109068892D01*
X166420819Y-108839000D01*
X165227000Y-108839000D01*
X165227000Y-108859000D01*
X164973000Y-108859000D01*
X164973000Y-108839000D01*
X164953000Y-108839000D01*
X164953000Y-108585000D01*
X164973000Y-108585000D01*
X164973000Y-107391845D01*
X165227000Y-107391845D01*
X165227000Y-108585000D01*
X166420819Y-108585000D01*
X166541486Y-108355108D01*
X166295183Y-107830642D01*
X165866924Y-107440355D01*
X165456890Y-107270524D01*
X165227000Y-107391845D01*
X164973000Y-107391845D01*
X164743110Y-107270524D01*
X164333076Y-107440355D01*
X163904817Y-107830642D01*
X163843843Y-107960478D01*
X163630625Y-107641375D01*
X163320000Y-107433822D01*
X163320000Y-101956890D01*
X163658524Y-101956890D01*
X163828355Y-102366924D01*
X164218642Y-102795183D01*
X164743108Y-103041486D01*
X164973000Y-102920819D01*
X164973000Y-101727000D01*
X165227000Y-101727000D01*
X165227000Y-102920819D01*
X165456892Y-103041486D01*
X165981358Y-102795183D01*
X166371645Y-102366924D01*
X166541476Y-101956890D01*
X166420155Y-101727000D01*
X165227000Y-101727000D01*
X164973000Y-101727000D01*
X163779845Y-101727000D01*
X163658524Y-101956890D01*
X163320000Y-101956890D01*
X163320000Y-100712720D01*
X163978394Y-100054327D01*
X164029375Y-100130625D01*
X164348478Y-100343843D01*
X164218642Y-100404817D01*
X163828355Y-100833076D01*
X163658524Y-101243110D01*
X163779845Y-101473000D01*
X164973000Y-101473000D01*
X164973000Y-101453000D01*
X165227000Y-101453000D01*
X165227000Y-101473000D01*
X166420155Y-101473000D01*
X166541476Y-101243110D01*
X166371645Y-100833076D01*
X165981358Y-100404817D01*
X165851522Y-100343843D01*
X166170625Y-100130625D01*
X166498839Y-99639418D01*
X166614092Y-99060000D01*
X166498839Y-98480582D01*
X166170625Y-97989375D01*
X165872239Y-97790000D01*
X166170625Y-97590625D01*
X166498839Y-97099418D01*
X166614092Y-96520000D01*
X166498839Y-95940582D01*
X166170625Y-95449375D01*
X165872239Y-95250000D01*
X166170625Y-95050625D01*
X166498839Y-94559418D01*
X166614092Y-93980000D01*
X166498839Y-93400582D01*
X166170625Y-92909375D01*
X166152381Y-92897184D01*
X166197765Y-92888157D01*
X166407809Y-92747809D01*
X166548157Y-92537765D01*
X166597440Y-92290000D01*
X166597440Y-90590000D01*
X166548157Y-90342235D01*
X166407809Y-90132191D01*
X166197765Y-89991843D01*
X165950000Y-89942560D01*
X164250000Y-89942560D01*
X164002235Y-89991843D01*
X163792191Y-90132191D01*
X163651843Y-90342235D01*
X163602560Y-90590000D01*
X163602560Y-90680000D01*
X156538846Y-90680000D01*
X156463999Y-90665112D01*
X156389152Y-90680000D01*
X156389148Y-90680000D01*
X156167463Y-90724096D01*
X155916071Y-90892071D01*
X155873671Y-90955528D01*
X155598527Y-91230671D01*
X155535072Y-91273071D01*
X155492672Y-91336527D01*
X155492671Y-91336528D01*
X155367097Y-91524463D01*
X155319713Y-91762677D01*
X155113000Y-91721560D01*
X154642883Y-91721560D01*
X154684000Y-91514852D01*
X154684000Y-91514848D01*
X154698888Y-91440001D01*
X154684000Y-91365154D01*
X154684000Y-91127711D01*
X154801431Y-91010280D01*
X154959000Y-90629874D01*
X154959000Y-90218126D01*
X154801431Y-89837720D01*
X154510280Y-89546569D01*
X154129874Y-89389000D01*
X153718126Y-89389000D01*
X153337720Y-89546569D01*
X153046569Y-89837720D01*
X153033000Y-89870479D01*
X153033000Y-88325801D01*
X153222802Y-88136000D01*
X157768560Y-88136000D01*
X157768560Y-89246000D01*
G04 #@! TD*
M02*
