G04 #@! TF.GenerationSoftware,KiCad,Pcbnew,(5.0.1)-4*
G04 #@! TF.CreationDate,2019-08-09T21:17:30+02:00*
G04 #@! TF.ProjectId,USB-SPI_prog,5553422D5350495F70726F672E6B6963,rev?*
G04 #@! TF.SameCoordinates,Original*
G04 #@! TF.FileFunction,Paste,Top*
G04 #@! TF.FilePolarity,Positive*
%FSLAX46Y46*%
G04 Gerber Fmt 4.6, Leading zero omitted, Abs format (unit mm)*
G04 Created by KiCad (PCBNEW (5.0.1)-4) date 09.08.2019 21:17:30*
%MOMM*%
%LPD*%
G01*
G04 APERTURE LIST*
%ADD10C,0.100000*%
%ADD11C,1.925000*%
%ADD12R,2.500000X1.200000*%
%ADD13C,0.975000*%
%ADD14C,1.250000*%
%ADD15C,0.875000*%
%ADD16R,1.900000X1.750000*%
%ADD17R,1.400000X0.400000*%
%ADD18R,1.450000X1.150000*%
%ADD19R,0.600000X1.950000*%
%ADD20R,4.500000X2.000000*%
G04 APERTURE END LIST*
D10*
G04 #@! TO.C,F1*
G36*
X135188505Y-85668204D02*
X135212773Y-85671804D01*
X135236572Y-85677765D01*
X135259671Y-85686030D01*
X135281850Y-85696520D01*
X135302893Y-85709132D01*
X135322599Y-85723747D01*
X135340777Y-85740223D01*
X135357253Y-85758401D01*
X135371868Y-85778107D01*
X135384480Y-85799150D01*
X135394970Y-85821329D01*
X135403235Y-85844428D01*
X135409196Y-85868227D01*
X135412796Y-85892495D01*
X135414000Y-85916999D01*
X135414000Y-90867001D01*
X135412796Y-90891505D01*
X135409196Y-90915773D01*
X135403235Y-90939572D01*
X135394970Y-90962671D01*
X135384480Y-90984850D01*
X135371868Y-91005893D01*
X135357253Y-91025599D01*
X135340777Y-91043777D01*
X135322599Y-91060253D01*
X135302893Y-91074868D01*
X135281850Y-91087480D01*
X135259671Y-91097970D01*
X135236572Y-91106235D01*
X135212773Y-91112196D01*
X135188505Y-91115796D01*
X135164001Y-91117000D01*
X133738999Y-91117000D01*
X133714495Y-91115796D01*
X133690227Y-91112196D01*
X133666428Y-91106235D01*
X133643329Y-91097970D01*
X133621150Y-91087480D01*
X133600107Y-91074868D01*
X133580401Y-91060253D01*
X133562223Y-91043777D01*
X133545747Y-91025599D01*
X133531132Y-91005893D01*
X133518520Y-90984850D01*
X133508030Y-90962671D01*
X133499765Y-90939572D01*
X133493804Y-90915773D01*
X133490204Y-90891505D01*
X133489000Y-90867001D01*
X133489000Y-85916999D01*
X133490204Y-85892495D01*
X133493804Y-85868227D01*
X133499765Y-85844428D01*
X133508030Y-85821329D01*
X133518520Y-85799150D01*
X133531132Y-85778107D01*
X133545747Y-85758401D01*
X133562223Y-85740223D01*
X133580401Y-85723747D01*
X133600107Y-85709132D01*
X133621150Y-85696520D01*
X133643329Y-85686030D01*
X133666428Y-85677765D01*
X133690227Y-85671804D01*
X133714495Y-85668204D01*
X133738999Y-85667000D01*
X135164001Y-85667000D01*
X135188505Y-85668204D01*
X135188505Y-85668204D01*
G37*
D11*
X134451500Y-88392000D03*
D10*
G36*
X128413505Y-85668204D02*
X128437773Y-85671804D01*
X128461572Y-85677765D01*
X128484671Y-85686030D01*
X128506850Y-85696520D01*
X128527893Y-85709132D01*
X128547599Y-85723747D01*
X128565777Y-85740223D01*
X128582253Y-85758401D01*
X128596868Y-85778107D01*
X128609480Y-85799150D01*
X128619970Y-85821329D01*
X128628235Y-85844428D01*
X128634196Y-85868227D01*
X128637796Y-85892495D01*
X128639000Y-85916999D01*
X128639000Y-90867001D01*
X128637796Y-90891505D01*
X128634196Y-90915773D01*
X128628235Y-90939572D01*
X128619970Y-90962671D01*
X128609480Y-90984850D01*
X128596868Y-91005893D01*
X128582253Y-91025599D01*
X128565777Y-91043777D01*
X128547599Y-91060253D01*
X128527893Y-91074868D01*
X128506850Y-91087480D01*
X128484671Y-91097970D01*
X128461572Y-91106235D01*
X128437773Y-91112196D01*
X128413505Y-91115796D01*
X128389001Y-91117000D01*
X126963999Y-91117000D01*
X126939495Y-91115796D01*
X126915227Y-91112196D01*
X126891428Y-91106235D01*
X126868329Y-91097970D01*
X126846150Y-91087480D01*
X126825107Y-91074868D01*
X126805401Y-91060253D01*
X126787223Y-91043777D01*
X126770747Y-91025599D01*
X126756132Y-91005893D01*
X126743520Y-90984850D01*
X126733030Y-90962671D01*
X126724765Y-90939572D01*
X126718804Y-90915773D01*
X126715204Y-90891505D01*
X126714000Y-90867001D01*
X126714000Y-85916999D01*
X126715204Y-85892495D01*
X126718804Y-85868227D01*
X126724765Y-85844428D01*
X126733030Y-85821329D01*
X126743520Y-85799150D01*
X126756132Y-85778107D01*
X126770747Y-85758401D01*
X126787223Y-85740223D01*
X126805401Y-85723747D01*
X126825107Y-85709132D01*
X126846150Y-85696520D01*
X126868329Y-85686030D01*
X126891428Y-85677765D01*
X126915227Y-85671804D01*
X126939495Y-85668204D01*
X126963999Y-85667000D01*
X128389001Y-85667000D01*
X128413505Y-85668204D01*
X128413505Y-85668204D01*
G37*
D11*
X127676500Y-88392000D03*
G04 #@! TD*
D12*
G04 #@! TO.C,SW1*
X159666000Y-88646000D03*
X147166000Y-88646000D03*
X159666000Y-81026000D03*
X147166000Y-81026000D03*
G04 #@! TD*
D10*
G04 #@! TO.C,C1*
G36*
X124432142Y-82904174D02*
X124455803Y-82907684D01*
X124479007Y-82913496D01*
X124501529Y-82921554D01*
X124523153Y-82931782D01*
X124543670Y-82944079D01*
X124562883Y-82958329D01*
X124580607Y-82974393D01*
X124596671Y-82992117D01*
X124610921Y-83011330D01*
X124623218Y-83031847D01*
X124633446Y-83053471D01*
X124641504Y-83075993D01*
X124647316Y-83099197D01*
X124650826Y-83122858D01*
X124652000Y-83146750D01*
X124652000Y-83634250D01*
X124650826Y-83658142D01*
X124647316Y-83681803D01*
X124641504Y-83705007D01*
X124633446Y-83727529D01*
X124623218Y-83749153D01*
X124610921Y-83769670D01*
X124596671Y-83788883D01*
X124580607Y-83806607D01*
X124562883Y-83822671D01*
X124543670Y-83836921D01*
X124523153Y-83849218D01*
X124501529Y-83859446D01*
X124479007Y-83867504D01*
X124455803Y-83873316D01*
X124432142Y-83876826D01*
X124408250Y-83878000D01*
X123495750Y-83878000D01*
X123471858Y-83876826D01*
X123448197Y-83873316D01*
X123424993Y-83867504D01*
X123402471Y-83859446D01*
X123380847Y-83849218D01*
X123360330Y-83836921D01*
X123341117Y-83822671D01*
X123323393Y-83806607D01*
X123307329Y-83788883D01*
X123293079Y-83769670D01*
X123280782Y-83749153D01*
X123270554Y-83727529D01*
X123262496Y-83705007D01*
X123256684Y-83681803D01*
X123253174Y-83658142D01*
X123252000Y-83634250D01*
X123252000Y-83146750D01*
X123253174Y-83122858D01*
X123256684Y-83099197D01*
X123262496Y-83075993D01*
X123270554Y-83053471D01*
X123280782Y-83031847D01*
X123293079Y-83011330D01*
X123307329Y-82992117D01*
X123323393Y-82974393D01*
X123341117Y-82958329D01*
X123360330Y-82944079D01*
X123380847Y-82931782D01*
X123402471Y-82921554D01*
X123424993Y-82913496D01*
X123448197Y-82907684D01*
X123471858Y-82904174D01*
X123495750Y-82903000D01*
X124408250Y-82903000D01*
X124432142Y-82904174D01*
X124432142Y-82904174D01*
G37*
D13*
X123952000Y-83390500D03*
D10*
G36*
X124432142Y-84779174D02*
X124455803Y-84782684D01*
X124479007Y-84788496D01*
X124501529Y-84796554D01*
X124523153Y-84806782D01*
X124543670Y-84819079D01*
X124562883Y-84833329D01*
X124580607Y-84849393D01*
X124596671Y-84867117D01*
X124610921Y-84886330D01*
X124623218Y-84906847D01*
X124633446Y-84928471D01*
X124641504Y-84950993D01*
X124647316Y-84974197D01*
X124650826Y-84997858D01*
X124652000Y-85021750D01*
X124652000Y-85509250D01*
X124650826Y-85533142D01*
X124647316Y-85556803D01*
X124641504Y-85580007D01*
X124633446Y-85602529D01*
X124623218Y-85624153D01*
X124610921Y-85644670D01*
X124596671Y-85663883D01*
X124580607Y-85681607D01*
X124562883Y-85697671D01*
X124543670Y-85711921D01*
X124523153Y-85724218D01*
X124501529Y-85734446D01*
X124479007Y-85742504D01*
X124455803Y-85748316D01*
X124432142Y-85751826D01*
X124408250Y-85753000D01*
X123495750Y-85753000D01*
X123471858Y-85751826D01*
X123448197Y-85748316D01*
X123424993Y-85742504D01*
X123402471Y-85734446D01*
X123380847Y-85724218D01*
X123360330Y-85711921D01*
X123341117Y-85697671D01*
X123323393Y-85681607D01*
X123307329Y-85663883D01*
X123293079Y-85644670D01*
X123280782Y-85624153D01*
X123270554Y-85602529D01*
X123262496Y-85580007D01*
X123256684Y-85556803D01*
X123253174Y-85533142D01*
X123252000Y-85509250D01*
X123252000Y-85021750D01*
X123253174Y-84997858D01*
X123256684Y-84974197D01*
X123262496Y-84950993D01*
X123270554Y-84928471D01*
X123280782Y-84906847D01*
X123293079Y-84886330D01*
X123307329Y-84867117D01*
X123323393Y-84849393D01*
X123341117Y-84833329D01*
X123360330Y-84819079D01*
X123380847Y-84806782D01*
X123402471Y-84796554D01*
X123424993Y-84788496D01*
X123448197Y-84782684D01*
X123471858Y-84779174D01*
X123495750Y-84778000D01*
X124408250Y-84778000D01*
X124432142Y-84779174D01*
X124432142Y-84779174D01*
G37*
D13*
X123952000Y-85265500D03*
G04 #@! TD*
D10*
G04 #@! TO.C,C2*
G36*
X130955504Y-96154204D02*
X130979773Y-96157804D01*
X131003571Y-96163765D01*
X131026671Y-96172030D01*
X131048849Y-96182520D01*
X131069893Y-96195133D01*
X131089598Y-96209747D01*
X131107777Y-96226223D01*
X131124253Y-96244402D01*
X131138867Y-96264107D01*
X131151480Y-96285151D01*
X131161970Y-96307329D01*
X131170235Y-96330429D01*
X131176196Y-96354227D01*
X131179796Y-96378496D01*
X131181000Y-96403000D01*
X131181000Y-97653000D01*
X131179796Y-97677504D01*
X131176196Y-97701773D01*
X131170235Y-97725571D01*
X131161970Y-97748671D01*
X131151480Y-97770849D01*
X131138867Y-97791893D01*
X131124253Y-97811598D01*
X131107777Y-97829777D01*
X131089598Y-97846253D01*
X131069893Y-97860867D01*
X131048849Y-97873480D01*
X131026671Y-97883970D01*
X131003571Y-97892235D01*
X130979773Y-97898196D01*
X130955504Y-97901796D01*
X130931000Y-97903000D01*
X130181000Y-97903000D01*
X130156496Y-97901796D01*
X130132227Y-97898196D01*
X130108429Y-97892235D01*
X130085329Y-97883970D01*
X130063151Y-97873480D01*
X130042107Y-97860867D01*
X130022402Y-97846253D01*
X130004223Y-97829777D01*
X129987747Y-97811598D01*
X129973133Y-97791893D01*
X129960520Y-97770849D01*
X129950030Y-97748671D01*
X129941765Y-97725571D01*
X129935804Y-97701773D01*
X129932204Y-97677504D01*
X129931000Y-97653000D01*
X129931000Y-96403000D01*
X129932204Y-96378496D01*
X129935804Y-96354227D01*
X129941765Y-96330429D01*
X129950030Y-96307329D01*
X129960520Y-96285151D01*
X129973133Y-96264107D01*
X129987747Y-96244402D01*
X130004223Y-96226223D01*
X130022402Y-96209747D01*
X130042107Y-96195133D01*
X130063151Y-96182520D01*
X130085329Y-96172030D01*
X130108429Y-96163765D01*
X130132227Y-96157804D01*
X130156496Y-96154204D01*
X130181000Y-96153000D01*
X130931000Y-96153000D01*
X130955504Y-96154204D01*
X130955504Y-96154204D01*
G37*
D14*
X130556000Y-97028000D03*
D10*
G36*
X128155504Y-96154204D02*
X128179773Y-96157804D01*
X128203571Y-96163765D01*
X128226671Y-96172030D01*
X128248849Y-96182520D01*
X128269893Y-96195133D01*
X128289598Y-96209747D01*
X128307777Y-96226223D01*
X128324253Y-96244402D01*
X128338867Y-96264107D01*
X128351480Y-96285151D01*
X128361970Y-96307329D01*
X128370235Y-96330429D01*
X128376196Y-96354227D01*
X128379796Y-96378496D01*
X128381000Y-96403000D01*
X128381000Y-97653000D01*
X128379796Y-97677504D01*
X128376196Y-97701773D01*
X128370235Y-97725571D01*
X128361970Y-97748671D01*
X128351480Y-97770849D01*
X128338867Y-97791893D01*
X128324253Y-97811598D01*
X128307777Y-97829777D01*
X128289598Y-97846253D01*
X128269893Y-97860867D01*
X128248849Y-97873480D01*
X128226671Y-97883970D01*
X128203571Y-97892235D01*
X128179773Y-97898196D01*
X128155504Y-97901796D01*
X128131000Y-97903000D01*
X127381000Y-97903000D01*
X127356496Y-97901796D01*
X127332227Y-97898196D01*
X127308429Y-97892235D01*
X127285329Y-97883970D01*
X127263151Y-97873480D01*
X127242107Y-97860867D01*
X127222402Y-97846253D01*
X127204223Y-97829777D01*
X127187747Y-97811598D01*
X127173133Y-97791893D01*
X127160520Y-97770849D01*
X127150030Y-97748671D01*
X127141765Y-97725571D01*
X127135804Y-97701773D01*
X127132204Y-97677504D01*
X127131000Y-97653000D01*
X127131000Y-96403000D01*
X127132204Y-96378496D01*
X127135804Y-96354227D01*
X127141765Y-96330429D01*
X127150030Y-96307329D01*
X127160520Y-96285151D01*
X127173133Y-96264107D01*
X127187747Y-96244402D01*
X127204223Y-96226223D01*
X127222402Y-96209747D01*
X127242107Y-96195133D01*
X127263151Y-96182520D01*
X127285329Y-96172030D01*
X127308429Y-96163765D01*
X127332227Y-96157804D01*
X127356496Y-96154204D01*
X127381000Y-96153000D01*
X128131000Y-96153000D01*
X128155504Y-96154204D01*
X128155504Y-96154204D01*
G37*
D14*
X127756000Y-97028000D03*
G04 #@! TD*
D10*
G04 #@! TO.C,C3*
G36*
X126411289Y-100923884D02*
X126432524Y-100927034D01*
X126453348Y-100932250D01*
X126473560Y-100939482D01*
X126492966Y-100948661D01*
X126511379Y-100959697D01*
X126528622Y-100972485D01*
X126544528Y-100986901D01*
X126558944Y-101002807D01*
X126571732Y-101020050D01*
X126582768Y-101038463D01*
X126591947Y-101057869D01*
X126599179Y-101078081D01*
X126604395Y-101098905D01*
X126607545Y-101120140D01*
X126608598Y-101141581D01*
X126608598Y-101654081D01*
X126607545Y-101675522D01*
X126604395Y-101696757D01*
X126599179Y-101717581D01*
X126591947Y-101737793D01*
X126582768Y-101757199D01*
X126571732Y-101775612D01*
X126558944Y-101792855D01*
X126544528Y-101808761D01*
X126528622Y-101823177D01*
X126511379Y-101835965D01*
X126492966Y-101847001D01*
X126473560Y-101856180D01*
X126453348Y-101863412D01*
X126432524Y-101868628D01*
X126411289Y-101871778D01*
X126389848Y-101872831D01*
X125952348Y-101872831D01*
X125930907Y-101871778D01*
X125909672Y-101868628D01*
X125888848Y-101863412D01*
X125868636Y-101856180D01*
X125849230Y-101847001D01*
X125830817Y-101835965D01*
X125813574Y-101823177D01*
X125797668Y-101808761D01*
X125783252Y-101792855D01*
X125770464Y-101775612D01*
X125759428Y-101757199D01*
X125750249Y-101737793D01*
X125743017Y-101717581D01*
X125737801Y-101696757D01*
X125734651Y-101675522D01*
X125733598Y-101654081D01*
X125733598Y-101141581D01*
X125734651Y-101120140D01*
X125737801Y-101098905D01*
X125743017Y-101078081D01*
X125750249Y-101057869D01*
X125759428Y-101038463D01*
X125770464Y-101020050D01*
X125783252Y-101002807D01*
X125797668Y-100986901D01*
X125813574Y-100972485D01*
X125830817Y-100959697D01*
X125849230Y-100948661D01*
X125868636Y-100939482D01*
X125888848Y-100932250D01*
X125909672Y-100927034D01*
X125930907Y-100923884D01*
X125952348Y-100922831D01*
X126389848Y-100922831D01*
X126411289Y-100923884D01*
X126411289Y-100923884D01*
G37*
D15*
X126171098Y-101397831D03*
D10*
G36*
X124836289Y-100923884D02*
X124857524Y-100927034D01*
X124878348Y-100932250D01*
X124898560Y-100939482D01*
X124917966Y-100948661D01*
X124936379Y-100959697D01*
X124953622Y-100972485D01*
X124969528Y-100986901D01*
X124983944Y-101002807D01*
X124996732Y-101020050D01*
X125007768Y-101038463D01*
X125016947Y-101057869D01*
X125024179Y-101078081D01*
X125029395Y-101098905D01*
X125032545Y-101120140D01*
X125033598Y-101141581D01*
X125033598Y-101654081D01*
X125032545Y-101675522D01*
X125029395Y-101696757D01*
X125024179Y-101717581D01*
X125016947Y-101737793D01*
X125007768Y-101757199D01*
X124996732Y-101775612D01*
X124983944Y-101792855D01*
X124969528Y-101808761D01*
X124953622Y-101823177D01*
X124936379Y-101835965D01*
X124917966Y-101847001D01*
X124898560Y-101856180D01*
X124878348Y-101863412D01*
X124857524Y-101868628D01*
X124836289Y-101871778D01*
X124814848Y-101872831D01*
X124377348Y-101872831D01*
X124355907Y-101871778D01*
X124334672Y-101868628D01*
X124313848Y-101863412D01*
X124293636Y-101856180D01*
X124274230Y-101847001D01*
X124255817Y-101835965D01*
X124238574Y-101823177D01*
X124222668Y-101808761D01*
X124208252Y-101792855D01*
X124195464Y-101775612D01*
X124184428Y-101757199D01*
X124175249Y-101737793D01*
X124168017Y-101717581D01*
X124162801Y-101696757D01*
X124159651Y-101675522D01*
X124158598Y-101654081D01*
X124158598Y-101141581D01*
X124159651Y-101120140D01*
X124162801Y-101098905D01*
X124168017Y-101078081D01*
X124175249Y-101057869D01*
X124184428Y-101038463D01*
X124195464Y-101020050D01*
X124208252Y-101002807D01*
X124222668Y-100986901D01*
X124238574Y-100972485D01*
X124255817Y-100959697D01*
X124274230Y-100948661D01*
X124293636Y-100939482D01*
X124313848Y-100932250D01*
X124334672Y-100927034D01*
X124355907Y-100923884D01*
X124377348Y-100922831D01*
X124814848Y-100922831D01*
X124836289Y-100923884D01*
X124836289Y-100923884D01*
G37*
D15*
X124596098Y-101397831D03*
G04 #@! TD*
D10*
G04 #@! TO.C,C4*
G36*
X131948289Y-100923884D02*
X131969524Y-100927034D01*
X131990348Y-100932250D01*
X132010560Y-100939482D01*
X132029966Y-100948661D01*
X132048379Y-100959697D01*
X132065622Y-100972485D01*
X132081528Y-100986901D01*
X132095944Y-101002807D01*
X132108732Y-101020050D01*
X132119768Y-101038463D01*
X132128947Y-101057869D01*
X132136179Y-101078081D01*
X132141395Y-101098905D01*
X132144545Y-101120140D01*
X132145598Y-101141581D01*
X132145598Y-101654081D01*
X132144545Y-101675522D01*
X132141395Y-101696757D01*
X132136179Y-101717581D01*
X132128947Y-101737793D01*
X132119768Y-101757199D01*
X132108732Y-101775612D01*
X132095944Y-101792855D01*
X132081528Y-101808761D01*
X132065622Y-101823177D01*
X132048379Y-101835965D01*
X132029966Y-101847001D01*
X132010560Y-101856180D01*
X131990348Y-101863412D01*
X131969524Y-101868628D01*
X131948289Y-101871778D01*
X131926848Y-101872831D01*
X131489348Y-101872831D01*
X131467907Y-101871778D01*
X131446672Y-101868628D01*
X131425848Y-101863412D01*
X131405636Y-101856180D01*
X131386230Y-101847001D01*
X131367817Y-101835965D01*
X131350574Y-101823177D01*
X131334668Y-101808761D01*
X131320252Y-101792855D01*
X131307464Y-101775612D01*
X131296428Y-101757199D01*
X131287249Y-101737793D01*
X131280017Y-101717581D01*
X131274801Y-101696757D01*
X131271651Y-101675522D01*
X131270598Y-101654081D01*
X131270598Y-101141581D01*
X131271651Y-101120140D01*
X131274801Y-101098905D01*
X131280017Y-101078081D01*
X131287249Y-101057869D01*
X131296428Y-101038463D01*
X131307464Y-101020050D01*
X131320252Y-101002807D01*
X131334668Y-100986901D01*
X131350574Y-100972485D01*
X131367817Y-100959697D01*
X131386230Y-100948661D01*
X131405636Y-100939482D01*
X131425848Y-100932250D01*
X131446672Y-100927034D01*
X131467907Y-100923884D01*
X131489348Y-100922831D01*
X131926848Y-100922831D01*
X131948289Y-100923884D01*
X131948289Y-100923884D01*
G37*
D15*
X131708098Y-101397831D03*
D10*
G36*
X133523289Y-100923884D02*
X133544524Y-100927034D01*
X133565348Y-100932250D01*
X133585560Y-100939482D01*
X133604966Y-100948661D01*
X133623379Y-100959697D01*
X133640622Y-100972485D01*
X133656528Y-100986901D01*
X133670944Y-101002807D01*
X133683732Y-101020050D01*
X133694768Y-101038463D01*
X133703947Y-101057869D01*
X133711179Y-101078081D01*
X133716395Y-101098905D01*
X133719545Y-101120140D01*
X133720598Y-101141581D01*
X133720598Y-101654081D01*
X133719545Y-101675522D01*
X133716395Y-101696757D01*
X133711179Y-101717581D01*
X133703947Y-101737793D01*
X133694768Y-101757199D01*
X133683732Y-101775612D01*
X133670944Y-101792855D01*
X133656528Y-101808761D01*
X133640622Y-101823177D01*
X133623379Y-101835965D01*
X133604966Y-101847001D01*
X133585560Y-101856180D01*
X133565348Y-101863412D01*
X133544524Y-101868628D01*
X133523289Y-101871778D01*
X133501848Y-101872831D01*
X133064348Y-101872831D01*
X133042907Y-101871778D01*
X133021672Y-101868628D01*
X133000848Y-101863412D01*
X132980636Y-101856180D01*
X132961230Y-101847001D01*
X132942817Y-101835965D01*
X132925574Y-101823177D01*
X132909668Y-101808761D01*
X132895252Y-101792855D01*
X132882464Y-101775612D01*
X132871428Y-101757199D01*
X132862249Y-101737793D01*
X132855017Y-101717581D01*
X132849801Y-101696757D01*
X132846651Y-101675522D01*
X132845598Y-101654081D01*
X132845598Y-101141581D01*
X132846651Y-101120140D01*
X132849801Y-101098905D01*
X132855017Y-101078081D01*
X132862249Y-101057869D01*
X132871428Y-101038463D01*
X132882464Y-101020050D01*
X132895252Y-101002807D01*
X132909668Y-100986901D01*
X132925574Y-100972485D01*
X132942817Y-100959697D01*
X132961230Y-100948661D01*
X132980636Y-100939482D01*
X133000848Y-100932250D01*
X133021672Y-100927034D01*
X133042907Y-100923884D01*
X133064348Y-100922831D01*
X133501848Y-100922831D01*
X133523289Y-100923884D01*
X133523289Y-100923884D01*
G37*
D15*
X133283098Y-101397831D03*
G04 #@! TD*
D10*
G04 #@! TO.C,D1*
G36*
X134123691Y-82838053D02*
X134144926Y-82841203D01*
X134165750Y-82846419D01*
X134185962Y-82853651D01*
X134205368Y-82862830D01*
X134223781Y-82873866D01*
X134241024Y-82886654D01*
X134256930Y-82901070D01*
X134271346Y-82916976D01*
X134284134Y-82934219D01*
X134295170Y-82952632D01*
X134304349Y-82972038D01*
X134311581Y-82992250D01*
X134316797Y-83013074D01*
X134319947Y-83034309D01*
X134321000Y-83055750D01*
X134321000Y-83568250D01*
X134319947Y-83589691D01*
X134316797Y-83610926D01*
X134311581Y-83631750D01*
X134304349Y-83651962D01*
X134295170Y-83671368D01*
X134284134Y-83689781D01*
X134271346Y-83707024D01*
X134256930Y-83722930D01*
X134241024Y-83737346D01*
X134223781Y-83750134D01*
X134205368Y-83761170D01*
X134185962Y-83770349D01*
X134165750Y-83777581D01*
X134144926Y-83782797D01*
X134123691Y-83785947D01*
X134102250Y-83787000D01*
X133664750Y-83787000D01*
X133643309Y-83785947D01*
X133622074Y-83782797D01*
X133601250Y-83777581D01*
X133581038Y-83770349D01*
X133561632Y-83761170D01*
X133543219Y-83750134D01*
X133525976Y-83737346D01*
X133510070Y-83722930D01*
X133495654Y-83707024D01*
X133482866Y-83689781D01*
X133471830Y-83671368D01*
X133462651Y-83651962D01*
X133455419Y-83631750D01*
X133450203Y-83610926D01*
X133447053Y-83589691D01*
X133446000Y-83568250D01*
X133446000Y-83055750D01*
X133447053Y-83034309D01*
X133450203Y-83013074D01*
X133455419Y-82992250D01*
X133462651Y-82972038D01*
X133471830Y-82952632D01*
X133482866Y-82934219D01*
X133495654Y-82916976D01*
X133510070Y-82901070D01*
X133525976Y-82886654D01*
X133543219Y-82873866D01*
X133561632Y-82862830D01*
X133581038Y-82853651D01*
X133601250Y-82846419D01*
X133622074Y-82841203D01*
X133643309Y-82838053D01*
X133664750Y-82837000D01*
X134102250Y-82837000D01*
X134123691Y-82838053D01*
X134123691Y-82838053D01*
G37*
D15*
X133883500Y-83312000D03*
D10*
G36*
X132548691Y-82838053D02*
X132569926Y-82841203D01*
X132590750Y-82846419D01*
X132610962Y-82853651D01*
X132630368Y-82862830D01*
X132648781Y-82873866D01*
X132666024Y-82886654D01*
X132681930Y-82901070D01*
X132696346Y-82916976D01*
X132709134Y-82934219D01*
X132720170Y-82952632D01*
X132729349Y-82972038D01*
X132736581Y-82992250D01*
X132741797Y-83013074D01*
X132744947Y-83034309D01*
X132746000Y-83055750D01*
X132746000Y-83568250D01*
X132744947Y-83589691D01*
X132741797Y-83610926D01*
X132736581Y-83631750D01*
X132729349Y-83651962D01*
X132720170Y-83671368D01*
X132709134Y-83689781D01*
X132696346Y-83707024D01*
X132681930Y-83722930D01*
X132666024Y-83737346D01*
X132648781Y-83750134D01*
X132630368Y-83761170D01*
X132610962Y-83770349D01*
X132590750Y-83777581D01*
X132569926Y-83782797D01*
X132548691Y-83785947D01*
X132527250Y-83787000D01*
X132089750Y-83787000D01*
X132068309Y-83785947D01*
X132047074Y-83782797D01*
X132026250Y-83777581D01*
X132006038Y-83770349D01*
X131986632Y-83761170D01*
X131968219Y-83750134D01*
X131950976Y-83737346D01*
X131935070Y-83722930D01*
X131920654Y-83707024D01*
X131907866Y-83689781D01*
X131896830Y-83671368D01*
X131887651Y-83651962D01*
X131880419Y-83631750D01*
X131875203Y-83610926D01*
X131872053Y-83589691D01*
X131871000Y-83568250D01*
X131871000Y-83055750D01*
X131872053Y-83034309D01*
X131875203Y-83013074D01*
X131880419Y-82992250D01*
X131887651Y-82972038D01*
X131896830Y-82952632D01*
X131907866Y-82934219D01*
X131920654Y-82916976D01*
X131935070Y-82901070D01*
X131950976Y-82886654D01*
X131968219Y-82873866D01*
X131986632Y-82862830D01*
X132006038Y-82853651D01*
X132026250Y-82846419D01*
X132047074Y-82841203D01*
X132068309Y-82838053D01*
X132089750Y-82837000D01*
X132527250Y-82837000D01*
X132548691Y-82838053D01*
X132548691Y-82838053D01*
G37*
D15*
X132308500Y-83312000D03*
G04 #@! TD*
D16*
G04 #@! TO.C,J1*
X120720000Y-94089000D03*
D17*
X123370000Y-92314000D03*
X123370000Y-91664000D03*
X123370000Y-94264000D03*
X123370000Y-93614000D03*
X123370000Y-92964000D03*
D16*
X120720000Y-91839000D03*
D18*
X122950000Y-95284000D03*
X122950000Y-90644000D03*
G04 #@! TD*
D10*
G04 #@! TO.C,R1*
G36*
X129729142Y-82613174D02*
X129752803Y-82616684D01*
X129776007Y-82622496D01*
X129798529Y-82630554D01*
X129820153Y-82640782D01*
X129840670Y-82653079D01*
X129859883Y-82667329D01*
X129877607Y-82683393D01*
X129893671Y-82701117D01*
X129907921Y-82720330D01*
X129920218Y-82740847D01*
X129930446Y-82762471D01*
X129938504Y-82784993D01*
X129944316Y-82808197D01*
X129947826Y-82831858D01*
X129949000Y-82855750D01*
X129949000Y-83768250D01*
X129947826Y-83792142D01*
X129944316Y-83815803D01*
X129938504Y-83839007D01*
X129930446Y-83861529D01*
X129920218Y-83883153D01*
X129907921Y-83903670D01*
X129893671Y-83922883D01*
X129877607Y-83940607D01*
X129859883Y-83956671D01*
X129840670Y-83970921D01*
X129820153Y-83983218D01*
X129798529Y-83993446D01*
X129776007Y-84001504D01*
X129752803Y-84007316D01*
X129729142Y-84010826D01*
X129705250Y-84012000D01*
X129217750Y-84012000D01*
X129193858Y-84010826D01*
X129170197Y-84007316D01*
X129146993Y-84001504D01*
X129124471Y-83993446D01*
X129102847Y-83983218D01*
X129082330Y-83970921D01*
X129063117Y-83956671D01*
X129045393Y-83940607D01*
X129029329Y-83922883D01*
X129015079Y-83903670D01*
X129002782Y-83883153D01*
X128992554Y-83861529D01*
X128984496Y-83839007D01*
X128978684Y-83815803D01*
X128975174Y-83792142D01*
X128974000Y-83768250D01*
X128974000Y-82855750D01*
X128975174Y-82831858D01*
X128978684Y-82808197D01*
X128984496Y-82784993D01*
X128992554Y-82762471D01*
X129002782Y-82740847D01*
X129015079Y-82720330D01*
X129029329Y-82701117D01*
X129045393Y-82683393D01*
X129063117Y-82667329D01*
X129082330Y-82653079D01*
X129102847Y-82640782D01*
X129124471Y-82630554D01*
X129146993Y-82622496D01*
X129170197Y-82616684D01*
X129193858Y-82613174D01*
X129217750Y-82612000D01*
X129705250Y-82612000D01*
X129729142Y-82613174D01*
X129729142Y-82613174D01*
G37*
D13*
X129461500Y-83312000D03*
D10*
G36*
X127854142Y-82613174D02*
X127877803Y-82616684D01*
X127901007Y-82622496D01*
X127923529Y-82630554D01*
X127945153Y-82640782D01*
X127965670Y-82653079D01*
X127984883Y-82667329D01*
X128002607Y-82683393D01*
X128018671Y-82701117D01*
X128032921Y-82720330D01*
X128045218Y-82740847D01*
X128055446Y-82762471D01*
X128063504Y-82784993D01*
X128069316Y-82808197D01*
X128072826Y-82831858D01*
X128074000Y-82855750D01*
X128074000Y-83768250D01*
X128072826Y-83792142D01*
X128069316Y-83815803D01*
X128063504Y-83839007D01*
X128055446Y-83861529D01*
X128045218Y-83883153D01*
X128032921Y-83903670D01*
X128018671Y-83922883D01*
X128002607Y-83940607D01*
X127984883Y-83956671D01*
X127965670Y-83970921D01*
X127945153Y-83983218D01*
X127923529Y-83993446D01*
X127901007Y-84001504D01*
X127877803Y-84007316D01*
X127854142Y-84010826D01*
X127830250Y-84012000D01*
X127342750Y-84012000D01*
X127318858Y-84010826D01*
X127295197Y-84007316D01*
X127271993Y-84001504D01*
X127249471Y-83993446D01*
X127227847Y-83983218D01*
X127207330Y-83970921D01*
X127188117Y-83956671D01*
X127170393Y-83940607D01*
X127154329Y-83922883D01*
X127140079Y-83903670D01*
X127127782Y-83883153D01*
X127117554Y-83861529D01*
X127109496Y-83839007D01*
X127103684Y-83815803D01*
X127100174Y-83792142D01*
X127099000Y-83768250D01*
X127099000Y-82855750D01*
X127100174Y-82831858D01*
X127103684Y-82808197D01*
X127109496Y-82784993D01*
X127117554Y-82762471D01*
X127127782Y-82740847D01*
X127140079Y-82720330D01*
X127154329Y-82701117D01*
X127170393Y-82683393D01*
X127188117Y-82667329D01*
X127207330Y-82653079D01*
X127227847Y-82640782D01*
X127249471Y-82630554D01*
X127271993Y-82622496D01*
X127295197Y-82616684D01*
X127318858Y-82613174D01*
X127342750Y-82612000D01*
X127830250Y-82612000D01*
X127854142Y-82613174D01*
X127854142Y-82613174D01*
G37*
D13*
X127586500Y-83312000D03*
G04 #@! TD*
D10*
G04 #@! TO.C,R2*
G36*
X141704142Y-87905674D02*
X141727803Y-87909184D01*
X141751007Y-87914996D01*
X141773529Y-87923054D01*
X141795153Y-87933282D01*
X141815670Y-87945579D01*
X141834883Y-87959829D01*
X141852607Y-87975893D01*
X141868671Y-87993617D01*
X141882921Y-88012830D01*
X141895218Y-88033347D01*
X141905446Y-88054971D01*
X141913504Y-88077493D01*
X141919316Y-88100697D01*
X141922826Y-88124358D01*
X141924000Y-88148250D01*
X141924000Y-88635750D01*
X141922826Y-88659642D01*
X141919316Y-88683303D01*
X141913504Y-88706507D01*
X141905446Y-88729029D01*
X141895218Y-88750653D01*
X141882921Y-88771170D01*
X141868671Y-88790383D01*
X141852607Y-88808107D01*
X141834883Y-88824171D01*
X141815670Y-88838421D01*
X141795153Y-88850718D01*
X141773529Y-88860946D01*
X141751007Y-88869004D01*
X141727803Y-88874816D01*
X141704142Y-88878326D01*
X141680250Y-88879500D01*
X140767750Y-88879500D01*
X140743858Y-88878326D01*
X140720197Y-88874816D01*
X140696993Y-88869004D01*
X140674471Y-88860946D01*
X140652847Y-88850718D01*
X140632330Y-88838421D01*
X140613117Y-88824171D01*
X140595393Y-88808107D01*
X140579329Y-88790383D01*
X140565079Y-88771170D01*
X140552782Y-88750653D01*
X140542554Y-88729029D01*
X140534496Y-88706507D01*
X140528684Y-88683303D01*
X140525174Y-88659642D01*
X140524000Y-88635750D01*
X140524000Y-88148250D01*
X140525174Y-88124358D01*
X140528684Y-88100697D01*
X140534496Y-88077493D01*
X140542554Y-88054971D01*
X140552782Y-88033347D01*
X140565079Y-88012830D01*
X140579329Y-87993617D01*
X140595393Y-87975893D01*
X140613117Y-87959829D01*
X140632330Y-87945579D01*
X140652847Y-87933282D01*
X140674471Y-87923054D01*
X140696993Y-87914996D01*
X140720197Y-87909184D01*
X140743858Y-87905674D01*
X140767750Y-87904500D01*
X141680250Y-87904500D01*
X141704142Y-87905674D01*
X141704142Y-87905674D01*
G37*
D13*
X141224000Y-88392000D03*
D10*
G36*
X141704142Y-86030674D02*
X141727803Y-86034184D01*
X141751007Y-86039996D01*
X141773529Y-86048054D01*
X141795153Y-86058282D01*
X141815670Y-86070579D01*
X141834883Y-86084829D01*
X141852607Y-86100893D01*
X141868671Y-86118617D01*
X141882921Y-86137830D01*
X141895218Y-86158347D01*
X141905446Y-86179971D01*
X141913504Y-86202493D01*
X141919316Y-86225697D01*
X141922826Y-86249358D01*
X141924000Y-86273250D01*
X141924000Y-86760750D01*
X141922826Y-86784642D01*
X141919316Y-86808303D01*
X141913504Y-86831507D01*
X141905446Y-86854029D01*
X141895218Y-86875653D01*
X141882921Y-86896170D01*
X141868671Y-86915383D01*
X141852607Y-86933107D01*
X141834883Y-86949171D01*
X141815670Y-86963421D01*
X141795153Y-86975718D01*
X141773529Y-86985946D01*
X141751007Y-86994004D01*
X141727803Y-86999816D01*
X141704142Y-87003326D01*
X141680250Y-87004500D01*
X140767750Y-87004500D01*
X140743858Y-87003326D01*
X140720197Y-86999816D01*
X140696993Y-86994004D01*
X140674471Y-86985946D01*
X140652847Y-86975718D01*
X140632330Y-86963421D01*
X140613117Y-86949171D01*
X140595393Y-86933107D01*
X140579329Y-86915383D01*
X140565079Y-86896170D01*
X140552782Y-86875653D01*
X140542554Y-86854029D01*
X140534496Y-86831507D01*
X140528684Y-86808303D01*
X140525174Y-86784642D01*
X140524000Y-86760750D01*
X140524000Y-86273250D01*
X140525174Y-86249358D01*
X140528684Y-86225697D01*
X140534496Y-86202493D01*
X140542554Y-86179971D01*
X140552782Y-86158347D01*
X140565079Y-86137830D01*
X140579329Y-86118617D01*
X140595393Y-86100893D01*
X140613117Y-86084829D01*
X140632330Y-86070579D01*
X140652847Y-86058282D01*
X140674471Y-86048054D01*
X140696993Y-86039996D01*
X140720197Y-86034184D01*
X140743858Y-86030674D01*
X140767750Y-86029500D01*
X141680250Y-86029500D01*
X141704142Y-86030674D01*
X141704142Y-86030674D01*
G37*
D13*
X141224000Y-86517000D03*
G04 #@! TD*
D19*
G04 #@! TO.C,U1*
X147193000Y-102744000D03*
X148463000Y-102744000D03*
X149733000Y-102744000D03*
X151003000Y-102744000D03*
X152273000Y-102744000D03*
X153543000Y-102744000D03*
X154813000Y-102744000D03*
X156083000Y-102744000D03*
X157353000Y-102744000D03*
X158623000Y-102744000D03*
X158623000Y-93344000D03*
X157353000Y-93344000D03*
X156083000Y-93344000D03*
X154813000Y-93344000D03*
X153543000Y-93344000D03*
X152273000Y-93344000D03*
X151003000Y-93344000D03*
X149733000Y-93344000D03*
X148463000Y-93344000D03*
X147193000Y-93344000D03*
G04 #@! TD*
D20*
G04 #@! TO.C,Y1*
X124689598Y-105969831D03*
X133189598Y-105969831D03*
G04 #@! TD*
M02*
