G04 #@! TF.GenerationSoftware,KiCad,Pcbnew,(5.0.1)-4*
G04 #@! TF.CreationDate,2019-08-09T21:17:30+02:00*
G04 #@! TF.ProjectId,USB-SPI_prog,5553422D5350495F70726F672E6B6963,rev?*
G04 #@! TF.SameCoordinates,Original*
G04 #@! TF.FileFunction,Legend,Top*
G04 #@! TF.FilePolarity,Positive*
%FSLAX46Y46*%
G04 Gerber Fmt 4.6, Leading zero omitted, Abs format (unit mm)*
G04 Created by KiCad (PCBNEW (5.0.1)-4) date 09.08.2019 21:17:30*
%MOMM*%
%LPD*%
G01*
G04 APERTURE LIST*
%ADD10C,0.120000*%
%ADD11C,0.150000*%
G04 APERTURE END LIST*
D10*
G04 #@! TO.C,F1*
X133267752Y-91062000D02*
X128860248Y-91062000D01*
X133267752Y-85722000D02*
X128860248Y-85722000D01*
G04 #@! TO.C,SW1*
X158666000Y-89536000D02*
X158666000Y-90086000D01*
X158666000Y-90086000D02*
X157416000Y-90086000D01*
X148166000Y-89536000D02*
X148166000Y-90086000D01*
X148166000Y-90086000D02*
X149416000Y-90086000D01*
X158666000Y-80136000D02*
X158666000Y-79586000D01*
X158666000Y-79586000D02*
X153416000Y-79586000D01*
X148166000Y-80136000D02*
X148166000Y-79586000D01*
X148166000Y-79586000D02*
X149416000Y-79586000D01*
G04 #@! TO.C,C1*
X124662000Y-84069422D02*
X124662000Y-84586578D01*
X123242000Y-84069422D02*
X123242000Y-84586578D01*
G04 #@! TO.C,C2*
X129758064Y-97938000D02*
X128553936Y-97938000D01*
X129758064Y-96118000D02*
X128553936Y-96118000D01*
G04 #@! TO.C,C3*
X125220819Y-101907831D02*
X125546377Y-101907831D01*
X125220819Y-100887831D02*
X125546377Y-100887831D01*
G04 #@! TO.C,C4*
X132332819Y-100887831D02*
X132658377Y-100887831D01*
X132332819Y-101907831D02*
X132658377Y-101907831D01*
G04 #@! TO.C,D1*
X132296000Y-84047000D02*
X134581000Y-84047000D01*
X134581000Y-84047000D02*
X134581000Y-82577000D01*
X134581000Y-82577000D02*
X132296000Y-82577000D01*
G04 #@! TO.C,J1*
X123630000Y-89154000D02*
X123630000Y-89814000D01*
X121900000Y-89154000D02*
X123630000Y-89154000D01*
X119330000Y-96774000D02*
X119540000Y-96774000D01*
X119330000Y-89154000D02*
X119540000Y-89154000D01*
X121900000Y-96774000D02*
X123630000Y-96774000D01*
X123630000Y-96774000D02*
X123630000Y-96124000D01*
X124330000Y-91204000D02*
X124330000Y-91654000D01*
X124330000Y-91204000D02*
X123940000Y-91204000D01*
G04 #@! TO.C,J2*
X163770000Y-102930000D02*
X166430000Y-102930000D01*
X163770000Y-92710000D02*
X163770000Y-102930000D01*
X166430000Y-92710000D02*
X166430000Y-102930000D01*
X163770000Y-92710000D02*
X166430000Y-92710000D01*
X163770000Y-91440000D02*
X163770000Y-90110000D01*
X163770000Y-90110000D02*
X165100000Y-90110000D01*
G04 #@! TO.C,J3*
X166430000Y-110042000D02*
X166430000Y-107382000D01*
X140970000Y-110042000D02*
X166430000Y-110042000D01*
X140970000Y-107382000D02*
X166430000Y-107382000D01*
X140970000Y-110042000D02*
X140970000Y-107382000D01*
X139700000Y-110042000D02*
X138370000Y-110042000D01*
X138370000Y-110042000D02*
X138370000Y-108712000D01*
G04 #@! TO.C,R1*
X128265422Y-84022000D02*
X128782578Y-84022000D01*
X128265422Y-82602000D02*
X128782578Y-82602000D01*
G04 #@! TO.C,R2*
X140514000Y-87713078D02*
X140514000Y-87195922D01*
X141934000Y-87713078D02*
X141934000Y-87195922D01*
D11*
G04 #@! TO.C,U1*
X146333000Y-101919000D02*
X146583000Y-101919000D01*
X146333000Y-94169000D02*
X146668000Y-94169000D01*
X159483000Y-94169000D02*
X159148000Y-94169000D01*
X159483000Y-101919000D02*
X159148000Y-101919000D01*
X146333000Y-101919000D02*
X146333000Y-94169000D01*
X159483000Y-101919000D02*
X159483000Y-94169000D01*
X146583000Y-101919000D02*
X146583000Y-103719000D01*
D10*
G04 #@! TO.C,Y1*
X134839598Y-103419831D02*
X122239598Y-103419831D01*
X122239598Y-103419831D02*
X122239598Y-108519831D01*
X122239598Y-108519831D02*
X134839598Y-108519831D01*
G04 #@! TO.C,F1*
D11*
X130730666Y-92000571D02*
X130397333Y-92000571D01*
X130397333Y-92524380D02*
X130397333Y-91524380D01*
X130873523Y-91524380D01*
X131778285Y-92524380D02*
X131206857Y-92524380D01*
X131492571Y-92524380D02*
X131492571Y-91524380D01*
X131397333Y-91667238D01*
X131302095Y-91762476D01*
X131206857Y-91810095D01*
G04 #@! TO.C,SW1*
X162395761Y-82844333D02*
X162443380Y-82701476D01*
X162443380Y-82463380D01*
X162395761Y-82368142D01*
X162348142Y-82320523D01*
X162252904Y-82272904D01*
X162157666Y-82272904D01*
X162062428Y-82320523D01*
X162014809Y-82368142D01*
X161967190Y-82463380D01*
X161919571Y-82653857D01*
X161871952Y-82749095D01*
X161824333Y-82796714D01*
X161729095Y-82844333D01*
X161633857Y-82844333D01*
X161538619Y-82796714D01*
X161491000Y-82749095D01*
X161443380Y-82653857D01*
X161443380Y-82415761D01*
X161491000Y-82272904D01*
X161443380Y-81939571D02*
X162443380Y-81701476D01*
X161729095Y-81511000D01*
X162443380Y-81320523D01*
X161443380Y-81082428D01*
X162443380Y-80177666D02*
X162443380Y-80749095D01*
X162443380Y-80463380D02*
X161443380Y-80463380D01*
X161586238Y-80558619D01*
X161681476Y-80653857D01*
X161729095Y-80749095D01*
G04 #@! TO.C,C1*
X125959142Y-84494666D02*
X126006761Y-84542285D01*
X126054380Y-84685142D01*
X126054380Y-84780380D01*
X126006761Y-84923238D01*
X125911523Y-85018476D01*
X125816285Y-85066095D01*
X125625809Y-85113714D01*
X125482952Y-85113714D01*
X125292476Y-85066095D01*
X125197238Y-85018476D01*
X125102000Y-84923238D01*
X125054380Y-84780380D01*
X125054380Y-84685142D01*
X125102000Y-84542285D01*
X125149619Y-84494666D01*
X126054380Y-83542285D02*
X126054380Y-84113714D01*
X126054380Y-83828000D02*
X125054380Y-83828000D01*
X125197238Y-83923238D01*
X125292476Y-84018476D01*
X125340095Y-84113714D01*
G04 #@! TO.C,C2*
X128989333Y-99205142D02*
X128941714Y-99252761D01*
X128798857Y-99300380D01*
X128703619Y-99300380D01*
X128560761Y-99252761D01*
X128465523Y-99157523D01*
X128417904Y-99062285D01*
X128370285Y-98871809D01*
X128370285Y-98728952D01*
X128417904Y-98538476D01*
X128465523Y-98443238D01*
X128560761Y-98348000D01*
X128703619Y-98300380D01*
X128798857Y-98300380D01*
X128941714Y-98348000D01*
X128989333Y-98395619D01*
X129370285Y-98395619D02*
X129417904Y-98348000D01*
X129513142Y-98300380D01*
X129751238Y-98300380D01*
X129846476Y-98348000D01*
X129894095Y-98395619D01*
X129941714Y-98490857D01*
X129941714Y-98586095D01*
X129894095Y-98728952D01*
X129322666Y-99300380D01*
X129941714Y-99300380D01*
G04 #@! TO.C,C3*
X125216931Y-100324973D02*
X125169312Y-100372592D01*
X125026455Y-100420211D01*
X124931217Y-100420211D01*
X124788359Y-100372592D01*
X124693121Y-100277354D01*
X124645502Y-100182116D01*
X124597883Y-99991640D01*
X124597883Y-99848783D01*
X124645502Y-99658307D01*
X124693121Y-99563069D01*
X124788359Y-99467831D01*
X124931217Y-99420211D01*
X125026455Y-99420211D01*
X125169312Y-99467831D01*
X125216931Y-99515450D01*
X125550264Y-99420211D02*
X126169312Y-99420211D01*
X125835978Y-99801164D01*
X125978836Y-99801164D01*
X126074074Y-99848783D01*
X126121693Y-99896402D01*
X126169312Y-99991640D01*
X126169312Y-100229735D01*
X126121693Y-100324973D01*
X126074074Y-100372592D01*
X125978836Y-100420211D01*
X125693121Y-100420211D01*
X125597883Y-100372592D01*
X125550264Y-100324973D01*
G04 #@! TO.C,C4*
X132328931Y-100324973D02*
X132281312Y-100372592D01*
X132138455Y-100420211D01*
X132043217Y-100420211D01*
X131900359Y-100372592D01*
X131805121Y-100277354D01*
X131757502Y-100182116D01*
X131709883Y-99991640D01*
X131709883Y-99848783D01*
X131757502Y-99658307D01*
X131805121Y-99563069D01*
X131900359Y-99467831D01*
X132043217Y-99420211D01*
X132138455Y-99420211D01*
X132281312Y-99467831D01*
X132328931Y-99515450D01*
X133186074Y-99753545D02*
X133186074Y-100420211D01*
X132947978Y-99372592D02*
X132709883Y-100086878D01*
X133328931Y-100086878D01*
G04 #@! TO.C,D1*
X132357904Y-85194380D02*
X132357904Y-84194380D01*
X132596000Y-84194380D01*
X132738857Y-84242000D01*
X132834095Y-84337238D01*
X132881714Y-84432476D01*
X132929333Y-84622952D01*
X132929333Y-84765809D01*
X132881714Y-84956285D01*
X132834095Y-85051523D01*
X132738857Y-85146761D01*
X132596000Y-85194380D01*
X132357904Y-85194380D01*
X133881714Y-85194380D02*
X133310285Y-85194380D01*
X133596000Y-85194380D02*
X133596000Y-84194380D01*
X133500761Y-84337238D01*
X133405523Y-84432476D01*
X133310285Y-84480095D01*
G04 #@! TO.C,J1*
X124672380Y-93297333D02*
X125386666Y-93297333D01*
X125529523Y-93344952D01*
X125624761Y-93440190D01*
X125672380Y-93583047D01*
X125672380Y-93678285D01*
X125672380Y-92297333D02*
X125672380Y-92868761D01*
X125672380Y-92583047D02*
X124672380Y-92583047D01*
X124815238Y-92678285D01*
X124910476Y-92773523D01*
X124958095Y-92868761D01*
G04 #@! TO.C,J2*
X164766666Y-88562380D02*
X164766666Y-89276666D01*
X164719047Y-89419523D01*
X164623809Y-89514761D01*
X164480952Y-89562380D01*
X164385714Y-89562380D01*
X165195238Y-88657619D02*
X165242857Y-88610000D01*
X165338095Y-88562380D01*
X165576190Y-88562380D01*
X165671428Y-88610000D01*
X165719047Y-88657619D01*
X165766666Y-88752857D01*
X165766666Y-88848095D01*
X165719047Y-88990952D01*
X165147619Y-89562380D01*
X165766666Y-89562380D01*
G04 #@! TO.C,J3*
X136822380Y-109045333D02*
X137536666Y-109045333D01*
X137679523Y-109092952D01*
X137774761Y-109188190D01*
X137822380Y-109331047D01*
X137822380Y-109426285D01*
X136822380Y-108664380D02*
X136822380Y-108045333D01*
X137203333Y-108378666D01*
X137203333Y-108235809D01*
X137250952Y-108140571D01*
X137298571Y-108092952D01*
X137393809Y-108045333D01*
X137631904Y-108045333D01*
X137727142Y-108092952D01*
X137774761Y-108140571D01*
X137822380Y-108235809D01*
X137822380Y-108521523D01*
X137774761Y-108616761D01*
X137727142Y-108664380D01*
G04 #@! TO.C,R1*
X128357333Y-82114380D02*
X128024000Y-81638190D01*
X127785904Y-82114380D02*
X127785904Y-81114380D01*
X128166857Y-81114380D01*
X128262095Y-81162000D01*
X128309714Y-81209619D01*
X128357333Y-81304857D01*
X128357333Y-81447714D01*
X128309714Y-81542952D01*
X128262095Y-81590571D01*
X128166857Y-81638190D01*
X127785904Y-81638190D01*
X129309714Y-82114380D02*
X128738285Y-82114380D01*
X129024000Y-82114380D02*
X129024000Y-81114380D01*
X128928761Y-81257238D01*
X128833523Y-81352476D01*
X128738285Y-81400095D01*
G04 #@! TO.C,R2*
X140026380Y-87621166D02*
X139550190Y-87954500D01*
X140026380Y-88192595D02*
X139026380Y-88192595D01*
X139026380Y-87811642D01*
X139074000Y-87716404D01*
X139121619Y-87668785D01*
X139216857Y-87621166D01*
X139359714Y-87621166D01*
X139454952Y-87668785D01*
X139502571Y-87716404D01*
X139550190Y-87811642D01*
X139550190Y-88192595D01*
X139121619Y-87240214D02*
X139074000Y-87192595D01*
X139026380Y-87097357D01*
X139026380Y-86859261D01*
X139074000Y-86764023D01*
X139121619Y-86716404D01*
X139216857Y-86668785D01*
X139312095Y-86668785D01*
X139454952Y-86716404D01*
X140026380Y-87287833D01*
X140026380Y-86668785D01*
G04 #@! TO.C,U1*
X143216380Y-98805904D02*
X144025904Y-98805904D01*
X144121142Y-98758285D01*
X144168761Y-98710666D01*
X144216380Y-98615428D01*
X144216380Y-98424952D01*
X144168761Y-98329714D01*
X144121142Y-98282095D01*
X144025904Y-98234476D01*
X143216380Y-98234476D01*
X144216380Y-97234476D02*
X144216380Y-97805904D01*
X144216380Y-97520190D02*
X143216380Y-97520190D01*
X143359238Y-97615428D01*
X143454476Y-97710666D01*
X143502095Y-97805904D01*
G04 #@! TO.C,Y1*
X128463407Y-102396021D02*
X128463407Y-102872211D01*
X128130074Y-101872211D02*
X128463407Y-102396021D01*
X128796740Y-101872211D01*
X129653883Y-102872211D02*
X129082455Y-102872211D01*
X129368169Y-102872211D02*
X129368169Y-101872211D01*
X129272931Y-102015069D01*
X129177693Y-102110307D01*
X129082455Y-102157926D01*
G04 #@! TD*
M02*
